<?xml version="1.0" encoding="UTF-8" standalone="no"?>
<!DOCTYPE svg PUBLIC "-//W3C//DTD SVG 1.1//EN"
 "http://www.w3.org/Graphics/SVG/1.1/DTD/svg11.dtd">
<!-- Generated by graphviz version 2.43.0 (0)
 -->
<!-- Title: amr_wind::OversetOps Pages: 1 -->
<!--zoomable 758 -->
<svg id="main" version="1.1" xmlns="http://www.w3.org/2000/svg" xmlns:xlink="http://www.w3.org/1999/xlink" xml:space="preserve" onload="init(evt)">
<style type="text/css"><![CDATA[
.edge:hover path { stroke: red; }
.edge:hover polygon { stroke: red; fill: red; }
]]></style>
<script type="text/javascript"><![CDATA[
var edges = document.getElementsByTagName('g');
if (edges && edges.length) {
  for (var i=0;i<edges.length;i++) {
    if (edges[i].id.substr(0,4)=='edge') {
      edges[i].setAttribute('class','edge');
    }
  }
}
]]></script>
        <defs>
                <circle id="rim" cx="0" cy="0" r="7"/>
                <circle id="rim2" cx="0" cy="0" r="3.5"/>
                <g id="zoomPlus">
                        <use xlink:href="#rim" fill="#404040">
                                <set attributeName="fill" to="#808080" begin="zoomplus.mouseover" end="zoomplus.mouseout"/>
                        </use>
                        <path d="M-4,0h8M0,-4v8" fill="none" stroke="white" stroke-width="1.5" pointer-events="none"/>
                </g>
                <g id="zoomMin">
                        <use xlink:href="#rim" fill="#404040">
                                <set attributeName="fill" to="#808080" begin="zoomminus.mouseover" end="zoomminus.mouseout"/>
                        </use>
                        <path d="M-4,0h8" fill="none" stroke="white" stroke-width="1.5" pointer-events="none"/>
                </g>
                <g id="dirArrow">
                        <path fill="none" stroke="white" stroke-width="1.5" d="M0,-3.0v7 M-2.5,-0.5L0,-3.0L2.5,-0.5"/>
                </g>
               <g id="resetDef">
                       <use xlink:href="#rim2" fill="#404040">
                               <set attributeName="fill" to="#808080" begin="reset.mouseover" end="reset.mouseout"/>
                       </use>
               </g>
        </defs>

<script type="text/javascript">
var viewWidth = 2278;
var viewHeight = 758;
var sectionId = 'dynsection-0';
</script>
<script xlink:href="svgpan.js"/>
<svg id="graph" class="graph">
<g id="viewport">
<title>amr_wind::OversetOps</title>
<polygon fill="white" stroke="transparent" points="-4,4 -4,-754.31 2274,-754.31 2274,4 -4,4"/>
<!-- Node1 -->
<g id="node1" class="node">
<title>Node1</title>
<g id="a_node1"><a xlink:title=" ">
<polygon fill="#bfbfbf" stroke="black" points="2142,-604.81 2142,-623.81 2270,-623.81 2270,-604.81 2142,-604.81"/>
<text text-anchor="middle" x="2206" y="-611.81" font-family="Helvetica,sans-Serif" font-size="10.00">amr_wind::OversetOps</text>
</a>
</g>
</g>
<!-- Node2 -->
<g id="node2" class="node">
<title>Node2</title>
<g id="a_node2"><a xlink:href="classamr__wind_1_1_field.html" target="_top" xlink:title="Computational field.">
<polygon fill="white" stroke="black" points="1049.5,-656.81 1049.5,-675.81 1143.5,-675.81 1143.5,-656.81 1049.5,-656.81"/>
<text text-anchor="middle" x="1096.5" y="-663.81" font-family="Helvetica,sans-Serif" font-size="10.00">amr_wind::Field</text>
</a>
</g>
</g>
<!-- Node2&#45;&gt;Node1 -->
<g id="edge1" class="edge">
<title>Node2&#45;&gt;Node1</title>
<path fill="none" stroke="#9a32cd" stroke-dasharray="5,2" d="M1135.05,-679.04C1200.17,-699.96 1338.66,-739.31 1459,-739.31 1459,-739.31 1459,-739.31 1982.5,-739.31 2076.43,-739.31 2167.38,-653.59 2195.87,-624.12"/>
<polygon fill="#9a32cd" stroke="#9a32cd" points="1135.83,-675.62 1125.24,-675.85 1133.66,-682.27 1135.83,-675.62"/>
<text text-anchor="middle" x="1763" y="-742.31" font-family="Helvetica,sans-Serif" font-size="10.00"> m_gp_copy</text>
</g>
<!-- Node29 -->
<g id="node29" class="node">
<title>Node29</title>
<g id="a_node29"><a xlink:href="classamr__wind_1_1_multi_phase.html" target="_top" xlink:title=" ">
<polygon fill="white" stroke="black" points="1919,-604.81 1919,-623.81 2044,-623.81 2044,-604.81 1919,-604.81"/>
<text text-anchor="middle" x="1981.5" y="-611.81" font-family="Helvetica,sans-Serif" font-size="10.00">amr_wind::MultiPhase</text>
</a>
</g>
</g>
<!-- Node2&#45;&gt;Node29 -->
<g id="edge46" class="edge">
<title>Node2&#45;&gt;Node29</title>
<path fill="none" stroke="#9a32cd" stroke-dasharray="5,2" d="M1153.96,-670.95C1275.91,-679.88 1572.75,-695.69 1818,-661.31 1868.02,-654.3 1924.18,-635.49 1955.65,-623.9"/>
<polygon fill="#9a32cd" stroke="#9a32cd" points="1153.98,-667.45 1143.75,-670.19 1153.46,-674.43 1153.98,-667.45"/>
<text text-anchor="middle" x="1625" y="-716.31" font-family="Helvetica,sans-Serif" font-size="10.00"> m_density</text>
<text text-anchor="middle" x="1625" y="-705.31" font-family="Helvetica,sans-Serif" font-size="10.00">m_levelset</text>
<text text-anchor="middle" x="1625" y="-694.31" font-family="Helvetica,sans-Serif" font-size="10.00">m_velocity</text>
<text text-anchor="middle" x="1625" y="-683.31" font-family="Helvetica,sans-Serif" font-size="10.00">m_vof</text>
</g>
<!-- Node3 -->
<g id="node3" class="node">
<title>Node3</title>
<g id="a_node3"><a xlink:title=" ">
<polygon fill="white" stroke="#bfbfbf" points="605,-651.31 605,-681.31 725,-681.31 725,-651.31 605,-651.31"/>
<text text-anchor="start" x="613" y="-669.31" font-family="Helvetica,sans-Serif" font-size="10.00">std::shared_ptr&lt; amr</text>
<text text-anchor="middle" x="665" y="-658.31" font-family="Helvetica,sans-Serif" font-size="10.00">_wind::FieldInfo &gt;</text>
</a>
</g>
</g>
<!-- Node3&#45;&gt;Node2 -->
<g id="edge2" class="edge">
<title>Node3&#45;&gt;Node2</title>
<path fill="none" stroke="#9a32cd" stroke-dasharray="5,2" d="M735.46,-666.31C823.8,-666.31 973.89,-666.31 1049.33,-666.31"/>
<polygon fill="#9a32cd" stroke="#9a32cd" points="735.27,-662.81 725.27,-666.31 735.27,-669.81 735.27,-662.81"/>
<text text-anchor="middle" x="807.5" y="-669.31" font-family="Helvetica,sans-Serif" font-size="10.00"> m_info</text>
</g>
<!-- Node4 -->
<g id="node4" class="node">
<title>Node4</title>
<g id="a_node4"><a xlink:title=" ">
<polygon fill="white" stroke="#bfbfbf" points="189,-647.81 189,-666.81 307,-666.81 307,-647.81 189,-647.81"/>
<text text-anchor="middle" x="248" y="-654.81" font-family="Helvetica,sans-Serif" font-size="10.00">std::shared_ptr&lt; T &gt;</text>
</a>
</g>
</g>
<!-- Node4&#45;&gt;Node3 -->
<g id="edge3" class="edge">
<title>Node4&#45;&gt;Node3</title>
<path fill="none" stroke="orange" stroke-dasharray="5,2" d="M317.62,-658.8C397.79,-660.54 529.08,-663.38 604.91,-665.03"/>
<polygon fill="orange" stroke="orange" points="317.21,-655.29 307.14,-658.57 317.06,-662.29 317.21,-655.29"/>
<text text-anchor="middle" x="386" y="-664.31" font-family="Helvetica,sans-Serif" font-size="10.00"> &lt; amr_wind::FieldInfo &gt;</text>
</g>
<!-- Node5 -->
<g id="node5" class="node">
<title>Node5</title>
<g id="a_node5"><a xlink:title=" ">
<polygon fill="white" stroke="#bfbfbf" points="37.5,-580.81 37.5,-599.81 66.5,-599.81 66.5,-580.81 37.5,-580.81"/>
<text text-anchor="middle" x="52" y="-587.81" font-family="Helvetica,sans-Serif" font-size="10.00">T</text>
</a>
</g>
</g>
<!-- Node5&#45;&gt;Node4 -->
<g id="edge4" class="edge">
<title>Node5&#45;&gt;Node4</title>
<path fill="none" stroke="#9a32cd" stroke-dasharray="5,2" d="M76.64,-595.82C100.69,-601.69 138.9,-611.71 171,-623.31 190.71,-630.43 212.48,-640.39 227.64,-647.69"/>
<polygon fill="#9a32cd" stroke="#9a32cd" points="77.19,-592.36 66.65,-593.43 75.56,-599.17 77.19,-592.36"/>
<text text-anchor="middle" x="146.5" y="-626.31" font-family="Helvetica,sans-Serif" font-size="10.00"> ptr</text>
</g>
<!-- Node10 -->
<g id="node10" class="node">
<title>Node10</title>
<g id="a_node10"><a xlink:title=" ">
<polygon fill="white" stroke="#bfbfbf" points="191,-586.31 191,-616.31 305,-616.31 305,-586.31 191,-586.31"/>
<text text-anchor="start" x="199" y="-604.31" font-family="Helvetica,sans-Serif" font-size="10.00">std::unordered_map</text>
<text text-anchor="middle" x="248" y="-593.31" font-family="Helvetica,sans-Serif" font-size="10.00">&lt; K, T &gt;</text>
</a>
</g>
</g>
<!-- Node5&#45;&gt;Node10 -->
<g id="edge12" class="edge">
<title>Node5&#45;&gt;Node10</title>
<path fill="none" stroke="#9a32cd" stroke-dasharray="5,2" d="M77.06,-589.65C100.93,-589.21 138.54,-589.04 171,-591.31 177.37,-591.75 184.03,-592.38 190.63,-593.11"/>
<polygon fill="#9a32cd" stroke="#9a32cd" points="76.75,-586.16 66.83,-589.88 76.9,-593.16 76.75,-586.16"/>
<text text-anchor="middle" x="146.5" y="-594.31" font-family="Helvetica,sans-Serif" font-size="10.00"> elements</text>
</g>
<!-- Node14 -->
<g id="node14" class="node">
<title>Node14</title>
<g id="a_node14"><a xlink:title=" ">
<polygon fill="white" stroke="#bfbfbf" points="1037.5,-306.81 1037.5,-325.81 1155.5,-325.81 1155.5,-306.81 1037.5,-306.81"/>
<text text-anchor="middle" x="1096.5" y="-313.81" font-family="Helvetica,sans-Serif" font-size="10.00">std::unique_ptr&lt; T &gt;</text>
</a>
</g>
</g>
<!-- Node5&#45;&gt;Node14 -->
<g id="edge16" class="edge">
<title>Node5&#45;&gt;Node14</title>
<path fill="none" stroke="#9a32cd" stroke-dasharray="5,2" d="M75.26,-576.17C85.22,-568.89 96.41,-559.24 104,-548.31 215.08,-388.44 52.33,-134.31 247,-134.31 247,-134.31 247,-134.31 808.5,-134.31 938.3,-134.31 1056.96,-268.72 1087.77,-306.52"/>
<polygon fill="#9a32cd" stroke="#9a32cd" points="73.17,-573.36 66.94,-581.94 77.15,-579.12 73.17,-573.36"/>
<text text-anchor="middle" x="526" y="-137.31" font-family="Helvetica,sans-Serif" font-size="10.00"> ptr</text>
</g>
<!-- Node6 -->
<g id="node6" class="node">
<title>Node6</title>
<g id="a_node6"><a xlink:title=" ">
<polygon fill="white" stroke="#bfbfbf" points="215.5,-513.81 215.5,-532.81 280.5,-532.81 280.5,-513.81 215.5,-513.81"/>
<text text-anchor="middle" x="248" y="-520.81" font-family="Helvetica,sans-Serif" font-size="10.00">std::string</text>
</a>
</g>
</g>
<!-- Node6&#45;&gt;Node2 -->
<g id="edge5" class="edge">
<title>Node6&#45;&gt;Node2</title>
<path fill="none" stroke="#9a32cd" stroke-dasharray="5,2" d="M268.81,-539.28C283.48,-550.27 304.4,-564.29 325,-572.31 383.83,-595.21 402.49,-587.49 465,-596.31 683.11,-627.08 945.25,-652.5 1049.5,-662.14"/>
<polygon fill="#9a32cd" stroke="#9a32cd" points="270.6,-536.24 260.55,-532.91 266.33,-541.78 270.6,-536.24"/>
<text text-anchor="middle" x="665" y="-631.31" font-family="Helvetica,sans-Serif" font-size="10.00"> m_name</text>
</g>
<!-- Node9 -->
<g id="node9" class="node">
<title>Node9</title>
<g id="a_node9"><a xlink:title=" ">
<polygon fill="white" stroke="#bfbfbf" points="465,-556.31 465,-586.31 587,-586.31 587,-556.31 465,-556.31"/>
<text text-anchor="start" x="473" y="-574.31" font-family="Helvetica,sans-Serif" font-size="10.00">std::unordered_map</text>
<text text-anchor="middle" x="526" y="-563.31" font-family="Helvetica,sans-Serif" font-size="10.00">&lt; std::string, size_t &gt;</text>
</a>
</g>
</g>
<!-- Node6&#45;&gt;Node9 -->
<g id="edge9" class="edge">
<title>Node6&#45;&gt;Node9</title>
<path fill="none" stroke="#9a32cd" stroke-dasharray="5,2" d="M290.71,-531.1C301.84,-533.15 313.87,-535.34 325,-537.31 371.82,-545.6 424.88,-554.6 464.57,-561.26"/>
<polygon fill="#9a32cd" stroke="#9a32cd" points="291.25,-527.64 280.78,-529.27 289.98,-534.52 291.25,-527.64"/>
<text text-anchor="middle" x="386" y="-560.31" font-family="Helvetica,sans-Serif" font-size="10.00"> keys</text>
</g>
<!-- Node17 -->
<g id="node17" class="node">
<title>Node17</title>
<g id="a_node17"><a xlink:href="classamr__wind_1_1pde_1_1_p_d_e_mgr.html" target="_top" xlink:title="PDE systems manager.">
<polygon fill="white" stroke="black" points="1915,-90.81 1915,-109.81 2048,-109.81 2048,-90.81 1915,-90.81"/>
<text text-anchor="middle" x="1981.5" y="-97.81" font-family="Helvetica,sans-Serif" font-size="10.00">amr_wind::pde::PDEMgr</text>
</a>
</g>
</g>
<!-- Node6&#45;&gt;Node17 -->
<g id="edge28" class="edge">
<title>Node6&#45;&gt;Node17</title>
<path fill="none" stroke="#9a32cd" stroke-dasharray="5,2" d="M261.04,-504.94C310.19,-431.79 504.37,-160.07 743,-55.31 957.44,38.84 1034.3,-16.31 1268.5,-16.31 1268.5,-16.31 1268.5,-16.31 1764,-16.31 1845.44,-16.31 1933.15,-68.61 1966.54,-90.67"/>
<polygon fill="#9a32cd" stroke="#9a32cd" points="257.93,-503.3 255.31,-513.56 263.76,-507.17 257.93,-503.3"/>
<text text-anchor="middle" x="1096.5" y="-16.31" font-family="Helvetica,sans-Serif" font-size="10.00"> m_scheme</text>
</g>
<!-- Node20 -->
<g id="node20" class="node">
<title>Node20</title>
<g id="a_node20"><a xlink:title=" ">
<polygon fill="white" stroke="#bfbfbf" points="469,-448.31 469,-478.31 583,-478.31 583,-448.31 469,-448.31"/>
<text text-anchor="start" x="477" y="-466.31" font-family="Helvetica,sans-Serif" font-size="10.00">std::unordered_map</text>
<text text-anchor="middle" x="526" y="-455.31" font-family="Helvetica,sans-Serif" font-size="10.00">&lt; std::string, int &gt;</text>
</a>
</g>
</g>
<!-- Node6&#45;&gt;Node20 -->
<g id="edge25" class="edge">
<title>Node6&#45;&gt;Node20</title>
<path fill="none" stroke="#9a32cd" stroke-dasharray="5,2" d="M264.59,-506.08C278.74,-491.81 301.02,-472.59 325,-464.31 371.44,-448.27 427.65,-449.66 468.63,-454.1"/>
<polygon fill="#9a32cd" stroke="#9a32cd" points="261.98,-503.74 257.6,-513.39 267.04,-508.58 261.98,-503.74"/>
<text text-anchor="middle" x="386" y="-467.31" font-family="Helvetica,sans-Serif" font-size="10.00"> keys</text>
</g>
<!-- Node6&#45;&gt;Node29 -->
<g id="edge48" class="edge">
<title>Node6&#45;&gt;Node29</title>
<path fill="none" stroke="#9a32cd" stroke-dasharray="5,2" d="M291.11,-523.31C345.24,-523.31 442.12,-523.31 525,-523.31 525,-523.31 525,-523.31 953,-523.31 1143.5,-523.31 1727.01,-586.16 1918.74,-607.4"/>
<polygon fill="#9a32cd" stroke="#9a32cd" points="290.87,-519.81 280.87,-523.31 290.87,-526.81 290.87,-519.81"/>
<text text-anchor="middle" x="1096.5" y="-536.31" font-family="Helvetica,sans-Serif" font-size="10.00"> m_interface_model</text>
</g>
<!-- Node7 -->
<g id="node7" class="node">
<title>Node7</title>
<g id="a_node7"><a xlink:title=" ">
<polygon fill="white" stroke="#bfbfbf" points="0,-508.31 0,-538.31 104,-538.31 104,-508.31 0,-508.31"/>
<text text-anchor="start" x="8" y="-526.31" font-family="Helvetica,sans-Serif" font-size="10.00">std::basic_string&lt;</text>
<text text-anchor="middle" x="52" y="-515.31" font-family="Helvetica,sans-Serif" font-size="10.00"> Char &gt;</text>
</a>
</g>
</g>
<!-- Node7&#45;&gt;Node6 -->
<g id="edge6" class="edge">
<title>Node7&#45;&gt;Node6</title>
<path fill="none" stroke="midnightblue" d="M114.39,-523.31C147.91,-523.31 188.01,-523.31 215.27,-523.31"/>
<polygon fill="midnightblue" stroke="midnightblue" points="114.23,-519.81 104.22,-523.31 114.22,-526.81 114.23,-519.81"/>
</g>
<!-- Node8 -->
<g id="node8" class="node">
<title>Node8</title>
<g id="a_node8"><a xlink:href="classamr__wind_1_1_field_repo.html" target="_top" xlink:title="Field Repository.">
<polygon fill="white" stroke="black" points="748,-561.81 748,-580.81 867,-580.81 867,-561.81 748,-561.81"/>
<text text-anchor="middle" x="807.5" y="-568.81" font-family="Helvetica,sans-Serif" font-size="10.00">amr_wind::FieldRepo</text>
</a>
</g>
</g>
<!-- Node8&#45;&gt;Node2 -->
<g id="edge7" class="edge">
<title>Node8&#45;&gt;Node2</title>
<path fill="none" stroke="#9a32cd" stroke-dasharray="5,2" d="M877.44,-575.4C927.39,-579.17 990.16,-585.79 1014,-596.31 1045.74,-610.31 1074.38,-640.92 1087.67,-656.61"/>
<polygon fill="#9a32cd" stroke="#9a32cd" points="877.55,-571.9 867.32,-574.66 877.04,-578.88 877.55,-571.9"/>
<text text-anchor="middle" x="952" y="-599.31" font-family="Helvetica,sans-Serif" font-size="10.00"> m_repo</text>
</g>
<!-- Node12 -->
<g id="node12" class="node">
<title>Node12</title>
<g id="a_node12"><a xlink:href="classamr__wind_1_1_c_f_d_sim.html" target="_top" xlink:title="Data structures for a CFD simulation.">
<polygon fill="white" stroke="black" points="1708,-331.81 1708,-350.81 1818,-350.81 1818,-331.81 1708,-331.81"/>
<text text-anchor="middle" x="1763" y="-338.81" font-family="Helvetica,sans-Serif" font-size="10.00">amr_wind::CFDSim</text>
</a>
</g>
</g>
<!-- Node8&#45;&gt;Node12 -->
<g id="edge36" class="edge">
<title>Node8&#45;&gt;Node12</title>
<path fill="none" stroke="#9a32cd" stroke-dasharray="5,2" d="M877.42,-572.79C1073.64,-576.4 1625.37,-582.15 1690,-534.31 1751.8,-488.56 1760.58,-383.53 1761.81,-351.05"/>
<polygon fill="#9a32cd" stroke="#9a32cd" points="877.29,-569.29 867.23,-572.6 877.16,-576.29 877.29,-569.29"/>
<text text-anchor="middle" x="1269.5" y="-577.31" font-family="Helvetica,sans-Serif" font-size="10.00"> m_repo</text>
</g>
<!-- Node9&#45;&gt;Node8 -->
<g id="edge8" class="edge">
<title>Node9&#45;&gt;Node8</title>
<path fill="none" stroke="#9a32cd" stroke-dasharray="5,2" d="M597.58,-571.31C643.97,-571.31 703.96,-571.31 747.74,-571.31"/>
<polygon fill="#9a32cd" stroke="#9a32cd" points="597.3,-567.81 587.3,-571.31 597.3,-574.81 597.3,-567.81"/>
<text text-anchor="middle" x="665" y="-585.31" font-family="Helvetica,sans-Serif" font-size="10.00"> m_fid_map</text>
<text text-anchor="middle" x="665" y="-574.31" font-family="Helvetica,sans-Serif" font-size="10.00">m_int_fid_map</text>
</g>
<!-- Node10&#45;&gt;Node9 -->
<g id="edge10" class="edge">
<title>Node10&#45;&gt;Node9</title>
<path fill="none" stroke="orange" stroke-dasharray="5,2" d="M315.47,-596.3C353.96,-593.14 403.28,-588.65 447,-583.31 452.71,-582.61 458.65,-581.82 464.58,-580.98"/>
<polygon fill="orange" stroke="orange" points="315.11,-592.82 305.43,-597.12 315.68,-599.8 315.11,-592.82"/>
<text text-anchor="middle" x="386" y="-597.31" font-family="Helvetica,sans-Serif" font-size="10.00"> &lt; std::string, size_t &gt;</text>
</g>
<!-- Node10&#45;&gt;Node20 -->
<g id="edge26" class="edge">
<title>Node10&#45;&gt;Node20</title>
<path fill="none" stroke="orange" stroke-dasharray="5,2" d="M271.55,-578.84C282.38,-567.93 295.49,-554.55 307,-542.31 315.19,-533.6 314.88,-528.69 325,-522.31 369.1,-494.51 426.87,-479.32 468.98,-471.35"/>
<polygon fill="orange" stroke="orange" points="269.03,-576.41 264.45,-585.96 273.99,-581.35 269.03,-576.41"/>
<text text-anchor="middle" x="386" y="-525.31" font-family="Helvetica,sans-Serif" font-size="10.00"> &lt; std::string, int &gt;</text>
</g>
<!-- Node11 -->
<g id="node11" class="node">
<title>Node11</title>
<g id="a_node11"><a xlink:title=" ">
<polygon fill="white" stroke="#bfbfbf" points="37.5,-648.81 37.5,-667.81 66.5,-667.81 66.5,-648.81 37.5,-648.81"/>
<text text-anchor="middle" x="52" y="-655.81" font-family="Helvetica,sans-Serif" font-size="10.00">K</text>
</a>
</g>
</g>
<!-- Node11&#45;&gt;Node10 -->
<g id="edge11" class="edge">
<title>Node11&#45;&gt;Node10</title>
<path fill="none" stroke="#9a32cd" stroke-dasharray="5,2" d="M76.74,-655.64C100.87,-652.52 139.14,-646.44 171,-636.31 187.33,-631.11 204.76,-623.27 218.8,-616.33"/>
<polygon fill="#9a32cd" stroke="#9a32cd" points="76.22,-652.17 66.72,-656.87 77.07,-659.12 76.22,-652.17"/>
<text text-anchor="middle" x="146.5" y="-650.31" font-family="Helvetica,sans-Serif" font-size="10.00"> keys</text>
</g>
<!-- Node12&#45;&gt;Node1 -->
<g id="edge13" class="edge">
<title>Node12&#45;&gt;Node1</title>
<path fill="none" stroke="#9a32cd" stroke-dasharray="5,2" d="M1788.34,-356.38C1868.64,-406.09 2123.78,-564.03 2189.46,-604.69"/>
<polygon fill="#9a32cd" stroke="#9a32cd" points="1789.78,-353.15 1779.44,-350.87 1786.1,-359.11 1789.78,-353.15"/>
<text text-anchor="middle" x="1981.5" y="-517.31" font-family="Helvetica,sans-Serif" font-size="10.00"> m_sim_ptr</text>
</g>
<!-- Node12&#45;&gt;Node17 -->
<g id="edge27" class="edge">
<title>Node12&#45;&gt;Node17</title>
<path fill="none" stroke="#9a32cd" stroke-dasharray="5,2" d="M1795.05,-327.23C1824.25,-312.77 1867.73,-287.93 1897,-256.31 1940.19,-209.64 1968.13,-136.45 1977.24,-110.14"/>
<polygon fill="#9a32cd" stroke="#9a32cd" points="1793.22,-324.23 1785.74,-331.74 1796.26,-330.53 1793.22,-324.23"/>
<text text-anchor="middle" x="1866.5" y="-307.31" font-family="Helvetica,sans-Serif" font-size="10.00"> m_sim</text>
</g>
<!-- Node12&#45;&gt;Node29 -->
<g id="edge47" class="edge">
<title>Node12&#45;&gt;Node29</title>
<path fill="none" stroke="#9a32cd" stroke-dasharray="5,2" d="M1778.1,-359.09C1819.73,-411.59 1941.23,-564.79 1972.89,-604.71"/>
<polygon fill="#9a32cd" stroke="#9a32cd" points="1780.66,-356.69 1771.71,-351.03 1775.18,-361.04 1780.66,-356.69"/>
<text text-anchor="middle" x="1866.5" y="-505.31" font-family="Helvetica,sans-Serif" font-size="10.00"> m_sim</text>
</g>
<!-- Node13 -->
<g id="node13" class="node">
<title>Node13</title>
<g id="a_node13"><a xlink:title=" ">
<polygon fill="white" stroke="#bfbfbf" points="1393.5,-503.31 1393.5,-533.31 1526.5,-533.31 1526.5,-503.31 1393.5,-503.31"/>
<text text-anchor="start" x="1401.5" y="-521.31" font-family="Helvetica,sans-Serif" font-size="10.00">std::unique_ptr&lt; amr</text>
<text text-anchor="middle" x="1460" y="-510.31" font-family="Helvetica,sans-Serif" font-size="10.00">_wind::helics_storage &gt;</text>
</a>
</g>
</g>
<!-- Node13&#45;&gt;Node12 -->
<g id="edge14" class="edge">
<title>Node13&#45;&gt;Node12</title>
<path fill="none" stroke="#9a32cd" stroke-dasharray="5,2" d="M1536.7,-521.03C1584.77,-519.09 1645.99,-509.43 1690,-477.31 1734.45,-444.86 1753.99,-376.57 1759.92,-351.13"/>
<polygon fill="#9a32cd" stroke="#9a32cd" points="1536.55,-517.53 1526.66,-521.33 1536.76,-524.53 1536.55,-517.53"/>
<text text-anchor="middle" x="1625" y="-522.31" font-family="Helvetica,sans-Serif" font-size="10.00"> m_helics</text>
</g>
<!-- Node14&#45;&gt;Node13 -->
<g id="edge15" class="edge">
<title>Node14&#45;&gt;Node13</title>
<path fill="none" stroke="orange" stroke-dasharray="5,2" d="M1101.77,-335.77C1110.19,-369.18 1132.35,-436.94 1179,-469.31 1212.34,-492.44 1320.15,-485.66 1360,-493.31 1374.45,-496.08 1389.94,-499.69 1404.27,-503.29"/>
<polygon fill="orange" stroke="orange" points="1105.13,-334.79 1099.42,-325.86 1098.32,-336.4 1105.13,-334.79"/>
<text text-anchor="start" x="1221" y="-507.31" font-family="Helvetica,sans-Serif" font-size="10.00"> &lt; amr_wind::helics</text>
<text text-anchor="middle" x="1269.5" y="-496.31" font-family="Helvetica,sans-Serif" font-size="10.00">_storage &gt;</text>
</g>
<!-- Node15 -->
<g id="node15" class="node">
<title>Node15</title>
<g id="a_node15"><a xlink:title=" ">
<polygon fill="white" stroke="#bfbfbf" points="1400,-454.31 1400,-484.31 1520,-484.31 1520,-454.31 1400,-454.31"/>
<text text-anchor="start" x="1408" y="-472.31" font-family="Helvetica,sans-Serif" font-size="10.00">std::unique_ptr&lt; amr</text>
<text text-anchor="middle" x="1460" y="-461.31" font-family="Helvetica,sans-Serif" font-size="10.00">_wind::IOManager &gt;</text>
</a>
</g>
</g>
<!-- Node14&#45;&gt;Node15 -->
<g id="edge18" class="edge">
<title>Node14&#45;&gt;Node15</title>
<path fill="none" stroke="orange" stroke-dasharray="5,2" d="M1104.86,-335.37C1116.3,-362.17 1141.07,-410.31 1179,-433.31 1183.69,-436.16 1319.09,-452.67 1399.85,-462.31"/>
<polygon fill="orange" stroke="orange" points="1108.03,-333.86 1101.01,-325.93 1101.55,-336.51 1108.03,-333.86"/>
<text text-anchor="middle" x="1269.5" y="-460.31" font-family="Helvetica,sans-Serif" font-size="10.00"> &lt; amr_wind::IOManager &gt;</text>
</g>
<!-- Node16 -->
<g id="node16" class="node">
<title>Node16</title>
<g id="a_node16"><a xlink:title=" ">
<polygon fill="white" stroke="#bfbfbf" points="1378,-405.31 1378,-435.31 1542,-435.31 1542,-405.31 1378,-405.31"/>
<text text-anchor="start" x="1386" y="-423.31" font-family="Helvetica,sans-Serif" font-size="10.00">std::unique_ptr&lt; amr</text>
<text text-anchor="middle" x="1460" y="-412.31" font-family="Helvetica,sans-Serif" font-size="10.00">_wind::PostProcessManager &gt;</text>
</a>
</g>
</g>
<!-- Node14&#45;&gt;Node16 -->
<g id="edge20" class="edge">
<title>Node14&#45;&gt;Node16</title>
<path fill="none" stroke="orange" stroke-dasharray="5,2" d="M1113.52,-333.51C1128.79,-348.75 1153.23,-370.24 1179,-381.31 1242.24,-408.48 1320.23,-417.59 1377.83,-420.27"/>
<polygon fill="orange" stroke="orange" points="1115.89,-330.93 1106.41,-326.2 1110.87,-335.81 1115.89,-330.93"/>
<text text-anchor="middle" x="1269.5" y="-422.31" font-family="Helvetica,sans-Serif" font-size="10.00"> &lt; amr_wind::PostProcessManager &gt;</text>
</g>
<!-- Node21 -->
<g id="node21" class="node">
<title>Node21</title>
<g id="a_node21"><a xlink:title=" ">
<polygon fill="white" stroke="#bfbfbf" points="1560,-78.31 1560,-108.31 1690,-108.31 1690,-78.31 1560,-78.31"/>
<text text-anchor="start" x="1568" y="-96.31" font-family="Helvetica,sans-Serif" font-size="10.00">std::unique_ptr&lt; amr</text>
<text text-anchor="middle" x="1625" y="-85.31" font-family="Helvetica,sans-Serif" font-size="10.00">_wind::pde::PDEBase &gt;</text>
</a>
</g>
</g>
<!-- Node14&#45;&gt;Node21 -->
<g id="edge30" class="edge">
<title>Node14&#45;&gt;Node21</title>
<path fill="none" stroke="orange" stroke-dasharray="5,2" d="M1107.08,-297.77C1120.4,-273.54 1146.55,-231.06 1179,-204.31 1254.33,-142.21 1283.53,-135.95 1378,-111.31 1438.29,-95.59 1509.51,-91.92 1559.77,-91.69"/>
<polygon fill="orange" stroke="orange" points="1103.96,-296.18 1102.33,-306.65 1110.13,-299.49 1103.96,-296.18"/>
<text text-anchor="middle" x="1269.5" y="-207.31" font-family="Helvetica,sans-Serif" font-size="10.00"> &lt; amr_wind::pde::PDEBase &gt;</text>
</g>
<!-- Node23 -->
<g id="node23" class="node">
<title>Node23</title>
<g id="a_node23"><a xlink:title=" ">
<polygon fill="white" stroke="#bfbfbf" points="1388.5,-356.31 1388.5,-386.31 1531.5,-386.31 1531.5,-356.31 1388.5,-356.31"/>
<text text-anchor="start" x="1396.5" y="-374.31" font-family="Helvetica,sans-Serif" font-size="10.00">std::unique_ptr&lt; amr</text>
<text text-anchor="middle" x="1460" y="-363.31" font-family="Helvetica,sans-Serif" font-size="10.00">_wind::OversetManager &gt;</text>
</a>
</g>
</g>
<!-- Node14&#45;&gt;Node23 -->
<g id="edge33" class="edge">
<title>Node14&#45;&gt;Node23</title>
<path fill="none" stroke="orange" stroke-dasharray="5,2" d="M1132.69,-329.28C1146.9,-334.06 1163.56,-339.08 1179,-342.31 1249.44,-357.03 1331.49,-364.41 1388.48,-368.03"/>
<polygon fill="orange" stroke="orange" points="1133.43,-325.83 1122.83,-325.88 1131.14,-332.45 1133.43,-325.83"/>
<text text-anchor="middle" x="1269.5" y="-369.31" font-family="Helvetica,sans-Serif" font-size="10.00"> &lt; amr_wind::OversetManager &gt;</text>
</g>
<!-- Node24 -->
<g id="node24" class="node">
<title>Node24</title>
<g id="a_node24"><a xlink:title=" ">
<polygon fill="white" stroke="#bfbfbf" points="1379.5,-295.81 1379.5,-336.81 1540.5,-336.81 1540.5,-295.81 1379.5,-295.81"/>
<text text-anchor="start" x="1387.5" y="-324.81" font-family="Helvetica,sans-Serif" font-size="10.00">std::unique_ptr&lt; amr</text>
<text text-anchor="start" x="1387.5" y="-313.81" font-family="Helvetica,sans-Serif" font-size="10.00">_wind::turbulence::Turbulence</text>
<text text-anchor="middle" x="1460" y="-302.81" font-family="Helvetica,sans-Serif" font-size="10.00">Model &gt;</text>
</a>
</g>
</g>
<!-- Node14&#45;&gt;Node24 -->
<g id="edge35" class="edge">
<title>Node14&#45;&gt;Node24</title>
<path fill="none" stroke="orange" stroke-dasharray="5,2" d="M1165.84,-316.31C1226.63,-316.31 1315.55,-316.31 1379.5,-316.31"/>
<polygon fill="orange" stroke="orange" points="1165.58,-312.81 1155.58,-316.31 1165.58,-319.81 1165.58,-312.81"/>
<text text-anchor="start" x="1209" y="-330.31" font-family="Helvetica,sans-Serif" font-size="10.00"> &lt; amr_wind::turbulence</text>
<text text-anchor="middle" x="1269.5" y="-319.31" font-family="Helvetica,sans-Serif" font-size="10.00">::TurbulenceModel &gt;</text>
</g>
<!-- Node25 -->
<g id="node25" class="node">
<title>Node25</title>
<g id="a_node25"><a xlink:title=" ">
<polygon fill="white" stroke="#bfbfbf" points="1400,-246.31 1400,-276.31 1520,-276.31 1520,-246.31 1400,-246.31"/>
<text text-anchor="start" x="1408" y="-264.31" font-family="Helvetica,sans-Serif" font-size="10.00">std::unique_ptr&lt; amr</text>
<text text-anchor="middle" x="1460" y="-253.31" font-family="Helvetica,sans-Serif" font-size="10.00">_wind::MeshMap &gt;</text>
</a>
</g>
</g>
<!-- Node14&#45;&gt;Node25 -->
<g id="edge38" class="edge">
<title>Node14&#45;&gt;Node25</title>
<path fill="none" stroke="orange" stroke-dasharray="5,2" d="M1157.32,-305.02C1164.61,-303.72 1171.97,-302.46 1179,-301.31 1255.09,-288.88 1343.16,-276.65 1399.9,-269.05"/>
<polygon fill="orange" stroke="orange" points="1156.67,-301.58 1147.44,-306.79 1157.9,-308.47 1156.67,-301.58"/>
<text text-anchor="middle" x="1269.5" y="-304.31" font-family="Helvetica,sans-Serif" font-size="10.00"> &lt; amr_wind::MeshMap &gt;</text>
</g>
<!-- Node26 -->
<g id="node26" class="node">
<title>Node26</title>
<g id="a_node26"><a xlink:title=" ">
<polygon fill="white" stroke="#bfbfbf" points="1396,-197.31 1396,-227.31 1524,-227.31 1524,-197.31 1396,-197.31"/>
<text text-anchor="start" x="1404" y="-215.31" font-family="Helvetica,sans-Serif" font-size="10.00">std::unique_ptr&lt; amr</text>
<text text-anchor="middle" x="1460" y="-204.31" font-family="Helvetica,sans-Serif" font-size="10.00">_wind::ExtSolverMgr &gt;</text>
</a>
</g>
</g>
<!-- Node14&#45;&gt;Node26 -->
<g id="edge40" class="edge">
<title>Node14&#45;&gt;Node26</title>
<path fill="none" stroke="orange" stroke-dasharray="5,2" d="M1116.05,-300.05C1131.74,-287.21 1155.38,-269.91 1179,-260.31 1249.94,-231.49 1337.81,-219.97 1395.99,-215.37"/>
<polygon fill="orange" stroke="orange" points="1113.6,-297.54 1108.2,-306.65 1118.11,-302.9 1113.6,-297.54"/>
<text text-anchor="middle" x="1269.5" y="-263.31" font-family="Helvetica,sans-Serif" font-size="10.00"> &lt; amr_wind::ExtSolverMgr &gt;</text>
</g>
<!-- Node15&#45;&gt;Node12 -->
<g id="edge17" class="edge">
<title>Node15&#45;&gt;Node12</title>
<path fill="none" stroke="#9a32cd" stroke-dasharray="5,2" d="M1530.35,-466.48C1577.99,-461.9 1641.2,-450.46 1690,-422.31 1721.13,-404.35 1745.89,-368.1 1756.45,-350.85"/>
<polygon fill="#9a32cd" stroke="#9a32cd" points="1529.78,-463.02 1520.12,-467.38 1530.39,-469.99 1529.78,-463.02"/>
<text text-anchor="middle" x="1625" y="-465.31" font-family="Helvetica,sans-Serif" font-size="10.00"> m_io_mgr</text>
</g>
<!-- Node16&#45;&gt;Node12 -->
<g id="edge19" class="edge">
<title>Node16&#45;&gt;Node12</title>
<path fill="none" stroke="#9a32cd" stroke-dasharray="5,2" d="M1552.14,-408.43C1594.69,-401.47 1645.63,-391.07 1690,-376.31 1709.78,-369.73 1731.1,-358.84 1745.36,-350.96"/>
<polygon fill="#9a32cd" stroke="#9a32cd" points="1551.39,-405.01 1542.07,-410.04 1552.5,-411.92 1551.39,-405.01"/>
<text text-anchor="middle" x="1625" y="-410.31" font-family="Helvetica,sans-Serif" font-size="10.00"> m_post_mgr</text>
</g>
<!-- Node17&#45;&gt;Node12 -->
<g id="edge21" class="edge">
<title>Node17&#45;&gt;Node12</title>
<path fill="none" stroke="#9a32cd" stroke-dasharray="5,2" d="M1962.31,-116.99C1934.08,-143.21 1878.56,-196.16 1836,-245.31 1809.95,-275.39 1782.69,-314.03 1770.53,-331.7"/>
<polygon fill="#9a32cd" stroke="#9a32cd" points="1964.86,-119.39 1969.83,-110.03 1960.11,-114.25 1964.86,-119.39"/>
<text text-anchor="middle" x="1866.5" y="-248.31" font-family="Helvetica,sans-Serif" font-size="10.00"> m_pde_mgr</text>
</g>
<!-- Node18 -->
<g id="node18" class="node">
<title>Node18</title>
<g id="a_node18"><a xlink:href="classamr__wind_1_1_coll_mgr.html" target="_top" xlink:title=" ">
<polygon fill="white" stroke="black" points="1210,-39.31 1210,-69.31 1329,-69.31 1329,-39.31 1210,-39.31"/>
<text text-anchor="start" x="1218" y="-57.31" font-family="Helvetica,sans-Serif" font-size="10.00">amr_wind::CollMgr&lt;</text>
<text text-anchor="middle" x="1269.5" y="-46.31" font-family="Helvetica,sans-Serif" font-size="10.00"> PDEMgr, PDEBase &gt;</text>
</a>
</g>
</g>
<!-- Node18&#45;&gt;Node17 -->
<g id="edge22" class="edge">
<title>Node18&#45;&gt;Node17</title>
<path fill="none" stroke="midnightblue" d="M1339.37,-55C1422.55,-56.2 1566.67,-59.47 1690,-68.31 1767.43,-73.86 1856.07,-84.2 1914.87,-91.63"/>
<polygon fill="midnightblue" stroke="midnightblue" points="1339.33,-51.5 1329.28,-54.86 1339.23,-58.5 1339.33,-51.5"/>
</g>
<!-- Node19 -->
<g id="node19" class="node">
<title>Node19</title>
<g id="a_node19"><a xlink:href="classamr__wind_1_1_coll_mgr.html" target="_top" xlink:title="Interface to manage objects of sub&#45;classes based on factory registration.">
<polygon fill="white" stroke="black" points="743,-64.81 743,-105.81 872,-105.81 872,-64.81 743,-64.81"/>
<text text-anchor="start" x="751" y="-93.81" font-family="Helvetica,sans-Serif" font-size="10.00">amr_wind::CollMgr&lt;</text>
<text text-anchor="start" x="751" y="-82.81" font-family="Helvetica,sans-Serif" font-size="10.00"> Collection, Type, allow</text>
<text text-anchor="middle" x="807.5" y="-71.81" font-family="Helvetica,sans-Serif" font-size="10.00">_duplicates &gt;</text>
</a>
</g>
</g>
<!-- Node19&#45;&gt;Node18 -->
<g id="edge23" class="edge">
<title>Node19&#45;&gt;Node18</title>
<path fill="none" stroke="orange" stroke-dasharray="5,2" d="M882.25,-76.04C884.86,-75.78 887.45,-75.54 890,-75.31 1002.92,-65.26 1135.24,-59.23 1209.73,-56.36"/>
<polygon fill="orange" stroke="orange" points="881.66,-72.58 872.08,-77.09 882.39,-79.54 881.66,-72.58"/>
<text text-anchor="middle" x="952" y="-78.31" font-family="Helvetica,sans-Serif" font-size="10.00"> &lt; PDEMgr, PDEBase &gt;</text>
</g>
<!-- Node28 -->
<g id="node28" class="node">
<title>Node28</title>
<g id="a_node28"><a xlink:href="classamr__wind_1_1_coll_mgr.html" target="_top" xlink:title=" ">
<polygon fill="white" stroke="black" points="1032,-84.31 1032,-114.31 1161,-114.31 1161,-84.31 1032,-84.31"/>
<text text-anchor="start" x="1040" y="-102.31" font-family="Helvetica,sans-Serif" font-size="10.00">amr_wind::CollMgr&lt;</text>
<text text-anchor="middle" x="1096.5" y="-91.31" font-family="Helvetica,sans-Serif" font-size="10.00"> PhysicsMgr, Physics &gt;</text>
</a>
</g>
</g>
<!-- Node19&#45;&gt;Node28 -->
<g id="edge43" class="edge">
<title>Node19&#45;&gt;Node28</title>
<path fill="none" stroke="orange" stroke-dasharray="5,2" d="M882.47,-88.92C928.77,-91.18 987.81,-94.06 1031.98,-96.21"/>
<polygon fill="orange" stroke="orange" points="882.35,-85.41 872.19,-88.42 882.01,-92.4 882.35,-85.41"/>
<text text-anchor="middle" x="952" y="-98.31" font-family="Helvetica,sans-Serif" font-size="10.00"> &lt; PhysicsMgr, Physics &gt;</text>
</g>
<!-- Node20&#45;&gt;Node19 -->
<g id="edge24" class="edge">
<title>Node20&#45;&gt;Node19</title>
<path fill="none" stroke="#9a32cd" stroke-dasharray="5,2" d="M544.26,-439.97C594.95,-371.41 742.86,-171.38 791.1,-106.14"/>
<polygon fill="#9a32cd" stroke="#9a32cd" points="541.43,-437.9 538.3,-448.02 547.06,-442.06 541.43,-437.9"/>
<text text-anchor="middle" x="665" y="-355.31" font-family="Helvetica,sans-Serif" font-size="10.00"> m_obj_map</text>
</g>
<!-- Node21&#45;&gt;Node17 -->
<g id="edge29" class="edge">
<title>Node21&#45;&gt;Node17</title>
<path fill="none" stroke="#9a32cd" stroke-dasharray="5,2" d="M1700.54,-94.78C1763.99,-96.03 1854.25,-97.82 1914.98,-99.02"/>
<polygon fill="#9a32cd" stroke="#9a32cd" points="1700.26,-91.28 1690.2,-94.58 1700.13,-98.27 1700.26,-91.28"/>
<text text-anchor="middle" x="1763" y="-100.31" font-family="Helvetica,sans-Serif" font-size="10.00"> m_icns</text>
</g>
<!-- Node22 -->
<g id="node22" class="node">
<title>Node22</title>
<g id="a_node22"><a xlink:href="classamr__wind_1_1_sim_time.html" target="_top" xlink:title="Time manager for simulations.">
<polygon fill="white" stroke="black" points="1403,-158.81 1403,-177.81 1517,-177.81 1517,-158.81 1403,-158.81"/>
<text text-anchor="middle" x="1460" y="-165.81" font-family="Helvetica,sans-Serif" font-size="10.00">amr_wind::SimTime</text>
</a>
</g>
</g>
<!-- Node22&#45;&gt;Node12 -->
<g id="edge31" class="edge">
<title>Node22&#45;&gt;Node12</title>
<path fill="none" stroke="#9a32cd" stroke-dasharray="5,2" d="M1527.32,-163.58C1576.52,-163.42 1642.96,-170.62 1690,-204.31 1735.22,-236.69 1754.39,-306.28 1760.07,-331.73"/>
<polygon fill="#9a32cd" stroke="#9a32cd" points="1527.05,-160.08 1517.09,-163.72 1527.14,-167.08 1527.05,-160.08"/>
<text text-anchor="middle" x="1625" y="-207.31" font-family="Helvetica,sans-Serif" font-size="10.00"> m_time</text>
</g>
<!-- Node23&#45;&gt;Node12 -->
<g id="edge32" class="edge">
<title>Node23&#45;&gt;Node12</title>
<path fill="none" stroke="#9a32cd" stroke-dasharray="5,2" d="M1541.56,-363.28C1594.2,-358.03 1661.53,-351.32 1707.85,-346.71"/>
<polygon fill="#9a32cd" stroke="#9a32cd" points="1541.17,-359.8 1531.57,-364.28 1541.87,-366.77 1541.17,-359.8"/>
<text text-anchor="middle" x="1625" y="-364.31" font-family="Helvetica,sans-Serif" font-size="10.00"> m_overset_mgr</text>
</g>
<!-- Node24&#45;&gt;Node12 -->
<g id="edge34" class="edge">
<title>Node24&#45;&gt;Node12</title>
<path fill="none" stroke="#9a32cd" stroke-dasharray="5,2" d="M1550.7,-318.39C1593.05,-320.04 1644.24,-323 1690,-328.31 1697.82,-329.22 1706.08,-330.45 1714.1,-331.79"/>
<polygon fill="#9a32cd" stroke="#9a32cd" points="1550.82,-314.89 1540.69,-318.02 1550.55,-321.88 1550.82,-314.89"/>
<text text-anchor="middle" x="1625" y="-331.31" font-family="Helvetica,sans-Serif" font-size="10.00"> m_turbulence</text>
</g>
<!-- Node25&#45;&gt;Node12 -->
<g id="edge37" class="edge">
<title>Node25&#45;&gt;Node12</title>
<path fill="none" stroke="#9a32cd" stroke-dasharray="5,2" d="M1530.27,-269.01C1576.4,-275.42 1637.88,-286.45 1690,-304.31 1710.47,-311.33 1732.37,-323.29 1746.57,-331.71"/>
<polygon fill="#9a32cd" stroke="#9a32cd" points="1530.46,-265.51 1520.08,-267.64 1529.52,-272.44 1530.46,-265.51"/>
<text text-anchor="middle" x="1625" y="-307.31" font-family="Helvetica,sans-Serif" font-size="10.00"> m_mesh_map</text>
</g>
<!-- Node26&#45;&gt;Node12 -->
<g id="edge39" class="edge">
<title>Node26&#45;&gt;Node12</title>
<path fill="none" stroke="#9a32cd" stroke-dasharray="5,2" d="M1534.27,-215.43C1581.45,-220.2 1642.59,-231.77 1690,-259.31 1721.29,-277.49 1745.97,-314.19 1756.48,-331.65"/>
<polygon fill="#9a32cd" stroke="#9a32cd" points="1534.41,-211.92 1524.12,-214.48 1533.76,-218.89 1534.41,-211.92"/>
<text text-anchor="middle" x="1625" y="-262.31" font-family="Helvetica,sans-Serif" font-size="10.00"> m_ext_solver_mgr</text>
</g>
<!-- Node27 -->
<g id="node27" class="node">
<title>Node27</title>
<g id="a_node27"><a xlink:href="classamr__wind_1_1_physics_mgr.html" target="_top" xlink:title="A collection of Physics models instances that are active during a simulation.">
<polygon fill="white" stroke="black" points="1397,-120.81 1397,-139.81 1523,-139.81 1523,-120.81 1397,-120.81"/>
<text text-anchor="middle" x="1460" y="-127.81" font-family="Helvetica,sans-Serif" font-size="10.00">amr_wind::PhysicsMgr</text>
</a>
</g>
</g>
<!-- Node27&#45;&gt;Node12 -->
<g id="edge41" class="edge">
<title>Node27&#45;&gt;Node12</title>
<path fill="none" stroke="#9a32cd" stroke-dasharray="5,2" d="M1519.25,-119.44C1569.53,-113.48 1641.5,-113.54 1690,-150.31 1750.71,-196.34 1760.23,-299.77 1761.72,-331.72"/>
<polygon fill="#9a32cd" stroke="#9a32cd" points="1518.65,-115.99 1509.18,-120.75 1519.55,-122.93 1518.65,-115.99"/>
<text text-anchor="middle" x="1625" y="-153.31" font-family="Helvetica,sans-Serif" font-size="10.00"> m_physics_mgr</text>
</g>
<!-- Node28&#45;&gt;Node27 -->
<g id="edge42" class="edge">
<title>Node28&#45;&gt;Node27</title>
<path fill="none" stroke="midnightblue" d="M1171.32,-93.38C1224.18,-90.57 1296.86,-89.66 1360,-99.31 1386.53,-103.37 1415.71,-113.2 1435.48,-120.72"/>
<polygon fill="midnightblue" stroke="midnightblue" points="1170.81,-89.9 1161.02,-93.96 1171.21,-96.89 1170.81,-89.9"/>
</g>
<!-- Node29&#45;&gt;Node1 -->
<g id="edge44" class="edge">
<title>Node29&#45;&gt;Node1</title>
<path fill="none" stroke="#9a32cd" stroke-dasharray="5,2" d="M2054.35,-614.31C2082.46,-614.31 2114.42,-614.31 2141.65,-614.31"/>
<polygon fill="#9a32cd" stroke="#9a32cd" points="2054.18,-610.81 2044.18,-614.31 2054.18,-617.81 2054.18,-610.81"/>
<text text-anchor="middle" x="2095" y="-617.31" font-family="Helvetica,sans-Serif" font-size="10.00"> m_mphase</text>
</g>
<!-- Node30 -->
<g id="node30" class="node">
<title>Node30</title>
<g id="a_node30"><a xlink:title=" ">
<polygon fill="white" stroke="#bfbfbf" points="1709,-621.31 1709,-651.31 1817,-651.31 1817,-621.31 1709,-621.31"/>
<text text-anchor="start" x="1717" y="-639.31" font-family="Helvetica,sans-Serif" font-size="10.00">Physics::Register&lt;</text>
<text text-anchor="middle" x="1763" y="-628.31" font-family="Helvetica,sans-Serif" font-size="10.00"> MultiPhase &gt;</text>
</a>
</g>
</g>
<!-- Node30&#45;&gt;Node29 -->
<g id="edge45" class="edge">
<title>Node30&#45;&gt;Node29</title>
<path fill="none" stroke="midnightblue" d="M1827.2,-629.89C1856,-626.96 1889.99,-623.51 1918.64,-620.6"/>
<polygon fill="midnightblue" stroke="midnightblue" points="1826.83,-626.41 1817.24,-630.9 1827.54,-633.37 1826.83,-626.41"/>
</g>
</g>
</svg>
        <g id="navigator" transform="translate(0 0)" fill="#404254">
                <rect fill="#f2f5e9" fill-opacity="0.5" stroke="#606060" stroke-width=".5" x="0" y="0" width="60" height="60"/>
                <use id="zoomplus" xlink:href="#zoomPlus" x="17" y="9" onmousedown="handleZoom(evt,'in')"/>
                <use id="zoomminus" xlink:href="#zoomMin" x="42" y="9" onmousedown="handleZoom(evt,'out')"/>
                <use id="reset" xlink:href="#resetDef" x="30" y="36" onmousedown="handleReset()"/>
                <g id="arrowUp" xlink:href="#dirArrow" transform="translate(30 24)" onmousedown="handlePan(0,-1)">
                  <use xlink:href="#rim" fill="#404040">
                        <set attributeName="fill" to="#808080" begin="arrowUp.mouseover" end="arrowUp.mouseout"/>
                  </use>
                  <path fill="none" stroke="white" stroke-width="1.5" d="M0,-3.0v7 M-2.5,-0.5L0,-3.0L2.5,-0.5"/>
                </g>
                <g id="arrowRight" xlink:href="#dirArrow" transform="rotate(90) translate(36 -43)" onmousedown="handlePan(1,0)">
                  <use xlink:href="#rim" fill="#404040">
                        <set attributeName="fill" to="#808080" begin="arrowRight.mouseover" end="arrowRight.mouseout"/>
                  </use>
                  <path fill="none" stroke="white" stroke-width="1.5" d="M0,-3.0v7 M-2.5,-0.5L0,-3.0L2.5,-0.5"/>
                </g>
                <g id="arrowDown" xlink:href="#dirArrow" transform="rotate(180) translate(-30 -48)" onmousedown="handlePan(0,1)">
                  <use xlink:href="#rim" fill="#404040">
                        <set attributeName="fill" to="#808080" begin="arrowDown.mouseover" end="arrowDown.mouseout"/>
                  </use>
                  <path fill="none" stroke="white" stroke-width="1.5" d="M0,-3.0v7 M-2.5,-0.5L0,-3.0L2.5,-0.5"/>
                </g>
                <g id="arrowLeft" xlink:href="#dirArrow" transform="rotate(270) translate(-36 17)" onmousedown="handlePan(-1,0)">
                  <use xlink:href="#rim" fill="#404040">
                        <set attributeName="fill" to="#808080" begin="arrowLeft.mouseover" end="arrowLeft.mouseout"/>
                  </use>
                  <path fill="none" stroke="white" stroke-width="1.5" d="M0,-3.0v7 M-2.5,-0.5L0,-3.0L2.5,-0.5"/>
                </g>
        </g>
        <svg viewBox="0 0 15 15" width="100%" height="30px" preserveAspectRatio="xMaxYMin meet">
         <g id="arrow_out" transform="scale(0.3 0.3)">
          <a xlink:href="classamr__wind_1_1_overset_ops__coll__graph_org.svg" target="_base">
           <rect id="button" ry="5" rx="5" y="6" x="6" height="38" width="38"
                fill="#f2f5e9" fill-opacity="0.5" stroke="#606060" stroke-width="1.0"/>
           <path id="arrow"
             d="M 11.500037,31.436501 C 11.940474,20.09759 22.043105,11.32322 32.158766,21.979434 L 37.068811,17.246167 C 37.068811,17.246167 37.088388,32 37.088388,32 L 22.160133,31.978069 C 22.160133,31.978069 26.997745,27.140456 26.997745,27.140456 C 18.528582,18.264221 13.291696,25.230495 11.500037,31.436501 z"
             style="fill:#404040;"/>
          </a>
         </g>
        </svg>
</svg>
