<?xml version="1.0" encoding="UTF-8" standalone="no"?>
<!DOCTYPE svg PUBLIC "-//W3C//DTD SVG 1.1//EN"
 "http://www.w3.org/Graphics/SVG/1.1/DTD/svg11.dtd">
<!-- Generated by graphviz version 2.43.0 (0)
 -->
<!-- Title: overset_ops_routines.H Pages: 1 -->
<svg width="324pt" height="151pt"
 viewBox="0.00 0.00 324.00 151.00" xmlns="http://www.w3.org/2000/svg" xmlns:xlink="http://www.w3.org/1999/xlink">
<g id="graph0" class="graph" transform="scale(1 1) rotate(0) translate(4 147)">
<title>overset_ops_routines.H</title>
<polygon fill="white" stroke="transparent" points="-4,4 -4,-147 320,-147 320,4 -4,4"/>
<!-- Node1 -->
<g id="node1" class="node">
<title>Node1</title>
<g id="a_node1"><a xlink:title=" ">
<polygon fill="#bfbfbf" stroke="black" points="89,-123.5 89,-142.5 220,-142.5 220,-123.5 89,-123.5"/>
<text text-anchor="middle" x="154.5" y="-130.5" font-family="Helvetica,sans-Serif" font-size="10.00">overset_ops_routines.H</text>
</a>
</g>
</g>
<!-- Node2 -->
<g id="node2" class="node">
<title>Node2</title>
<g id="a_node2"><a xlink:href="volume__fractions_8_h.html" target="_top" xlink:title=" ">
<polygon fill="white" stroke="black" points="161,-56.5 161,-86.5 316,-86.5 316,-56.5 161,-56.5"/>
<text text-anchor="start" x="169" y="-74.5" font-family="Helvetica,sans-Serif" font-size="10.00">amr&#45;wind/equation_systems</text>
<text text-anchor="middle" x="238.5" y="-63.5" font-family="Helvetica,sans-Serif" font-size="10.00">/vof/volume_fractions.H</text>
</a>
</g>
</g>
<!-- Node1&#45;&gt;Node2 -->
<g id="edge1" class="edge">
<title>Node1&#45;&gt;Node2</title>
<path fill="none" stroke="midnightblue" d="M166.54,-123.48C177.91,-115.42 195.41,-103.02 210.3,-92.47"/>
<polygon fill="midnightblue" stroke="midnightblue" points="212.57,-95.16 218.7,-86.52 208.52,-89.45 212.57,-95.16"/>
</g>
<!-- Node5 -->
<g id="node5" class="node">
<title>Node5</title>
<g id="a_node5"><a xlink:href="overset__ops___k_8_h.html" target="_top" xlink:title=" ">
<polygon fill="white" stroke="black" points="0,-56.5 0,-86.5 143,-86.5 143,-56.5 0,-56.5"/>
<text text-anchor="start" x="8" y="-74.5" font-family="Helvetica,sans-Serif" font-size="10.00">amr&#45;wind/overset/overset</text>
<text text-anchor="middle" x="71.5" y="-63.5" font-family="Helvetica,sans-Serif" font-size="10.00">_ops_K.H</text>
</a>
</g>
</g>
<!-- Node1&#45;&gt;Node5 -->
<g id="edge4" class="edge">
<title>Node1&#45;&gt;Node5</title>
<path fill="none" stroke="midnightblue" d="M142.61,-123.48C131.37,-115.42 114.08,-103.02 99.36,-92.47"/>
<polygon fill="midnightblue" stroke="midnightblue" points="101.23,-89.5 91.06,-86.52 97.15,-95.19 101.23,-89.5"/>
</g>
<!-- Node3 -->
<g id="node3" class="node">
<title>Node3</title>
<g id="a_node3"><a xlink:title=" ">
<polygon fill="white" stroke="#bfbfbf" points="47,-0.5 47,-19.5 164,-19.5 164,-0.5 47,-0.5"/>
<text text-anchor="middle" x="105.5" y="-7.5" font-family="Helvetica,sans-Serif" font-size="10.00">AMReX_FArrayBox.H</text>
</a>
</g>
</g>
<!-- Node2&#45;&gt;Node3 -->
<g id="edge2" class="edge">
<title>Node2&#45;&gt;Node3</title>
<path fill="none" stroke="midnightblue" d="M206.98,-56.4C184.86,-46.51 155.53,-33.38 134.09,-23.79"/>
<polygon fill="midnightblue" stroke="midnightblue" points="135.41,-20.55 124.85,-19.66 132.55,-26.94 135.41,-20.55"/>
</g>
<!-- Node4 -->
<g id="node4" class="node">
<title>Node4</title>
<g id="a_node4"><a xlink:title=" ">
<polygon fill="white" stroke="#bfbfbf" points="215,-0.5 215,-19.5 262,-19.5 262,-0.5 215,-0.5"/>
<text text-anchor="middle" x="238.5" y="-7.5" font-family="Helvetica,sans-Serif" font-size="10.00">cmath</text>
</a>
</g>
</g>
<!-- Node2&#45;&gt;Node4 -->
<g id="edge3" class="edge">
<title>Node2&#45;&gt;Node4</title>
<path fill="none" stroke="midnightblue" d="M238.5,-56.4C238.5,-48.47 238.5,-38.46 238.5,-29.86"/>
<polygon fill="midnightblue" stroke="midnightblue" points="242,-29.66 238.5,-19.66 235,-29.66 242,-29.66"/>
</g>
<!-- Node5&#45;&gt;Node3 -->
<g id="edge5" class="edge">
<title>Node5&#45;&gt;Node3</title>
<path fill="none" stroke="midnightblue" d="M79.56,-56.4C84.35,-48.02 90.46,-37.33 95.54,-28.42"/>
<polygon fill="midnightblue" stroke="midnightblue" points="98.63,-30.08 100.55,-19.66 92.55,-26.6 98.63,-30.08"/>
</g>
</g>
</svg>
