<?xml version="1.0" encoding="UTF-8" standalone="no"?>
<!DOCTYPE svg PUBLIC "-//W3C//DTD SVG 1.1//EN"
 "http://www.w3.org/Graphics/SVG/1.1/DTD/svg11.dtd">
<!-- Generated by graphviz version 2.43.0 (0)
 -->
<!-- Title: tensorI.H Pages: 1 -->
<svg width="2656pt" height="364pt"
 viewBox="0.00 0.00 2656.00 364.00" xmlns="http://www.w3.org/2000/svg" xmlns:xlink="http://www.w3.org/1999/xlink">
<g id="graph0" class="graph" transform="scale(1 1) rotate(0) translate(4 360)">
<title>tensorI.H</title>
<polygon fill="white" stroke="transparent" points="-4,4 -4,-360 2652,-360 2652,4 -4,4"/>
<!-- Node1 -->
<g id="node1" class="node">
<title>Node1</title>
<g id="a_node1"><a xlink:title=" ">
<polygon fill="#bfbfbf" stroke="black" points="1644.5,-336.5 1644.5,-355.5 1705.5,-355.5 1705.5,-336.5 1644.5,-336.5"/>
<text text-anchor="middle" x="1675" y="-343.5" font-family="Helvetica,sans-Serif" font-size="10.00">tensorI.H</text>
</a>
</g>
</g>
<!-- Node2 -->
<g id="node2" class="node">
<title>Node2</title>
<g id="a_node2"><a xlink:href="tensor_8_h.html" target="_top" xlink:title=" ">
<polygon fill="white" stroke="black" points="1646.5,-280.5 1646.5,-299.5 1703.5,-299.5 1703.5,-280.5 1646.5,-280.5"/>
<text text-anchor="middle" x="1675" y="-287.5" font-family="Helvetica,sans-Serif" font-size="10.00">tensor.H</text>
</a>
</g>
</g>
<!-- Node1&#45;&gt;Node2 -->
<g id="edge1" class="edge">
<title>Node1&#45;&gt;Node2</title>
<path fill="none" stroke="midnightblue" d="M1668.53,-326.1C1667.9,-317.14 1668.34,-306.86 1669.87,-299.75"/>
<polygon fill="midnightblue" stroke="midnightblue" points="1665.07,-326.62 1669.83,-336.08 1672.01,-325.71 1665.07,-326.62"/>
</g>
<!-- Node2&#45;&gt;Node1 -->
<g id="edge2" class="edge">
<title>Node2&#45;&gt;Node1</title>
<path fill="none" stroke="midnightblue" d="M1681.46,-309.69C1682.11,-318.64 1681.68,-328.93 1680.17,-336.08"/>
<polygon fill="midnightblue" stroke="midnightblue" points="1684.92,-309.2 1680.13,-299.75 1677.98,-310.13 1684.92,-309.2"/>
</g>
<!-- Node3 -->
<g id="node3" class="node">
<title>Node3</title>
<g id="a_node3"><a xlink:href="vector__space_8_h.html" target="_top" xlink:title=" ">
<polygon fill="white" stroke="black" points="1629,-224.5 1629,-243.5 1721,-243.5 1721,-224.5 1629,-224.5"/>
<text text-anchor="middle" x="1675" y="-231.5" font-family="Helvetica,sans-Serif" font-size="10.00">vector_space.H</text>
</a>
</g>
</g>
<!-- Node2&#45;&gt;Node3 -->
<g id="edge3" class="edge">
<title>Node2&#45;&gt;Node3</title>
<path fill="none" stroke="midnightblue" d="M1675,-269.8C1675,-260.91 1675,-250.78 1675,-243.75"/>
<polygon fill="midnightblue" stroke="midnightblue" points="1671.5,-270.08 1675,-280.08 1678.5,-270.08 1671.5,-270.08"/>
</g>
<!-- Node4 -->
<g id="node4" class="node">
<title>Node4</title>
<g id="a_node4"><a xlink:href="_multi_parser_8_h.html" target="_top" xlink:title=" ">
<polygon fill="white" stroke="black" points="497.5,-112.5 497.5,-131.5 578.5,-131.5 578.5,-112.5 497.5,-112.5"/>
<text text-anchor="middle" x="538" y="-119.5" font-family="Helvetica,sans-Serif" font-size="10.00">MultiParser.H</text>
</a>
</g>
</g>
<!-- Node3&#45;&gt;Node4 -->
<g id="edge4" class="edge">
<title>Node3&#45;&gt;Node4</title>
<path fill="none" stroke="midnightblue" d="M1618.43,-232.36C1487.74,-230.32 1154.87,-221.94 879,-188 766.84,-174.2 636.05,-145.75 574.09,-131.51"/>
<polygon fill="midnightblue" stroke="midnightblue" points="1618.55,-235.86 1628.6,-232.51 1618.65,-228.86 1618.55,-235.86"/>
</g>
<!-- Node48 -->
<g id="node14" class="node">
<title>Node48</title>
<g id="a_node14"><a xlink:href="wing__ops_8_h.html" target="_top" xlink:title=" ">
<polygon fill="white" stroke="red" points="1274.5,-0.5 1274.5,-19.5 1347.5,-19.5 1347.5,-0.5 1274.5,-0.5"/>
<text text-anchor="middle" x="1311" y="-7.5" font-family="Helvetica,sans-Serif" font-size="10.00">wing_ops.H</text>
</a>
</g>
</g>
<!-- Node3&#45;&gt;Node48 -->
<g id="edge75" class="edge">
<title>Node3&#45;&gt;Node48</title>
<path fill="none" stroke="midnightblue" d="M1618.53,-231.6C1554.58,-228.49 1448.09,-218.69 1362,-188 1316.55,-171.8 1292.74,-174 1269,-132 1257.57,-111.77 1292.8,-43.92 1306.12,-19.69"/>
<polygon fill="midnightblue" stroke="midnightblue" points="1618.66,-235.11 1628.8,-232.06 1618.97,-228.11 1618.66,-235.11"/>
</g>
<!-- Node55 -->
<g id="node15" class="node">
<title>Node55</title>
<g id="a_node15"><a xlink:href="_bluff_body_8_h.html" target="_top" xlink:title=" ">
<polygon fill="white" stroke="black" points="155.5,-112.5 155.5,-131.5 228.5,-131.5 228.5,-112.5 155.5,-112.5"/>
<text text-anchor="middle" x="192" y="-119.5" font-family="Helvetica,sans-Serif" font-size="10.00">BluffBody.H</text>
</a>
</g>
</g>
<!-- Node3&#45;&gt;Node55 -->
<g id="edge19" class="edge">
<title>Node3&#45;&gt;Node55</title>
<path fill="none" stroke="midnightblue" d="M1618.72,-233.02C1374.86,-232.84 415.85,-229.49 288,-188 251.82,-176.26 216.73,-146.42 200.85,-131.61"/>
<polygon fill="midnightblue" stroke="midnightblue" points="1618.78,-236.52 1628.79,-233.02 1618.79,-229.52 1618.78,-236.52"/>
</g>
<!-- Node59 -->
<g id="node19" class="node">
<title>Node59</title>
<g id="a_node19"><a xlink:href="_i_b_types_8_h.html" target="_top" xlink:title=" ">
<polygon fill="white" stroke="black" points="297.5,-168.5 297.5,-187.5 362.5,-187.5 362.5,-168.5 297.5,-168.5"/>
<text text-anchor="middle" x="330" y="-175.5" font-family="Helvetica,sans-Serif" font-size="10.00">IBTypes.H</text>
</a>
</g>
</g>
<!-- Node3&#45;&gt;Node59 -->
<g id="edge24" class="edge">
<title>Node3&#45;&gt;Node59</title>
<path fill="none" stroke="midnightblue" d="M1618.63,-230.74C1390.61,-221.58 540.24,-187.44 362.64,-180.31"/>
<polygon fill="midnightblue" stroke="midnightblue" points="1618.57,-234.24 1628.7,-231.14 1618.85,-227.24 1618.57,-234.24"/>
</g>
<!-- Node61 -->
<g id="node21" class="node">
<title>Node61</title>
<g id="a_node21"><a xlink:href="_ocean_waves_types_8_h.html" target="_top" xlink:title=" ">
<polygon fill="white" stroke="black" points="888,-168.5 888,-187.5 1006,-187.5 1006,-168.5 888,-168.5"/>
<text text-anchor="middle" x="947" y="-175.5" font-family="Helvetica,sans-Serif" font-size="10.00">OceanWavesTypes.H</text>
</a>
</g>
</g>
<!-- Node3&#45;&gt;Node61 -->
<g id="edge31" class="edge">
<title>Node3&#45;&gt;Node61</title>
<path fill="none" stroke="midnightblue" d="M1618.8,-228.83C1484.05,-218.84 1143.56,-193.58 1006,-183.38"/>
<polygon fill="midnightblue" stroke="midnightblue" points="1618.68,-232.33 1628.91,-229.58 1619.19,-225.35 1618.68,-232.33"/>
</g>
<!-- Node63 -->
<g id="node23" class="node">
<title>Node63</title>
<g id="a_node23"><a xlink:href="_relaxation_zones_8_h.html" target="_top" xlink:title=" ">
<polygon fill="white" stroke="black" points="1019,-112.5 1019,-131.5 1129,-131.5 1129,-112.5 1019,-112.5"/>
<text text-anchor="middle" x="1074" y="-119.5" font-family="Helvetica,sans-Serif" font-size="10.00">RelaxationZones.H</text>
</a>
</g>
</g>
<!-- Node3&#45;&gt;Node63 -->
<g id="edge42" class="edge">
<title>Node3&#45;&gt;Node63</title>
<path fill="none" stroke="midnightblue" d="M1618.64,-232.23C1534.26,-229.95 1370.6,-221.2 1236,-188 1180.98,-174.43 1119.9,-146 1090.97,-131.66"/>
<polygon fill="midnightblue" stroke="midnightblue" points="1618.69,-235.73 1628.78,-232.48 1618.87,-228.73 1618.69,-235.73"/>
</g>
<!-- Node67 -->
<g id="node27" class="node">
<title>Node67</title>
<g id="a_node27"><a xlink:href="_synthetic_turbulence_8_h.html" target="_top" xlink:title=" ">
<polygon fill="white" stroke="black" points="1444.5,-168.5 1444.5,-187.5 1569.5,-187.5 1569.5,-168.5 1444.5,-168.5"/>
<text text-anchor="middle" x="1507" y="-175.5" font-family="Helvetica,sans-Serif" font-size="10.00">SyntheticTurbulence.H</text>
</a>
</g>
</g>
<!-- Node3&#45;&gt;Node67 -->
<g id="edge43" class="edge">
<title>Node3&#45;&gt;Node67</title>
<path fill="none" stroke="midnightblue" d="M1638.61,-221.3C1606.96,-211.13 1561.83,-196.62 1533.5,-187.52"/>
<polygon fill="midnightblue" stroke="midnightblue" points="1637.79,-224.72 1648.38,-224.44 1639.93,-218.05 1637.79,-224.72"/>
</g>
<!-- Node69 -->
<g id="node29" class="node">
<title>Node69</title>
<g id="a_node29"><a xlink:href="_d_t_u_spinner_sampler_8_h.html" target="_top" xlink:title=" ">
<polygon fill="white" stroke="black" points="1706.5,-112.5 1706.5,-131.5 1831.5,-131.5 1831.5,-112.5 1706.5,-112.5"/>
<text text-anchor="middle" x="1769" y="-119.5" font-family="Helvetica,sans-Serif" font-size="10.00">DTUSpinnerSampler.H</text>
</a>
</g>
</g>
<!-- Node3&#45;&gt;Node69 -->
<g id="edge45" class="edge">
<title>Node3&#45;&gt;Node69</title>
<path fill="none" stroke="midnightblue" d="M1689.03,-216.59C1709.29,-192.87 1746.04,-149.87 1761.66,-131.59"/>
<polygon fill="midnightblue" stroke="midnightblue" points="1686.21,-214.49 1682.38,-224.37 1691.53,-219.04 1686.21,-214.49"/>
</g>
<!-- Node71 -->
<g id="node31" class="node">
<title>Node71</title>
<g id="a_node31"><a xlink:href="_lidar_sampler_8_h.html" target="_top" xlink:title=" ">
<polygon fill="white" stroke="black" points="1592.5,-168.5 1592.5,-187.5 1683.5,-187.5 1683.5,-168.5 1592.5,-168.5"/>
<text text-anchor="middle" x="1638" y="-175.5" font-family="Helvetica,sans-Serif" font-size="10.00">LidarSampler.H</text>
</a>
</g>
</g>
<!-- Node3&#45;&gt;Node71 -->
<g id="edge47" class="edge">
<title>Node3&#45;&gt;Node71</title>
<path fill="none" stroke="midnightblue" d="M1663.05,-215.57C1656.69,-206.27 1649.13,-195.25 1644,-187.75"/>
<polygon fill="midnightblue" stroke="midnightblue" points="1660.35,-217.81 1668.89,-224.08 1666.13,-213.86 1660.35,-217.81"/>
</g>
<!-- Node73 -->
<g id="node33" class="node">
<title>Node73</title>
<g id="a_node33"><a xlink:href="_radar_sampler_8_h.html" target="_top" xlink:title=" ">
<polygon fill="white" stroke="black" points="1972.5,-112.5 1972.5,-131.5 2067.5,-131.5 2067.5,-112.5 1972.5,-112.5"/>
<text text-anchor="middle" x="2020" y="-119.5" font-family="Helvetica,sans-Serif" font-size="10.00">RadarSampler.H</text>
</a>
</g>
</g>
<!-- Node3&#45;&gt;Node73 -->
<g id="edge50" class="edge">
<title>Node3&#45;&gt;Node73</title>
<path fill="none" stroke="midnightblue" d="M1726.91,-222.21C1760.81,-214.42 1805.73,-202.71 1844,-188 1862.18,-181.01 1865.02,-175.51 1883,-168 1918.81,-153.05 1961.48,-139.7 1989.57,-131.5"/>
<polygon fill="midnightblue" stroke="midnightblue" points="1725.75,-218.88 1716.76,-224.5 1727.29,-225.71 1725.75,-218.88"/>
</g>
<!-- Node75 -->
<g id="node35" class="node">
<title>Node75</title>
<g id="a_node35"><a xlink:href="_sampling_utils_8_h.html" target="_top" xlink:title=" ">
<polygon fill="white" stroke="black" points="1740.5,-168.5 1740.5,-187.5 1835.5,-187.5 1835.5,-168.5 1740.5,-168.5"/>
<text text-anchor="middle" x="1788" y="-175.5" font-family="Helvetica,sans-Serif" font-size="10.00">SamplingUtils.H</text>
</a>
</g>
</g>
<!-- Node3&#45;&gt;Node75 -->
<g id="edge52" class="edge">
<title>Node3&#45;&gt;Node75</title>
<path fill="none" stroke="midnightblue" d="M1702,-220.1C1723.11,-210.01 1751.86,-196.27 1770.18,-187.52"/>
<polygon fill="midnightblue" stroke="midnightblue" points="1700.42,-216.97 1692.91,-224.44 1703.44,-223.29 1700.42,-216.97"/>
</g>
<!-- Node77 -->
<g id="node37" class="node">
<title>Node77</title>
<g id="a_node37"><a xlink:href="_box_refiner_8_h.html" target="_top" xlink:title=" ">
<polygon fill="white" stroke="black" points="1892,-168.5 1892,-187.5 1972,-187.5 1972,-168.5 1892,-168.5"/>
<text text-anchor="middle" x="1932" y="-175.5" font-family="Helvetica,sans-Serif" font-size="10.00">BoxRefiner.H</text>
</a>
</g>
</g>
<!-- Node3&#45;&gt;Node77 -->
<g id="edge56" class="edge">
<title>Node3&#45;&gt;Node77</title>
<path fill="none" stroke="midnightblue" d="M1725.74,-222.34C1774.46,-212.1 1847.08,-196.84 1891.89,-187.43"/>
<polygon fill="midnightblue" stroke="midnightblue" points="1724.79,-218.96 1715.72,-224.44 1726.23,-225.81 1724.79,-218.96"/>
</g>
<!-- Node79 -->
<g id="node39" class="node">
<title>Node79</title>
<g id="a_node39"><a xlink:href="_cylinder_refiner_8_h.html" target="_top" xlink:title=" ">
<polygon fill="white" stroke="black" points="1990.5,-168.5 1990.5,-187.5 2091.5,-187.5 2091.5,-168.5 1990.5,-168.5"/>
<text text-anchor="middle" x="2041" y="-175.5" font-family="Helvetica,sans-Serif" font-size="10.00">CylinderRefiner.H</text>
</a>
</g>
</g>
<!-- Node3&#45;&gt;Node79 -->
<g id="edge58" class="edge">
<title>Node3&#45;&gt;Node79</title>
<path fill="none" stroke="midnightblue" d="M1731.39,-224.76C1792.8,-215.77 1893.89,-200.94 1981,-188 1984.02,-187.55 1987.13,-187.09 1990.26,-186.62"/>
<polygon fill="midnightblue" stroke="midnightblue" points="1730.53,-221.35 1721.14,-226.26 1731.55,-228.27 1730.53,-221.35"/>
</g>
<!-- Node81 -->
<g id="node41" class="node">
<title>Node81</title>
<g id="a_node41"><a xlink:href="_a_b_l_modulated_power_law_8_h.html" target="_top" xlink:title=" ">
<polygon fill="white" stroke="black" points="2110,-168.5 2110,-187.5 2256,-187.5 2256,-168.5 2110,-168.5"/>
<text text-anchor="middle" x="2183" y="-175.5" font-family="Helvetica,sans-Serif" font-size="10.00">ABLModulatedPowerLaw.H</text>
</a>
</g>
</g>
<!-- Node3&#45;&gt;Node81 -->
<g id="edge60" class="edge">
<title>Node3&#45;&gt;Node81</title>
<path fill="none" stroke="midnightblue" d="M1731.25,-227.09C1812.62,-218.53 1967.88,-202.16 2100,-188 2103.17,-187.66 2106.41,-187.31 2109.68,-186.96"/>
<polygon fill="midnightblue" stroke="midnightblue" points="1730.81,-223.62 1721.23,-228.14 1731.54,-230.58 1730.81,-223.62"/>
</g>
<!-- Node102 -->
<g id="node45" class="node">
<title>Node102</title>
<g id="a_node45"><a xlink:href="actuator__types_8_h.html" target="_top" xlink:title=" ">
<polygon fill="white" stroke="red" points="1278,-112.5 1278,-131.5 1378,-131.5 1378,-112.5 1278,-112.5"/>
<text text-anchor="middle" x="1328" y="-119.5" font-family="Helvetica,sans-Serif" font-size="10.00">actuator_types.H</text>
</a>
</g>
</g>
<!-- Node3&#45;&gt;Node102 -->
<g id="edge65" class="edge">
<title>Node3&#45;&gt;Node102</title>
<path fill="none" stroke="midnightblue" d="M1618.85,-228.25C1547.96,-221.55 1430.58,-207.86 1392,-188 1365.81,-174.52 1343.89,-146.31 1333.86,-131.9"/>
<polygon fill="midnightblue" stroke="midnightblue" points="1618.68,-231.75 1628.96,-229.19 1619.33,-224.78 1618.68,-231.75"/>
</g>
<!-- Node116 -->
<g id="node46" class="node">
<title>Node116</title>
<g id="a_node46"><a xlink:href="_actuator_wing_8_h.html" target="_top" xlink:title=" ">
<polygon fill="white" stroke="red" points="1358.5,-56.5 1358.5,-75.5 1451.5,-75.5 1451.5,-56.5 1358.5,-56.5"/>
<text text-anchor="middle" x="1405" y="-63.5" font-family="Helvetica,sans-Serif" font-size="10.00">ActuatorWing.H</text>
</a>
</g>
</g>
<!-- Node3&#45;&gt;Node116 -->
<g id="edge74" class="edge">
<title>Node3&#45;&gt;Node116</title>
<path fill="none" stroke="midnightblue" d="M1618.75,-229.38C1556.32,-224.2 1460.92,-212.46 1435,-188 1402.58,-157.4 1402.91,-97.7 1404.28,-75.54"/>
<polygon fill="midnightblue" stroke="midnightblue" points="1618.61,-232.88 1628.86,-230.19 1619.17,-225.9 1618.61,-232.88"/>
</g>
<!-- Node117 -->
<g id="node47" class="node">
<title>Node117</title>
<g id="a_node47"><a xlink:href="actuator__utils_8_h.html" target="_top" xlink:title=" ">
<polygon fill="white" stroke="red" points="2274,-168.5 2274,-187.5 2368,-187.5 2368,-168.5 2274,-168.5"/>
<text text-anchor="middle" x="2321" y="-175.5" font-family="Helvetica,sans-Serif" font-size="10.00">actuator_utils.H</text>
</a>
</g>
</g>
<!-- Node3&#45;&gt;Node117 -->
<g id="edge69" class="edge">
<title>Node3&#45;&gt;Node117</title>
<path fill="none" stroke="midnightblue" d="M1731.09,-230.28C1836.12,-224.84 2069.52,-211.12 2265,-188 2267.93,-187.65 2270.95,-187.26 2273.99,-186.85"/>
<polygon fill="midnightblue" stroke="midnightblue" points="1730.83,-226.79 1721.03,-230.8 1731.19,-233.78 1730.83,-226.79"/>
</g>
<!-- Node119 -->
<g id="node48" class="node">
<title>Node119</title>
<g id="a_node48"><a xlink:href="_actuator_container_8_h.html" target="_top" xlink:title=" ">
<polygon fill="white" stroke="red" points="2386.5,-168.5 2386.5,-187.5 2501.5,-187.5 2501.5,-168.5 2386.5,-168.5"/>
<text text-anchor="middle" x="2444" y="-175.5" font-family="Helvetica,sans-Serif" font-size="10.00">ActuatorContainer.H</text>
</a>
</g>
</g>
<!-- Node3&#45;&gt;Node119 -->
<g id="edge70" class="edge">
<title>Node3&#45;&gt;Node119</title>
<path fill="none" stroke="midnightblue" d="M1731.43,-230.72C1850.78,-225.59 2137.52,-211.73 2377,-188 2380.04,-187.7 2383.15,-187.37 2386.29,-187.01"/>
<polygon fill="midnightblue" stroke="midnightblue" points="1730.93,-227.23 1721.09,-231.16 1731.23,-234.23 1730.93,-227.23"/>
</g>
<!-- Node110 -->
<g id="node49" class="node">
<title>Node110</title>
<g id="a_node49"><a xlink:href="_actuator_disk_8_h.html" target="_top" xlink:title=" ">
<polygon fill="white" stroke="red" points="2558,-168.5 2558,-187.5 2648,-187.5 2648,-168.5 2558,-168.5"/>
<text text-anchor="middle" x="2603" y="-175.5" font-family="Helvetica,sans-Serif" font-size="10.00">ActuatorDisk.H</text>
</a>
</g>
</g>
<!-- Node3&#45;&gt;Node110 -->
<g id="edge71" class="edge">
<title>Node3&#45;&gt;Node110</title>
<path fill="none" stroke="midnightblue" d="M1731.66,-232.02C1870.5,-229.19 2238.6,-219.12 2544,-188 2548.54,-187.54 2553.25,-186.97 2557.96,-186.34"/>
<polygon fill="midnightblue" stroke="midnightblue" points="1731.21,-228.53 1721.29,-232.23 1731.35,-235.53 1731.21,-228.53"/>
</g>
<!-- Node111 -->
<g id="node50" class="node">
<title>Node111</title>
<g id="a_node50"><a xlink:href="_joukowsky_8_h.html" target="_top" xlink:title=" ">
<polygon fill="white" stroke="red" points="2543.5,-112.5 2543.5,-131.5 2620.5,-131.5 2620.5,-112.5 2543.5,-112.5"/>
<text text-anchor="middle" x="2582" y="-119.5" font-family="Helvetica,sans-Serif" font-size="10.00">Joukowsky.H</text>
</a>
</g>
</g>
<!-- Node3&#45;&gt;Node111 -->
<g id="edge73" class="edge">
<title>Node3&#45;&gt;Node111</title>
<path fill="none" stroke="midnightblue" d="M1731.1,-232.14C1906.71,-229.15 2438.54,-217.72 2510,-188 2539.23,-175.84 2564.36,-146.49 2575.65,-131.75"/>
<polygon fill="midnightblue" stroke="midnightblue" points="1730.97,-228.64 1721.03,-232.31 1731.09,-235.64 1730.97,-228.64"/>
</g>
<!-- Node5 -->
<g id="node5" class="node">
<title>Node5</title>
<g id="a_node5"><a xlink:href="bluff__body__ops_8cpp.html" target="_top" xlink:title=" ">
<polygon fill="white" stroke="black" points="277,-0.5 277,-19.5 387,-19.5 387,-0.5 277,-0.5"/>
<text text-anchor="middle" x="332" y="-7.5" font-family="Helvetica,sans-Serif" font-size="10.00">bluff_body_ops.cpp</text>
</a>
</g>
</g>
<!-- Node4&#45;&gt;Node5 -->
<g id="edge5" class="edge">
<title>Node4&#45;&gt;Node5</title>
<path fill="none" stroke="midnightblue" d="M514.51,-107.22C491.42,-93.79 455.07,-72.97 423,-56 397.92,-42.72 368.39,-28.35 349.93,-19.51"/>
<polygon fill="midnightblue" stroke="midnightblue" points="512.86,-110.31 523.26,-112.32 516.38,-104.26 512.86,-110.31"/>
</g>
<!-- Node6 -->
<g id="node6" class="node">
<title>Node6</title>
<g id="a_node6"><a xlink:href="bluff__body__ops_8_h.html" target="_top" xlink:title=" ">
<polygon fill="white" stroke="red" points="228.5,-56.5 228.5,-75.5 329.5,-75.5 329.5,-56.5 228.5,-56.5"/>
<text text-anchor="middle" x="279" y="-63.5" font-family="Helvetica,sans-Serif" font-size="10.00">bluff_body_ops.H</text>
</a>
</g>
</g>
<!-- Node4&#45;&gt;Node6 -->
<g id="edge6" class="edge">
<title>Node4&#45;&gt;Node6</title>
<path fill="none" stroke="midnightblue" d="M487.19,-110.41C438.28,-100.21 365.24,-84.98 319.94,-75.54"/>
<polygon fill="midnightblue" stroke="midnightblue" points="486.74,-113.89 497.25,-112.5 488.17,-107.04 486.74,-113.89"/>
</g>
<!-- Node13 -->
<g id="node7" class="node">
<title>Node13</title>
<g id="a_node7"><a xlink:href="_i_b_8cpp.html" target="_top" xlink:title=" ">
<polygon fill="white" stroke="black" points="407.5,-0.5 407.5,-19.5 454.5,-19.5 454.5,-0.5 407.5,-0.5"/>
<text text-anchor="middle" x="431" y="-7.5" font-family="Helvetica,sans-Serif" font-size="10.00">IB.cpp</text>
</a>
</g>
</g>
<!-- Node4&#45;&gt;Node13 -->
<g id="edge8" class="edge">
<title>Node4&#45;&gt;Node13</title>
<path fill="none" stroke="midnightblue" d="M522.34,-104.9C499.33,-81.25 457.21,-37.95 439.36,-19.59"/>
<polygon fill="midnightblue" stroke="midnightblue" points="520.12,-107.64 529.6,-112.37 525.14,-102.76 520.12,-107.64"/>
</g>
<!-- Node14 -->
<g id="node8" class="node">
<title>Node14</title>
<g id="a_node8"><a xlink:href="_i_b_model_8_h.html" target="_top" xlink:title=" ">
<polygon fill="white" stroke="red" points="347.5,-56.5 347.5,-75.5 414.5,-75.5 414.5,-56.5 347.5,-56.5"/>
<text text-anchor="middle" x="381" y="-63.5" font-family="Helvetica,sans-Serif" font-size="10.00">IBModel.H</text>
</a>
</g>
</g>
<!-- Node4&#45;&gt;Node14 -->
<g id="edge9" class="edge">
<title>Node4&#45;&gt;Node14</title>
<path fill="none" stroke="midnightblue" d="M503.61,-109.17C474.05,-99 432.13,-84.59 405.76,-75.52"/>
<polygon fill="midnightblue" stroke="midnightblue" points="502.53,-112.5 513.12,-112.44 504.8,-105.88 502.53,-112.5"/>
</g>
<!-- Node15 -->
<g id="node9" class="node">
<title>Node15</title>
<g id="a_node9"><a xlink:href="_ocean_waves_8cpp.html" target="_top" xlink:title=" ">
<polygon fill="white" stroke="black" points="579,-0.5 579,-19.5 679,-19.5 679,-0.5 579,-0.5"/>
<text text-anchor="middle" x="629" y="-7.5" font-family="Helvetica,sans-Serif" font-size="10.00">OceanWaves.cpp</text>
</a>
</g>
</g>
<!-- Node4&#45;&gt;Node15 -->
<g id="edge11" class="edge">
<title>Node4&#45;&gt;Node15</title>
<path fill="none" stroke="midnightblue" d="M534.83,-101.85C533.58,-88 534.14,-69.44 543,-56 555.15,-37.57 577.38,-26.22 596.2,-19.53"/>
<polygon fill="midnightblue" stroke="midnightblue" points="531.41,-102.69 536.17,-112.16 538.36,-101.79 531.41,-102.69"/>
</g>
<!-- Node16 -->
<g id="node10" class="node">
<title>Node16</title>
<g id="a_node10"><a xlink:href="_ocean_waves_model_8_h.html" target="_top" xlink:title=" ">
<polygon fill="white" stroke="red" points="675,-56.5 675,-75.5 795,-75.5 795,-56.5 675,-56.5"/>
<text text-anchor="middle" x="735" y="-63.5" font-family="Helvetica,sans-Serif" font-size="10.00">OceanWavesModel.H</text>
</a>
</g>
</g>
<!-- Node4&#45;&gt;Node16 -->
<g id="edge12" class="edge">
<title>Node4&#45;&gt;Node16</title>
<path fill="none" stroke="midnightblue" d="M579.23,-109.7C616.41,-99.51 670.27,-84.74 703.93,-75.52"/>
<polygon fill="midnightblue" stroke="midnightblue" points="577.93,-106.42 569.22,-112.44 579.78,-113.18 577.93,-106.42"/>
</g>
<!-- Node20 -->
<g id="node11" class="node">
<title>Node20</title>
<g id="a_node11"><a xlink:href="relaxation__zones__ops_8cpp.html" target="_top" xlink:title=" ">
<polygon fill="white" stroke="black" points="806.5,-0.5 806.5,-19.5 949.5,-19.5 949.5,-0.5 806.5,-0.5"/>
<text text-anchor="middle" x="878" y="-7.5" font-family="Helvetica,sans-Serif" font-size="10.00">relaxation_zones_ops.cpp</text>
</a>
</g>
</g>
<!-- Node4&#45;&gt;Node20 -->
<g id="edge14" class="edge">
<title>Node4&#45;&gt;Node20</title>
<path fill="none" stroke="midnightblue" d="M543.83,-102.35C549.55,-87.33 559.8,-66.96 576,-56 612.55,-31.27 729.31,-19.67 806.47,-14.59"/>
<polygon fill="midnightblue" stroke="midnightblue" points="540.41,-101.54 540.45,-112.13 547.03,-103.83 540.41,-101.54"/>
</g>
<!-- Node21 -->
<g id="node12" class="node">
<title>Node21</title>
<g id="a_node12"><a xlink:href="relaxation__zones__ops_8_h.html" target="_top" xlink:title=" ">
<polygon fill="white" stroke="red" points="813.5,-56.5 813.5,-75.5 946.5,-75.5 946.5,-56.5 813.5,-56.5"/>
<text text-anchor="middle" x="880" y="-63.5" font-family="Helvetica,sans-Serif" font-size="10.00">relaxation_zones_ops.H</text>
</a>
</g>
</g>
<!-- Node4&#45;&gt;Node21 -->
<g id="edge15" class="edge">
<title>Node4&#45;&gt;Node21</title>
<path fill="none" stroke="midnightblue" d="M588.76,-112.98C652.37,-102.94 760.9,-85.81 825.99,-75.53"/>
<polygon fill="midnightblue" stroke="midnightblue" points="587.91,-109.58 578.57,-114.59 589,-116.49 587.91,-109.58"/>
</g>
<!-- Node25 -->
<g id="node13" class="node">
<title>Node25</title>
<g id="a_node13"><a xlink:href="_act_parser_8_h.html" target="_top" xlink:title=" ">
<polygon fill="white" stroke="red" points="585,-56.5 585,-75.5 657,-75.5 657,-56.5 585,-56.5"/>
<text text-anchor="middle" x="621" y="-63.5" font-family="Helvetica,sans-Serif" font-size="10.00">ActParser.H</text>
</a>
</g>
</g>
<!-- Node4&#45;&gt;Node25 -->
<g id="edge17" class="edge">
<title>Node4&#45;&gt;Node25</title>
<path fill="none" stroke="midnightblue" d="M560.1,-106.62C575.26,-96.76 594.88,-83.99 607.7,-75.65"/>
<polygon fill="midnightblue" stroke="midnightblue" points="557.81,-103.94 551.34,-112.32 561.63,-109.8 557.81,-103.94"/>
</g>
<!-- Node6&#45;&gt;Node5 -->
<g id="edge7" class="edge">
<title>Node6&#45;&gt;Node5</title>
<path fill="none" stroke="midnightblue" d="M294.98,-48.72C304.32,-39.2 315.75,-27.56 323.41,-19.75"/>
<polygon fill="midnightblue" stroke="midnightblue" points="292.26,-46.49 287.75,-56.08 297.25,-51.4 292.26,-46.49"/>
</g>
<!-- Node14&#45;&gt;Node13 -->
<g id="edge10" class="edge">
<title>Node14&#45;&gt;Node13</title>
<path fill="none" stroke="midnightblue" d="M396.08,-48.72C404.89,-39.2 415.67,-27.56 422.9,-19.75"/>
<polygon fill="midnightblue" stroke="midnightblue" points="393.48,-46.37 389.26,-56.08 398.62,-51.12 393.48,-46.37"/>
</g>
<!-- Node16&#45;&gt;Node15 -->
<g id="edge13" class="edge">
<title>Node16&#45;&gt;Node15</title>
<path fill="none" stroke="midnightblue" d="M708.94,-51.73C689.32,-41.73 662.97,-28.31 645.99,-19.65"/>
<polygon fill="midnightblue" stroke="midnightblue" points="707.47,-54.9 717.97,-56.32 710.65,-48.67 707.47,-54.9"/>
</g>
<!-- Node21&#45;&gt;Node20 -->
<g id="edge16" class="edge">
<title>Node21&#45;&gt;Node20</title>
<path fill="none" stroke="midnightblue" d="M879.29,-45.8C878.96,-36.91 878.58,-26.78 878.32,-19.75"/>
<polygon fill="midnightblue" stroke="midnightblue" points="875.8,-46.22 879.67,-56.08 882.8,-45.96 875.8,-46.22"/>
</g>
<!-- Node25&#45;&gt;Node48 -->
<g id="edge18" class="edge">
<title>Node25&#45;&gt;Node48</title>
<path fill="none" stroke="midnightblue" d="M667.46,-55.97C904.17,-24.78 1177.27,-14.7 1274.47,-11.91"/>
<polygon fill="midnightblue" stroke="midnightblue" points="666.73,-52.54 657.28,-57.33 667.66,-59.48 666.73,-52.54"/>
</g>
<!-- Node55&#45;&gt;Node6 -->
<g id="edge20" class="edge">
<title>Node55&#45;&gt;Node6</title>
<path fill="none" stroke="midnightblue" d="M214.72,-106.9C230.67,-97 251.5,-84.07 265.06,-75.65"/>
<polygon fill="midnightblue" stroke="midnightblue" points="212.63,-104.08 205.98,-112.32 216.32,-110.02 212.63,-104.08"/>
</g>
<!-- Node56 -->
<g id="node16" class="node">
<title>Node56</title>
<g id="a_node16"><a xlink:href="_box_8_h.html" target="_top" xlink:title=" ">
<polygon fill="white" stroke="red" points="0,-56.5 0,-75.5 46,-75.5 46,-56.5 0,-56.5"/>
<text text-anchor="middle" x="23" y="-63.5" font-family="Helvetica,sans-Serif" font-size="10.00">Box.H</text>
</a>
</g>
</g>
<!-- Node55&#45;&gt;Node56 -->
<g id="edge21" class="edge">
<title>Node55&#45;&gt;Node56</title>
<path fill="none" stroke="midnightblue" d="M155.43,-109.32C122.24,-98.71 74.3,-83.39 46.12,-74.39"/>
<polygon fill="midnightblue" stroke="midnightblue" points="154.63,-112.73 165.22,-112.44 156.76,-106.07 154.63,-112.73"/>
</g>
<!-- Node57 -->
<g id="node17" class="node">
<title>Node57</title>
<g id="a_node17"><a xlink:href="_cylinder_8_h.html" target="_top" xlink:title=" ">
<polygon fill="white" stroke="red" points="64.5,-56.5 64.5,-75.5 131.5,-75.5 131.5,-56.5 64.5,-56.5"/>
<text text-anchor="middle" x="98" y="-63.5" font-family="Helvetica,sans-Serif" font-size="10.00">Cylinder.H</text>
</a>
</g>
</g>
<!-- Node55&#45;&gt;Node57 -->
<g id="edge22" class="edge">
<title>Node55&#45;&gt;Node57</title>
<path fill="none" stroke="midnightblue" d="M167.94,-107.18C150.64,-97.24 127.85,-84.15 113.07,-75.65"/>
<polygon fill="midnightblue" stroke="midnightblue" points="166.48,-110.38 176.9,-112.32 169.97,-104.31 166.48,-110.38"/>
</g>
<!-- Node58 -->
<g id="node18" class="node">
<title>Node58</title>
<g id="a_node18"><a xlink:href="_sphere_8_h.html" target="_top" xlink:title=" ">
<polygon fill="white" stroke="red" points="149.5,-56.5 149.5,-75.5 210.5,-75.5 210.5,-56.5 149.5,-56.5"/>
<text text-anchor="middle" x="180" y="-63.5" font-family="Helvetica,sans-Serif" font-size="10.00">Sphere.H</text>
</a>
</g>
</g>
<!-- Node55&#45;&gt;Node58 -->
<g id="edge23" class="edge">
<title>Node55&#45;&gt;Node58</title>
<path fill="none" stroke="midnightblue" d="M187.8,-102.1C185.81,-93.14 183.52,-82.86 181.94,-75.75"/>
<polygon fill="midnightblue" stroke="midnightblue" points="184.43,-103.08 190.02,-112.08 191.27,-101.56 184.43,-103.08"/>
</g>
<!-- Node59&#45;&gt;Node6 -->
<g id="edge25" class="edge">
<title>Node59&#45;&gt;Node6</title>
<path fill="none" stroke="midnightblue" d="M313.67,-161.03C306.32,-152.97 298.15,-142.65 293,-132 283.96,-113.29 280.71,-88.76 279.58,-75.84"/>
<polygon fill="midnightblue" stroke="midnightblue" points="311.17,-163.47 320.62,-168.27 316.22,-158.63 311.17,-163.47"/>
</g>
<!-- Node59&#45;&gt;Node14 -->
<g id="edge27" class="edge">
<title>Node59&#45;&gt;Node14</title>
<path fill="none" stroke="midnightblue" d="M346.33,-161.03C353.68,-152.97 361.85,-142.65 367,-132 376.04,-113.29 379.29,-88.76 380.42,-75.84"/>
<polygon fill="midnightblue" stroke="midnightblue" points="343.78,-158.63 339.38,-168.27 348.83,-163.47 343.78,-158.63"/>
</g>
<!-- Node59&#45;&gt;Node55 -->
<g id="edge26" class="edge">
<title>Node59&#45;&gt;Node55</title>
<path fill="none" stroke="midnightblue" d="M298.75,-164.77C272.83,-154.63 236.64,-140.47 213.76,-131.52"/>
<polygon fill="midnightblue" stroke="midnightblue" points="297.55,-168.06 308.13,-168.44 300.1,-161.54 297.55,-168.06"/>
</g>
<!-- Node60 -->
<g id="node20" class="node">
<title>Node60</title>
<g id="a_node20"><a xlink:href="_i_b_ops_8_h.html" target="_top" xlink:title=" ">
<polygon fill="white" stroke="red" points="302,-112.5 302,-131.5 358,-131.5 358,-112.5 302,-112.5"/>
<text text-anchor="middle" x="330" y="-119.5" font-family="Helvetica,sans-Serif" font-size="10.00">IBOps.H</text>
</a>
</g>
</g>
<!-- Node59&#45;&gt;Node60 -->
<g id="edge28" class="edge">
<title>Node59&#45;&gt;Node60</title>
<path fill="none" stroke="midnightblue" d="M330,-157.8C330,-148.91 330,-138.78 330,-131.75"/>
<polygon fill="midnightblue" stroke="midnightblue" points="326.5,-158.08 330,-168.08 333.5,-158.08 326.5,-158.08"/>
</g>
<!-- Node60&#45;&gt;Node6 -->
<g id="edge29" class="edge">
<title>Node60&#45;&gt;Node6</title>
<path fill="none" stroke="midnightblue" d="M314.62,-104.72C305.63,-95.2 294.64,-83.56 287.26,-75.75"/>
<polygon fill="midnightblue" stroke="midnightblue" points="312.17,-107.22 321.58,-112.08 317.26,-102.41 312.17,-107.22"/>
</g>
<!-- Node60&#45;&gt;Node14 -->
<g id="edge30" class="edge">
<title>Node60&#45;&gt;Node14</title>
<path fill="none" stroke="midnightblue" d="M345.38,-104.72C354.37,-95.2 365.36,-83.56 372.74,-75.75"/>
<polygon fill="midnightblue" stroke="midnightblue" points="342.74,-102.41 338.42,-112.08 347.83,-107.22 342.74,-102.41"/>
</g>
<!-- Node61&#45;&gt;Node16 -->
<g id="edge32" class="edge">
<title>Node61&#45;&gt;Node16</title>
<path fill="none" stroke="midnightblue" d="M889.13,-166.18C860.88,-159.23 827.22,-148.36 800,-132 774.83,-116.87 752.26,-89.91 741.56,-75.94"/>
<polygon fill="midnightblue" stroke="midnightblue" points="888.34,-169.59 898.87,-168.48 889.95,-162.78 888.34,-169.59"/>
</g>
<!-- Node61&#45;&gt;Node21 -->
<g id="edge36" class="edge">
<title>Node61&#45;&gt;Node21</title>
<path fill="none" stroke="midnightblue" d="M943.88,-158.35C941.01,-144.76 935.82,-126.29 927,-112 917.87,-97.19 902.71,-83.92 892.09,-75.69"/>
<polygon fill="midnightblue" stroke="midnightblue" points="940.49,-159.25 945.78,-168.43 947.37,-157.96 940.49,-159.25"/>
</g>
<!-- Node62 -->
<g id="node22" class="node">
<title>Node62</title>
<g id="a_node22"><a xlink:href="_ocean_waves_ops_8_h.html" target="_top" xlink:title=" ">
<polygon fill="white" stroke="red" points="809.5,-112.5 809.5,-131.5 918.5,-131.5 918.5,-112.5 809.5,-112.5"/>
<text text-anchor="middle" x="864" y="-119.5" font-family="Helvetica,sans-Serif" font-size="10.00">OceanWavesOps.H</text>
</a>
</g>
</g>
<!-- Node61&#45;&gt;Node62 -->
<g id="edge33" class="edge">
<title>Node61&#45;&gt;Node62</title>
<path fill="none" stroke="midnightblue" d="M924.9,-162.62C909.74,-152.76 890.12,-139.99 877.3,-131.65"/>
<polygon fill="midnightblue" stroke="midnightblue" points="923.37,-165.8 933.66,-168.32 927.19,-159.94 923.37,-165.8"/>
</g>
<!-- Node61&#45;&gt;Node63 -->
<g id="edge37" class="edge">
<title>Node61&#45;&gt;Node63</title>
<path fill="none" stroke="midnightblue" d="M976.39,-164.5C1000.2,-154.38 1033.11,-140.39 1053.97,-131.52"/>
<polygon fill="midnightblue" stroke="midnightblue" points="974.96,-161.31 967.12,-168.44 977.7,-167.75 974.96,-161.31"/>
</g>
<!-- Node62&#45;&gt;Node16 -->
<g id="edge34" class="edge">
<title>Node62&#45;&gt;Node16</title>
<path fill="none" stroke="midnightblue" d="M834.15,-108.5C809.96,-98.38 776.54,-84.39 755.34,-75.52"/>
<polygon fill="midnightblue" stroke="midnightblue" points="832.98,-111.81 843.56,-112.44 835.69,-105.35 832.98,-111.81"/>
</g>
<!-- Node62&#45;&gt;Node21 -->
<g id="edge35" class="edge">
<title>Node62&#45;&gt;Node21</title>
<path fill="none" stroke="midnightblue" d="M869.51,-102.4C872.19,-93.36 875.28,-82.94 877.41,-75.75"/>
<polygon fill="midnightblue" stroke="midnightblue" points="866.13,-101.5 866.64,-112.08 872.84,-103.49 866.13,-101.5"/>
</g>
<!-- Node63&#45;&gt;Node21 -->
<g id="edge39" class="edge">
<title>Node63&#45;&gt;Node21</title>
<path fill="none" stroke="midnightblue" d="M1033.4,-109.7C996.78,-99.51 943.74,-84.74 910.6,-75.52"/>
<polygon fill="midnightblue" stroke="midnightblue" points="1032.69,-113.13 1043.26,-112.44 1034.56,-106.39 1032.69,-113.13"/>
</g>
<!-- Node64 -->
<g id="node24" class="node">
<title>Node64</title>
<g id="a_node24"><a xlink:href="_linear_waves_8_h.html" target="_top" xlink:title=" ">
<polygon fill="white" stroke="red" points="964.5,-56.5 964.5,-75.5 1053.5,-75.5 1053.5,-56.5 964.5,-56.5"/>
<text text-anchor="middle" x="1009" y="-63.5" font-family="Helvetica,sans-Serif" font-size="10.00">LinearWaves.H</text>
</a>
</g>
</g>
<!-- Node63&#45;&gt;Node64 -->
<g id="edge38" class="edge">
<title>Node63&#45;&gt;Node64</title>
<path fill="none" stroke="midnightblue" d="M1055.73,-105.82C1044.08,-96.15 1029.4,-83.95 1019.63,-75.83"/>
<polygon fill="midnightblue" stroke="midnightblue" points="1053.63,-108.63 1063.56,-112.32 1058.1,-103.24 1053.63,-108.63"/>
</g>
<!-- Node65 -->
<g id="node25" class="node">
<title>Node65</title>
<g id="a_node25"><a xlink:href="_stokes_waves_8_h.html" target="_top" xlink:title=" ">
<polygon fill="white" stroke="red" points="1072,-56.5 1072,-75.5 1164,-75.5 1164,-56.5 1072,-56.5"/>
<text text-anchor="middle" x="1118" y="-63.5" font-family="Helvetica,sans-Serif" font-size="10.00">StokesWaves.H</text>
</a>
</g>
</g>
<!-- Node63&#45;&gt;Node65 -->
<g id="edge40" class="edge">
<title>Node63&#45;&gt;Node65</title>
<path fill="none" stroke="midnightblue" d="M1087.73,-104.14C1095.4,-94.74 1104.63,-83.4 1110.87,-75.75"/>
<polygon fill="midnightblue" stroke="midnightblue" points="1084.87,-102.12 1081.27,-112.08 1090.3,-106.54 1084.87,-102.12"/>
</g>
<!-- Node66 -->
<g id="node26" class="node">
<title>Node66</title>
<g id="a_node26"><a xlink:href="_w2_a_waves_8_h.html" target="_top" xlink:title=" ">
<polygon fill="white" stroke="red" points="1182.5,-56.5 1182.5,-75.5 1263.5,-75.5 1263.5,-56.5 1182.5,-56.5"/>
<text text-anchor="middle" x="1223" y="-63.5" font-family="Helvetica,sans-Serif" font-size="10.00">W2AWaves.H</text>
</a>
</g>
</g>
<!-- Node63&#45;&gt;Node66 -->
<g id="edge41" class="edge">
<title>Node63&#45;&gt;Node66</title>
<path fill="none" stroke="midnightblue" d="M1107.37,-108.91C1135.38,-98.75 1174.7,-84.51 1199.5,-75.52"/>
<polygon fill="midnightblue" stroke="midnightblue" points="1105.82,-105.75 1097.61,-112.44 1108.2,-112.33 1105.82,-105.75"/>
</g>
<!-- Node68 -->
<g id="node28" class="node">
<title>Node68</title>
<g id="a_node28"><a xlink:href="_synthetic_turbulence_8cpp.html" target="_top" xlink:title=" ">
<polygon fill="white" stroke="black" points="1434.5,-112.5 1434.5,-131.5 1569.5,-131.5 1569.5,-112.5 1434.5,-112.5"/>
<text text-anchor="middle" x="1502" y="-119.5" font-family="Helvetica,sans-Serif" font-size="10.00">SyntheticTurbulence.cpp</text>
</a>
</g>
</g>
<!-- Node67&#45;&gt;Node68 -->
<g id="edge44" class="edge">
<title>Node67&#45;&gt;Node68</title>
<path fill="none" stroke="midnightblue" d="M1505.25,-158.1C1504.42,-149.14 1503.47,-138.86 1502.81,-131.75"/>
<polygon fill="midnightblue" stroke="midnightblue" points="1501.77,-158.45 1506.17,-168.08 1508.74,-157.8 1501.77,-158.45"/>
</g>
<!-- Node70 -->
<g id="node30" class="node">
<title>Node70</title>
<g id="a_node30"><a xlink:href="_d_t_u_spinner_sampler_8cpp.html" target="_top" xlink:title=" ">
<polygon fill="white" stroke="black" points="1702,-56.5 1702,-75.5 1836,-75.5 1836,-56.5 1702,-56.5"/>
<text text-anchor="middle" x="1769" y="-63.5" font-family="Helvetica,sans-Serif" font-size="10.00">DTUSpinnerSampler.cpp</text>
</a>
</g>
</g>
<!-- Node69&#45;&gt;Node70 -->
<g id="edge46" class="edge">
<title>Node69&#45;&gt;Node70</title>
<path fill="none" stroke="midnightblue" d="M1769,-101.8C1769,-92.91 1769,-82.78 1769,-75.75"/>
<polygon fill="midnightblue" stroke="midnightblue" points="1765.5,-102.08 1769,-112.08 1772.5,-102.08 1765.5,-102.08"/>
</g>
<!-- Node71&#45;&gt;Node69 -->
<g id="edge48" class="edge">
<title>Node71&#45;&gt;Node69</title>
<path fill="none" stroke="midnightblue" d="M1668.32,-164.5C1692.88,-154.38 1726.82,-140.39 1748.34,-131.52"/>
<polygon fill="midnightblue" stroke="midnightblue" points="1666.67,-161.4 1658.76,-168.44 1669.34,-167.87 1666.67,-161.4"/>
</g>
<!-- Node72 -->
<g id="node32" class="node">
<title>Node72</title>
<g id="a_node32"><a xlink:href="_lidar_sampler_8cpp.html" target="_top" xlink:title=" ">
<polygon fill="white" stroke="black" points="1587.5,-112.5 1587.5,-131.5 1688.5,-131.5 1688.5,-112.5 1587.5,-112.5"/>
<text text-anchor="middle" x="1638" y="-119.5" font-family="Helvetica,sans-Serif" font-size="10.00">LidarSampler.cpp</text>
</a>
</g>
</g>
<!-- Node71&#45;&gt;Node72 -->
<g id="edge49" class="edge">
<title>Node71&#45;&gt;Node72</title>
<path fill="none" stroke="midnightblue" d="M1638,-157.8C1638,-148.91 1638,-138.78 1638,-131.75"/>
<polygon fill="midnightblue" stroke="midnightblue" points="1634.5,-158.08 1638,-168.08 1641.5,-158.08 1634.5,-158.08"/>
</g>
<!-- Node74 -->
<g id="node34" class="node">
<title>Node74</title>
<g id="a_node34"><a xlink:href="_radar_sampler_8cpp.html" target="_top" xlink:title=" ">
<polygon fill="white" stroke="black" points="1967.5,-56.5 1967.5,-75.5 2072.5,-75.5 2072.5,-56.5 1967.5,-56.5"/>
<text text-anchor="middle" x="2020" y="-63.5" font-family="Helvetica,sans-Serif" font-size="10.00">RadarSampler.cpp</text>
</a>
</g>
</g>
<!-- Node73&#45;&gt;Node74 -->
<g id="edge51" class="edge">
<title>Node73&#45;&gt;Node74</title>
<path fill="none" stroke="midnightblue" d="M2020,-101.8C2020,-92.91 2020,-82.78 2020,-75.75"/>
<polygon fill="midnightblue" stroke="midnightblue" points="2016.5,-102.08 2020,-112.08 2023.5,-102.08 2016.5,-102.08"/>
</g>
<!-- Node75&#45;&gt;Node69 -->
<g id="edge53" class="edge">
<title>Node75&#45;&gt;Node69</title>
<path fill="none" stroke="midnightblue" d="M1781.45,-158.4C1778.28,-149.36 1774.61,-138.94 1772.08,-131.75"/>
<polygon fill="midnightblue" stroke="midnightblue" points="1778.24,-159.81 1784.86,-168.08 1784.85,-157.49 1778.24,-159.81"/>
</g>
<!-- Node75&#45;&gt;Node73 -->
<g id="edge54" class="edge">
<title>Node75&#45;&gt;Node73</title>
<path fill="none" stroke="midnightblue" d="M1834.6,-166.15C1878.44,-155.95 1943.18,-140.88 1983.41,-131.52"/>
<polygon fill="midnightblue" stroke="midnightblue" points="1833.71,-162.77 1824.76,-168.44 1835.29,-169.59 1833.71,-162.77"/>
</g>
<!-- Node76 -->
<g id="node36" class="node">
<title>Node76</title>
<g id="a_node36"><a xlink:href="_sampling_utils_8cpp.html" target="_top" xlink:title=" ">
<polygon fill="white" stroke="black" points="1849.5,-112.5 1849.5,-131.5 1954.5,-131.5 1954.5,-112.5 1849.5,-112.5"/>
<text text-anchor="middle" x="1902" y="-119.5" font-family="Helvetica,sans-Serif" font-size="10.00">SamplingUtils.cpp</text>
</a>
</g>
</g>
<!-- Node75&#45;&gt;Node76 -->
<g id="edge55" class="edge">
<title>Node75&#45;&gt;Node76</title>
<path fill="none" stroke="midnightblue" d="M1815.24,-164.1C1836.54,-154.01 1865.54,-140.27 1884.02,-131.52"/>
<polygon fill="midnightblue" stroke="midnightblue" points="1813.6,-161 1806.06,-168.44 1816.6,-167.33 1813.6,-161"/>
</g>
<!-- Node78 -->
<g id="node38" class="node">
<title>Node78</title>
<g id="a_node38"><a xlink:href="_box_refiner_8cpp.html" target="_top" xlink:title=" ">
<polygon fill="white" stroke="black" points="2085.5,-112.5 2085.5,-131.5 2174.5,-131.5 2174.5,-112.5 2085.5,-112.5"/>
<text text-anchor="middle" x="2130" y="-119.5" font-family="Helvetica,sans-Serif" font-size="10.00">BoxRefiner.cpp</text>
</a>
</g>
</g>
<!-- Node77&#45;&gt;Node78 -->
<g id="edge57" class="edge">
<title>Node77&#45;&gt;Node78</title>
<path fill="none" stroke="midnightblue" d="M1973.44,-165.7C2010.81,-155.51 2064.94,-140.74 2098.77,-131.52"/>
<polygon fill="midnightblue" stroke="midnightblue" points="1972.1,-162.44 1963.37,-168.44 1973.94,-169.19 1972.1,-162.44"/>
</g>
<!-- Node80 -->
<g id="node40" class="node">
<title>Node80</title>
<g id="a_node40"><a xlink:href="_cylinder_refiner_8cpp.html" target="_top" xlink:title=" ">
<polygon fill="white" stroke="black" points="2192.5,-112.5 2192.5,-131.5 2303.5,-131.5 2303.5,-112.5 2192.5,-112.5"/>
<text text-anchor="middle" x="2248" y="-119.5" font-family="Helvetica,sans-Serif" font-size="10.00">CylinderRefiner.cpp</text>
</a>
</g>
</g>
<!-- Node79&#45;&gt;Node80 -->
<g id="edge59" class="edge">
<title>Node79&#45;&gt;Node80</title>
<path fill="none" stroke="midnightblue" d="M2083.82,-165.83C2122.91,-155.63 2179.83,-140.78 2215.35,-131.52"/>
<polygon fill="midnightblue" stroke="midnightblue" points="2082.59,-162.53 2073.8,-168.44 2084.36,-169.31 2082.59,-162.53"/>
</g>
<!-- Node82 -->
<g id="node42" class="node">
<title>Node82</title>
<g id="a_node42"><a xlink:href="_a_b_l_8_h.html" target="_top" xlink:title=" ">
<polygon fill="white" stroke="red" points="2360,-112.5 2360,-131.5 2406,-131.5 2406,-112.5 2360,-112.5"/>
<text text-anchor="middle" x="2383" y="-119.5" font-family="Helvetica,sans-Serif" font-size="10.00">ABL.H</text>
</a>
</g>
</g>
<!-- Node81&#45;&gt;Node82 -->
<g id="edge61" class="edge">
<title>Node81&#45;&gt;Node82</title>
<path fill="none" stroke="midnightblue" d="M2224.4,-165.82C2265.43,-154.75 2326.79,-138.18 2359.88,-129.24"/>
<polygon fill="midnightblue" stroke="midnightblue" points="2223.43,-162.46 2214.69,-168.44 2225.26,-169.22 2223.43,-162.46"/>
</g>
<!-- Node99 -->
<g id="node43" class="node">
<title>Node99</title>
<g id="a_node43"><a xlink:href="_a_b_l_fill_m_p_l_8_h.html" target="_top" xlink:title=" ">
<polygon fill="white" stroke="red" points="2424,-112.5 2424,-131.5 2504,-131.5 2504,-112.5 2424,-112.5"/>
<text text-anchor="middle" x="2464" y="-119.5" font-family="Helvetica,sans-Serif" font-size="10.00">ABLFillMPL.H</text>
</a>
</g>
</g>
<!-- Node81&#45;&gt;Node99 -->
<g id="edge62" class="edge">
<title>Node81&#45;&gt;Node99</title>
<path fill="none" stroke="midnightblue" d="M2237.38,-166.55C2291.98,-156.06 2374.83,-140.13 2423.78,-130.73"/>
<polygon fill="midnightblue" stroke="midnightblue" points="2236.69,-163.12 2227.53,-168.44 2238.01,-169.99 2236.69,-163.12"/>
</g>
<!-- Node101 -->
<g id="node44" class="node">
<title>Node101</title>
<g id="a_node44"><a xlink:href="_a_b_l_modulated_power_law_8cpp.html" target="_top" xlink:title=" ">
<polygon fill="white" stroke="black" points="2320,-56.5 2320,-75.5 2476,-75.5 2476,-56.5 2320,-56.5"/>
<text text-anchor="middle" x="2398" y="-63.5" font-family="Helvetica,sans-Serif" font-size="10.00">ABLModulatedPowerLaw.cpp</text>
</a>
</g>
</g>
<!-- Node81&#45;&gt;Node101 -->
<g id="edge64" class="edge">
<title>Node81&#45;&gt;Node101</title>
<path fill="none" stroke="midnightblue" d="M2226.1,-165.64C2251.86,-157.97 2284.77,-146.57 2312,-132 2342.36,-115.75 2373.51,-89.28 2388.62,-75.68"/>
<polygon fill="midnightblue" stroke="midnightblue" points="2224.88,-162.35 2216.25,-168.5 2226.83,-169.07 2224.88,-162.35"/>
</g>
<!-- Node99&#45;&gt;Node101 -->
<g id="edge63" class="edge">
<title>Node99&#45;&gt;Node101</title>
<path fill="none" stroke="midnightblue" d="M2445.45,-105.82C2433.62,-96.15 2418.71,-83.95 2408.8,-75.83"/>
<polygon fill="midnightblue" stroke="midnightblue" points="2443.44,-108.7 2453.4,-112.32 2447.87,-103.28 2443.44,-108.7"/>
</g>
<!-- Node102&#45;&gt;Node48 -->
<g id="edge68" class="edge">
<title>Node102&#45;&gt;Node48</title>
<path fill="none" stroke="midnightblue" d="M1325.12,-102.35C1321.39,-78.25 1315.07,-37.31 1312.33,-19.59"/>
<polygon fill="midnightblue" stroke="midnightblue" points="1321.68,-103.02 1326.67,-112.37 1328.6,-101.95 1321.68,-103.02"/>
</g>
<!-- Node102&#45;&gt;Node116 -->
<g id="edge66" class="edge">
<title>Node102&#45;&gt;Node116</title>
<path fill="none" stroke="midnightblue" d="M1348.9,-106.34C1362.91,-96.52 1380.88,-83.91 1392.66,-75.65"/>
<polygon fill="midnightblue" stroke="midnightblue" points="1346.55,-103.72 1340.37,-112.32 1350.57,-109.45 1346.55,-103.72"/>
</g>
<!-- Node116&#45;&gt;Node48 -->
<g id="edge67" class="edge">
<title>Node116&#45;&gt;Node48</title>
<path fill="none" stroke="midnightblue" d="M1380.94,-51.18C1363.64,-41.24 1340.85,-28.15 1326.07,-19.65"/>
<polygon fill="midnightblue" stroke="midnightblue" points="1379.48,-54.38 1389.9,-56.32 1382.97,-48.31 1379.48,-54.38"/>
</g>
<!-- Node110&#45;&gt;Node111 -->
<g id="edge72" class="edge">
<title>Node110&#45;&gt;Node111</title>
<path fill="none" stroke="midnightblue" d="M2595.88,-158.69C2592.34,-149.59 2588.23,-139.01 2585.4,-131.75"/>
<polygon fill="midnightblue" stroke="midnightblue" points="2592.65,-160.03 2599.53,-168.08 2599.17,-157.49 2592.65,-160.03"/>
</g>
</g>
</svg>
