<?xml version="1.0" encoding="UTF-8" standalone="no"?>
<!DOCTYPE svg PUBLIC "-//W3C//DTD SVG 1.1//EN"
 "http://www.w3.org/Graphics/SVG/1.1/DTD/svg11.dtd">
<!-- Generated by graphviz version 2.43.0 (0)
 -->
<!-- Title: vector.H Pages: 1 -->
<svg width="2642pt" height="364pt"
 viewBox="0.00 0.00 2641.50 364.00" xmlns="http://www.w3.org/2000/svg" xmlns:xlink="http://www.w3.org/1999/xlink">
<g id="graph0" class="graph" transform="scale(1 1) rotate(0) translate(4 360)">
<title>vector.H</title>
<polygon fill="white" stroke="transparent" points="-4,4 -4,-360 2637.5,-360 2637.5,4 -4,4"/>
<!-- Node1 -->
<g id="node1" class="node">
<title>Node1</title>
<g id="a_node1"><a xlink:title=" ">
<polygon fill="#bfbfbf" stroke="black" points="1776,-336.5 1776,-355.5 1833,-355.5 1833,-336.5 1776,-336.5"/>
<text text-anchor="middle" x="1804.5" y="-343.5" font-family="Helvetica,sans-Serif" font-size="10.00">vector.H</text>
</a>
</g>
</g>
<!-- Node2 -->
<g id="node2" class="node">
<title>Node2</title>
<g id="a_node2"><a xlink:href="tensor_8_h.html" target="_top" xlink:title=" ">
<polygon fill="white" stroke="black" points="1556,-280.5 1556,-299.5 1613,-299.5 1613,-280.5 1556,-280.5"/>
<text text-anchor="middle" x="1584.5" y="-287.5" font-family="Helvetica,sans-Serif" font-size="10.00">tensor.H</text>
</a>
</g>
</g>
<!-- Node1&#45;&gt;Node2 -->
<g id="edge1" class="edge">
<title>Node1&#45;&gt;Node2</title>
<path fill="none" stroke="midnightblue" d="M1765.79,-335.5C1722.18,-324.79 1652.31,-307.64 1613.27,-298.06"/>
<polygon fill="midnightblue" stroke="midnightblue" points="1765.19,-338.96 1775.74,-337.94 1766.86,-332.16 1765.19,-338.96"/>
</g>
<!-- Node4 -->
<g id="node4" class="node">
<title>Node4</title>
<g id="a_node4"><a xlink:href="vector__space_8_h.html" target="_top" xlink:title=" ">
<polygon fill="white" stroke="black" points="1614.5,-224.5 1614.5,-243.5 1706.5,-243.5 1706.5,-224.5 1614.5,-224.5"/>
<text text-anchor="middle" x="1660.5" y="-231.5" font-family="Helvetica,sans-Serif" font-size="10.00">vector_space.H</text>
</a>
</g>
</g>
<!-- Node1&#45;&gt;Node4 -->
<g id="edge69" class="edge">
<title>Node1&#45;&gt;Node4</title>
<path fill="none" stroke="midnightblue" d="M1765.88,-342.84C1734.98,-338.93 1693.05,-328.34 1669.5,-300 1656.1,-283.88 1657.31,-257.35 1659.06,-243.71"/>
<polygon fill="midnightblue" stroke="midnightblue" points="1765.58,-346.32 1775.89,-343.92 1766.33,-339.36 1765.58,-346.32"/>
</g>
<!-- Node121 -->
<g id="node45" class="node">
<title>Node121</title>
<g id="a_node45"><a xlink:href="vector_i_8_h.html" target="_top" xlink:title=" ">
<polygon fill="white" stroke="black" points="1679,-280.5 1679,-299.5 1740,-299.5 1740,-280.5 1679,-280.5"/>
<text text-anchor="middle" x="1709.5" y="-287.5" font-family="Helvetica,sans-Serif" font-size="10.00">vectorI.H</text>
</a>
</g>
</g>
<!-- Node1&#45;&gt;Node121 -->
<g id="edge70" class="edge">
<title>Node1&#45;&gt;Node121</title>
<path fill="none" stroke="midnightblue" d="M1774.98,-331.59C1756.09,-321.61 1732.9,-308.27 1719.62,-299.65"/>
<polygon fill="midnightblue" stroke="midnightblue" points="1773.63,-334.83 1784.12,-336.32 1776.85,-328.62 1773.63,-334.83"/>
</g>
<!-- Node122 -->
<g id="node46" class="node">
<title>Node122</title>
<g id="a_node46"><a xlink:href="_burggraf_lid_8cpp.html" target="_top" xlink:title=" ">
<polygon fill="white" stroke="black" points="1758,-280.5 1758,-299.5 1851,-299.5 1851,-280.5 1758,-280.5"/>
<text text-anchor="middle" x="1804.5" y="-287.5" font-family="Helvetica,sans-Serif" font-size="10.00">BurggrafLid.cpp</text>
</a>
</g>
</g>
<!-- Node1&#45;&gt;Node122 -->
<g id="edge72" class="edge">
<title>Node1&#45;&gt;Node122</title>
<path fill="none" stroke="midnightblue" d="M1804.5,-325.8C1804.5,-316.91 1804.5,-306.78 1804.5,-299.75"/>
<polygon fill="midnightblue" stroke="midnightblue" points="1801,-326.08 1804.5,-336.08 1808,-326.08 1801,-326.08"/>
</g>
<!-- Node123 -->
<g id="node47" class="node">
<title>Node123</title>
<g id="a_node47"><a xlink:href="_custom_scalar_8cpp.html" target="_top" xlink:title=" ">
<polygon fill="white" stroke="black" points="1869.5,-280.5 1869.5,-299.5 1973.5,-299.5 1973.5,-280.5 1869.5,-280.5"/>
<text text-anchor="middle" x="1921.5" y="-287.5" font-family="Helvetica,sans-Serif" font-size="10.00">CustomScalar.cpp</text>
</a>
</g>
</g>
<!-- Node1&#45;&gt;Node123 -->
<g id="edge73" class="edge">
<title>Node1&#45;&gt;Node123</title>
<path fill="none" stroke="midnightblue" d="M1832.16,-332.23C1854.05,-322.13 1884,-308.31 1903.05,-299.52"/>
<polygon fill="midnightblue" stroke="midnightblue" points="1830.65,-329.08 1823.04,-336.44 1833.59,-335.43 1830.65,-329.08"/>
</g>
<!-- Node124 -->
<g id="node48" class="node">
<title>Node124</title>
<g id="a_node48"><a xlink:href="_custom_velocity_8cpp.html" target="_top" xlink:title=" ">
<polygon fill="white" stroke="black" points="1991.5,-280.5 1991.5,-299.5 2103.5,-299.5 2103.5,-280.5 1991.5,-280.5"/>
<text text-anchor="middle" x="2047.5" y="-287.5" font-family="Helvetica,sans-Serif" font-size="10.00">CustomVelocity.cpp</text>
</a>
</g>
</g>
<!-- Node1&#45;&gt;Node124 -->
<g id="edge74" class="edge">
<title>Node1&#45;&gt;Node124</title>
<path fill="none" stroke="midnightblue" d="M1843.12,-336.42C1888.61,-326.31 1963.73,-309.62 2009.12,-299.53"/>
<polygon fill="midnightblue" stroke="midnightblue" points="1842.33,-333.01 1833.33,-338.59 1843.85,-339.84 1842.33,-333.01"/>
</g>
<!-- Node125 -->
<g id="node49" class="node">
<title>Node125</title>
<g id="a_node49"><a xlink:href="_power_law_profile_8cpp.html" target="_top" xlink:title=" ">
<polygon fill="white" stroke="black" points="2122,-280.5 2122,-299.5 2239,-299.5 2239,-280.5 2122,-280.5"/>
<text text-anchor="middle" x="2180.5" y="-287.5" font-family="Helvetica,sans-Serif" font-size="10.00">PowerLawProfile.cpp</text>
</a>
</g>
</g>
<!-- Node1&#45;&gt;Node125 -->
<g id="edge75" class="edge">
<title>Node1&#45;&gt;Node125</title>
<path fill="none" stroke="midnightblue" d="M1843.05,-339.46C1909.03,-329.99 2044,-310.6 2121.76,-299.44"/>
<polygon fill="midnightblue" stroke="midnightblue" points="1842.47,-336.01 1833.07,-340.9 1843.47,-342.94 1842.47,-336.01"/>
</g>
<!-- Node126 -->
<g id="node50" class="node">
<title>Node126</title>
<g id="a_node50"><a xlink:href="_rankine_8cpp.html" target="_top" xlink:title=" ">
<polygon fill="white" stroke="black" points="2257,-280.5 2257,-299.5 2334,-299.5 2334,-280.5 2257,-280.5"/>
<text text-anchor="middle" x="2295.5" y="-287.5" font-family="Helvetica,sans-Serif" font-size="10.00">Rankine.cpp</text>
</a>
</g>
</g>
<!-- Node1&#45;&gt;Node126 -->
<g id="edge76" class="edge">
<title>Node1&#45;&gt;Node126</title>
<path fill="none" stroke="midnightblue" d="M1843.32,-342.16C1920.54,-336.27 2098.79,-321.46 2247.5,-300 2250.52,-299.56 2253.64,-299.07 2256.77,-298.55"/>
<polygon fill="midnightblue" stroke="midnightblue" points="1842.81,-338.69 1833.11,-342.93 1843.34,-345.67 1842.81,-338.69"/>
</g>
<!-- Node3 -->
<g id="node3" class="node">
<title>Node3</title>
<g id="a_node3"><a xlink:href="tensor_i_8_h.html" target="_top" xlink:title=" ">
<polygon fill="white" stroke="black" points="1535,-224.5 1535,-243.5 1596,-243.5 1596,-224.5 1535,-224.5"/>
<text text-anchor="middle" x="1565.5" y="-231.5" font-family="Helvetica,sans-Serif" font-size="10.00">tensorI.H</text>
</a>
</g>
</g>
<!-- Node2&#45;&gt;Node3 -->
<g id="edge2" class="edge">
<title>Node2&#45;&gt;Node3</title>
<path fill="none" stroke="midnightblue" d="M1571.75,-270.98C1567.8,-261.82 1564.45,-251.09 1563.45,-243.75"/>
<polygon fill="midnightblue" stroke="midnightblue" points="1568.66,-272.63 1576.2,-280.08 1574.95,-269.56 1568.66,-272.63"/>
</g>
<!-- Node2&#45;&gt;Node4 -->
<g id="edge4" class="edge">
<title>Node2&#45;&gt;Node4</title>
<path fill="none" stroke="midnightblue" d="M1605.08,-274.38C1618.81,-264.62 1636.43,-252.11 1648.07,-243.83"/>
<polygon fill="midnightblue" stroke="midnightblue" points="1602.84,-271.68 1596.71,-280.32 1606.89,-277.38 1602.84,-271.68"/>
</g>
<!-- Node3&#45;&gt;Node2 -->
<g id="edge3" class="edge">
<title>Node3&#45;&gt;Node2</title>
<path fill="none" stroke="midnightblue" d="M1578.16,-252.81C1582.12,-261.95 1585.49,-272.69 1586.53,-280.08"/>
<polygon fill="midnightblue" stroke="midnightblue" points="1581.26,-251.19 1573.71,-243.75 1574.97,-254.27 1581.26,-251.19"/>
</g>
<!-- Node5 -->
<g id="node5" class="node">
<title>Node5</title>
<g id="a_node5"><a xlink:href="_multi_parser_8_h.html" target="_top" xlink:title=" ">
<polygon fill="white" stroke="black" points="498,-112.5 498,-131.5 579,-131.5 579,-112.5 498,-112.5"/>
<text text-anchor="middle" x="538.5" y="-119.5" font-family="Helvetica,sans-Serif" font-size="10.00">MultiParser.H</text>
</a>
</g>
</g>
<!-- Node4&#45;&gt;Node5 -->
<g id="edge5" class="edge">
<title>Node4&#45;&gt;Node5</title>
<path fill="none" stroke="midnightblue" d="M1604.19,-224.12C1277.89,-190.79 1191.39,-227.08 870.5,-188 761.18,-174.69 633.9,-146.01 573.61,-131.61"/>
<polygon fill="midnightblue" stroke="midnightblue" points="1604.1,-227.63 1614.41,-225.18 1604.82,-220.67 1604.1,-227.63"/>
</g>
<!-- Node49 -->
<g id="node15" class="node">
<title>Node49</title>
<g id="a_node15"><a xlink:href="wing__ops_8_h.html" target="_top" xlink:title=" ">
<polygon fill="white" stroke="red" points="1293,-0.5 1293,-19.5 1366,-19.5 1366,-0.5 1293,-0.5"/>
<text text-anchor="middle" x="1329.5" y="-7.5" font-family="Helvetica,sans-Serif" font-size="10.00">wing_ops.H</text>
</a>
</g>
</g>
<!-- Node4&#45;&gt;Node49 -->
<g id="edge68" class="edge">
<title>Node4&#45;&gt;Node49</title>
<path fill="none" stroke="midnightblue" d="M1604.02,-223.08C1535.43,-210.91 1428.41,-191.44 1425.5,-188 1406.55,-165.6 1438.37,-80.68 1422.5,-56 1409.99,-36.54 1386.47,-25.26 1366.22,-18.87"/>
<polygon fill="midnightblue" stroke="midnightblue" points="1603.81,-226.6 1614.27,-224.9 1605.03,-219.71 1603.81,-226.6"/>
</g>
<!-- Node56 -->
<g id="node16" class="node">
<title>Node56</title>
<g id="a_node16"><a xlink:href="_bluff_body_8_h.html" target="_top" xlink:title=" ">
<polygon fill="white" stroke="black" points="160,-112.5 160,-131.5 233,-131.5 233,-112.5 160,-112.5"/>
<text text-anchor="middle" x="196.5" y="-119.5" font-family="Helvetica,sans-Serif" font-size="10.00">BluffBody.H</text>
</a>
</g>
</g>
<!-- Node4&#45;&gt;Node56 -->
<g id="edge20" class="edge">
<title>Node4&#45;&gt;Node56</title>
<path fill="none" stroke="midnightblue" d="M1604.31,-224.28C1418.91,-211.27 424.58,-233.28 288.5,-188 253.61,-176.39 220.35,-146.78 205.14,-131.87"/>
<polygon fill="midnightblue" stroke="midnightblue" points="1604.17,-227.78 1614.42,-225.1 1604.73,-220.8 1604.17,-227.78"/>
</g>
<!-- Node60 -->
<g id="node20" class="node">
<title>Node60</title>
<g id="a_node20"><a xlink:href="_i_b_types_8_h.html" target="_top" xlink:title=" ">
<polygon fill="white" stroke="black" points="298,-168.5 298,-187.5 363,-187.5 363,-168.5 298,-168.5"/>
<text text-anchor="middle" x="330.5" y="-175.5" font-family="Helvetica,sans-Serif" font-size="10.00">IBTypes.H</text>
</a>
</g>
</g>
<!-- Node4&#45;&gt;Node60 -->
<g id="edge25" class="edge">
<title>Node4&#45;&gt;Node60</title>
<path fill="none" stroke="midnightblue" d="M1604.28,-224.22C1437.34,-210.47 545.31,-185.02 363.03,-179.91"/>
<polygon fill="midnightblue" stroke="midnightblue" points="1604.14,-227.72 1614.41,-225.13 1604.77,-220.75 1604.14,-227.72"/>
</g>
<!-- Node62 -->
<g id="node22" class="node">
<title>Node62</title>
<g id="a_node22"><a xlink:href="_ocean_waves_types_8_h.html" target="_top" xlink:title=" ">
<polygon fill="white" stroke="black" points="879.5,-168.5 879.5,-187.5 997.5,-187.5 997.5,-168.5 879.5,-168.5"/>
<text text-anchor="middle" x="938.5" y="-175.5" font-family="Helvetica,sans-Serif" font-size="10.00">OceanWavesTypes.H</text>
</a>
</g>
</g>
<!-- Node4&#45;&gt;Node62 -->
<g id="edge32" class="edge">
<title>Node4&#45;&gt;Node62</title>
<path fill="none" stroke="midnightblue" d="M1604.33,-224.13C1470.07,-209.67 1134.2,-190.02 997.55,-182.29"/>
<polygon fill="midnightblue" stroke="midnightblue" points="1604.08,-227.62 1614.4,-225.25 1604.85,-220.66 1604.08,-227.62"/>
</g>
<!-- Node64 -->
<g id="node24" class="node">
<title>Node64</title>
<g id="a_node24"><a xlink:href="_relaxation_zones_8_h.html" target="_top" xlink:title=" ">
<polygon fill="white" stroke="black" points="978.5,-112.5 978.5,-131.5 1088.5,-131.5 1088.5,-112.5 978.5,-112.5"/>
<text text-anchor="middle" x="1033.5" y="-119.5" font-family="Helvetica,sans-Serif" font-size="10.00">RelaxationZones.H</text>
</a>
</g>
</g>
<!-- Node4&#45;&gt;Node64 -->
<g id="edge43" class="edge">
<title>Node4&#45;&gt;Node64</title>
<path fill="none" stroke="midnightblue" d="M1604.36,-224.03C1478.63,-206.21 1444.94,-209.15 1324.5,-188 1230.43,-171.48 1120.8,-145.01 1066.91,-131.51"/>
<polygon fill="midnightblue" stroke="midnightblue" points="1603.98,-227.51 1614.37,-225.47 1604.97,-220.59 1603.98,-227.51"/>
</g>
<!-- Node68 -->
<g id="node28" class="node">
<title>Node68</title>
<g id="a_node28"><a xlink:href="_synthetic_turbulence_8_h.html" target="_top" xlink:title=" ">
<polygon fill="white" stroke="black" points="1435,-168.5 1435,-187.5 1560,-187.5 1560,-168.5 1435,-168.5"/>
<text text-anchor="middle" x="1497.5" y="-175.5" font-family="Helvetica,sans-Serif" font-size="10.00">SyntheticTurbulence.H</text>
</a>
</g>
</g>
<!-- Node4&#45;&gt;Node68 -->
<g id="edge44" class="edge">
<title>Node4&#45;&gt;Node68</title>
<path fill="none" stroke="midnightblue" d="M1624.8,-221.17C1594.1,-211 1550.58,-196.59 1523.21,-187.52"/>
<polygon fill="midnightblue" stroke="midnightblue" points="1624.08,-224.62 1634.67,-224.44 1626.28,-217.98 1624.08,-224.62"/>
</g>
<!-- Node70 -->
<g id="node30" class="node">
<title>Node70</title>
<g id="a_node30"><a xlink:href="_d_t_u_spinner_sampler_8_h.html" target="_top" xlink:title=" ">
<polygon fill="white" stroke="black" points="1707,-112.5 1707,-131.5 1832,-131.5 1832,-112.5 1707,-112.5"/>
<text text-anchor="middle" x="1769.5" y="-119.5" font-family="Helvetica,sans-Serif" font-size="10.00">DTUSpinnerSampler.H</text>
</a>
</g>
</g>
<!-- Node4&#45;&gt;Node70 -->
<g id="edge46" class="edge">
<title>Node4&#45;&gt;Node70</title>
<path fill="none" stroke="midnightblue" d="M1673.71,-216.25C1684.66,-202.74 1700.89,-183.5 1716.5,-168 1730.03,-154.56 1747.05,-140.57 1758.1,-131.83"/>
<polygon fill="midnightblue" stroke="midnightblue" points="1670.86,-214.22 1667.35,-224.21 1676.33,-218.59 1670.86,-214.22"/>
</g>
<!-- Node72 -->
<g id="node32" class="node">
<title>Node72</title>
<g id="a_node32"><a xlink:href="_lidar_sampler_8_h.html" target="_top" xlink:title=" ">
<polygon fill="white" stroke="black" points="1578,-168.5 1578,-187.5 1669,-187.5 1669,-168.5 1578,-168.5"/>
<text text-anchor="middle" x="1623.5" y="-175.5" font-family="Helvetica,sans-Serif" font-size="10.00">LidarSampler.H</text>
</a>
</g>
</g>
<!-- Node4&#45;&gt;Node72 -->
<g id="edge48" class="edge">
<title>Node4&#45;&gt;Node72</title>
<path fill="none" stroke="midnightblue" d="M1648.55,-215.57C1642.19,-206.27 1634.63,-195.25 1629.5,-187.75"/>
<polygon fill="midnightblue" stroke="midnightblue" points="1645.85,-217.81 1654.39,-224.08 1651.63,-213.86 1645.85,-217.81"/>
</g>
<!-- Node74 -->
<g id="node34" class="node">
<title>Node74</title>
<g id="a_node34"><a xlink:href="_radar_sampler_8_h.html" target="_top" xlink:title=" ">
<polygon fill="white" stroke="red" points="1850,-112.5 1850,-131.5 1945,-131.5 1945,-112.5 1850,-112.5"/>
<text text-anchor="middle" x="1897.5" y="-119.5" font-family="Helvetica,sans-Serif" font-size="10.00">RadarSampler.H</text>
</a>
</g>
</g>
<!-- Node4&#45;&gt;Node74 -->
<g id="edge51" class="edge">
<title>Node4&#45;&gt;Node74</title>
<path fill="none" stroke="midnightblue" d="M1716.46,-225.36C1750.73,-218.97 1794.56,-207.62 1829.5,-188 1855.99,-173.13 1879.88,-145.55 1890.97,-131.59"/>
<polygon fill="midnightblue" stroke="midnightblue" points="1715.85,-221.91 1706.61,-227.11 1717.07,-228.81 1715.85,-221.91"/>
</g>
<!-- Node76 -->
<g id="node35" class="node">
<title>Node76</title>
<g id="a_node35"><a xlink:href="_sampling_utils_8_h.html" target="_top" xlink:title=" ">
<polygon fill="white" stroke="red" points="1726,-168.5 1726,-187.5 1821,-187.5 1821,-168.5 1726,-168.5"/>
<text text-anchor="middle" x="1773.5" y="-175.5" font-family="Helvetica,sans-Serif" font-size="10.00">SamplingUtils.H</text>
</a>
</g>
</g>
<!-- Node4&#45;&gt;Node76 -->
<g id="edge52" class="edge">
<title>Node4&#45;&gt;Node76</title>
<path fill="none" stroke="midnightblue" d="M1687.5,-220.1C1708.61,-210.01 1737.36,-196.27 1755.68,-187.52"/>
<polygon fill="midnightblue" stroke="midnightblue" points="1685.92,-216.97 1678.41,-224.44 1688.94,-223.29 1685.92,-216.97"/>
</g>
<!-- Node78 -->
<g id="node36" class="node">
<title>Node78</title>
<g id="a_node36"><a xlink:href="_box_refiner_8_h.html" target="_top" xlink:title=" ">
<polygon fill="white" stroke="red" points="1877.5,-168.5 1877.5,-187.5 1957.5,-187.5 1957.5,-168.5 1877.5,-168.5"/>
<text text-anchor="middle" x="1917.5" y="-175.5" font-family="Helvetica,sans-Serif" font-size="10.00">BoxRefiner.H</text>
</a>
</g>
</g>
<!-- Node4&#45;&gt;Node78 -->
<g id="edge55" class="edge">
<title>Node4&#45;&gt;Node78</title>
<path fill="none" stroke="midnightblue" d="M1711.24,-222.34C1759.96,-212.1 1832.58,-196.84 1877.39,-187.43"/>
<polygon fill="midnightblue" stroke="midnightblue" points="1710.29,-218.96 1701.22,-224.44 1711.73,-225.81 1710.29,-218.96"/>
</g>
<!-- Node80 -->
<g id="node37" class="node">
<title>Node80</title>
<g id="a_node37"><a xlink:href="_cylinder_refiner_8_h.html" target="_top" xlink:title=" ">
<polygon fill="white" stroke="red" points="1976,-168.5 1976,-187.5 2077,-187.5 2077,-168.5 1976,-168.5"/>
<text text-anchor="middle" x="2026.5" y="-175.5" font-family="Helvetica,sans-Serif" font-size="10.00">CylinderRefiner.H</text>
</a>
</g>
</g>
<!-- Node4&#45;&gt;Node80 -->
<g id="edge56" class="edge">
<title>Node4&#45;&gt;Node80</title>
<path fill="none" stroke="midnightblue" d="M1716.89,-224.76C1778.3,-215.77 1879.39,-200.94 1966.5,-188 1969.52,-187.55 1972.63,-187.09 1975.76,-186.62"/>
<polygon fill="midnightblue" stroke="midnightblue" points="1716.03,-221.35 1706.64,-226.26 1717.05,-228.27 1716.03,-221.35"/>
</g>
<!-- Node82 -->
<g id="node38" class="node">
<title>Node82</title>
<g id="a_node38"><a xlink:href="_a_b_l_modulated_power_law_8_h.html" target="_top" xlink:title=" ">
<polygon fill="white" stroke="red" points="2095.5,-168.5 2095.5,-187.5 2241.5,-187.5 2241.5,-168.5 2095.5,-168.5"/>
<text text-anchor="middle" x="2168.5" y="-175.5" font-family="Helvetica,sans-Serif" font-size="10.00">ABLModulatedPowerLaw.H</text>
</a>
</g>
</g>
<!-- Node4&#45;&gt;Node82 -->
<g id="edge57" class="edge">
<title>Node4&#45;&gt;Node82</title>
<path fill="none" stroke="midnightblue" d="M1716.75,-227.09C1798.12,-218.53 1953.38,-202.16 2085.5,-188 2088.67,-187.66 2091.91,-187.31 2095.18,-186.96"/>
<polygon fill="midnightblue" stroke="midnightblue" points="1716.31,-223.62 1706.73,-228.14 1717.04,-230.58 1716.31,-223.62"/>
</g>
<!-- Node103 -->
<g id="node39" class="node">
<title>Node103</title>
<g id="a_node39"><a xlink:href="actuator__types_8_h.html" target="_top" xlink:title=" ">
<polygon fill="white" stroke="red" points="1240.5,-112.5 1240.5,-131.5 1340.5,-131.5 1340.5,-112.5 1240.5,-112.5"/>
<text text-anchor="middle" x="1290.5" y="-119.5" font-family="Helvetica,sans-Serif" font-size="10.00">actuator_types.H</text>
</a>
</g>
</g>
<!-- Node4&#45;&gt;Node103 -->
<g id="edge58" class="edge">
<title>Node4&#45;&gt;Node103</title>
<path fill="none" stroke="midnightblue" d="M1604.29,-224.08C1491.27,-208.81 1451.85,-237.21 1354.5,-188 1328.21,-174.71 1306.34,-146.42 1296.34,-131.94"/>
<polygon fill="midnightblue" stroke="midnightblue" points="1603.97,-227.56 1614.36,-225.52 1604.96,-220.64 1603.97,-227.56"/>
</g>
<!-- Node117 -->
<g id="node40" class="node">
<title>Node117</title>
<g id="a_node40"><a xlink:href="_actuator_wing_8_h.html" target="_top" xlink:title=" ">
<polygon fill="white" stroke="red" points="1321,-56.5 1321,-75.5 1414,-75.5 1414,-56.5 1321,-56.5"/>
<text text-anchor="middle" x="1367.5" y="-63.5" font-family="Helvetica,sans-Serif" font-size="10.00">ActuatorWing.H</text>
</a>
</g>
</g>
<!-- Node4&#45;&gt;Node117 -->
<g id="edge67" class="edge">
<title>Node4&#45;&gt;Node117</title>
<path fill="none" stroke="midnightblue" d="M1604.07,-223.93C1526.02,-211.32 1394.41,-189.84 1392.5,-188 1360.68,-157.34 1363.88,-97.67 1366.35,-75.54"/>
<polygon fill="midnightblue" stroke="midnightblue" points="1603.81,-227.43 1614.24,-225.57 1604.93,-220.52 1603.81,-227.43"/>
</g>
<!-- Node118 -->
<g id="node41" class="node">
<title>Node118</title>
<g id="a_node41"><a xlink:href="actuator__utils_8_h.html" target="_top" xlink:title=" ">
<polygon fill="white" stroke="red" points="2259.5,-168.5 2259.5,-187.5 2353.5,-187.5 2353.5,-168.5 2259.5,-168.5"/>
<text text-anchor="middle" x="2306.5" y="-175.5" font-family="Helvetica,sans-Serif" font-size="10.00">actuator_utils.H</text>
</a>
</g>
</g>
<!-- Node4&#45;&gt;Node118 -->
<g id="edge62" class="edge">
<title>Node4&#45;&gt;Node118</title>
<path fill="none" stroke="midnightblue" d="M1716.59,-230.28C1821.62,-224.84 2055.02,-211.12 2250.5,-188 2253.43,-187.65 2256.45,-187.26 2259.49,-186.85"/>
<polygon fill="midnightblue" stroke="midnightblue" points="1716.33,-226.79 1706.53,-230.8 1716.69,-233.78 1716.33,-226.79"/>
</g>
<!-- Node120 -->
<g id="node42" class="node">
<title>Node120</title>
<g id="a_node42"><a xlink:href="_actuator_container_8_h.html" target="_top" xlink:title=" ">
<polygon fill="white" stroke="red" points="2372,-168.5 2372,-187.5 2487,-187.5 2487,-168.5 2372,-168.5"/>
<text text-anchor="middle" x="2429.5" y="-175.5" font-family="Helvetica,sans-Serif" font-size="10.00">ActuatorContainer.H</text>
</a>
</g>
</g>
<!-- Node4&#45;&gt;Node120 -->
<g id="edge63" class="edge">
<title>Node4&#45;&gt;Node120</title>
<path fill="none" stroke="midnightblue" d="M1716.93,-230.72C1836.28,-225.59 2123.02,-211.73 2362.5,-188 2365.54,-187.7 2368.65,-187.37 2371.79,-187.01"/>
<polygon fill="midnightblue" stroke="midnightblue" points="1716.43,-227.23 1706.59,-231.16 1716.73,-234.23 1716.43,-227.23"/>
</g>
<!-- Node111 -->
<g id="node43" class="node">
<title>Node111</title>
<g id="a_node43"><a xlink:href="_actuator_disk_8_h.html" target="_top" xlink:title=" ">
<polygon fill="white" stroke="red" points="2543.5,-168.5 2543.5,-187.5 2633.5,-187.5 2633.5,-168.5 2543.5,-168.5"/>
<text text-anchor="middle" x="2588.5" y="-175.5" font-family="Helvetica,sans-Serif" font-size="10.00">ActuatorDisk.H</text>
</a>
</g>
</g>
<!-- Node4&#45;&gt;Node111 -->
<g id="edge64" class="edge">
<title>Node4&#45;&gt;Node111</title>
<path fill="none" stroke="midnightblue" d="M1717.16,-232.02C1856,-229.19 2224.1,-219.12 2529.5,-188 2534.04,-187.54 2538.75,-186.97 2543.46,-186.34"/>
<polygon fill="midnightblue" stroke="midnightblue" points="1716.71,-228.53 1706.79,-232.23 1716.85,-235.53 1716.71,-228.53"/>
</g>
<!-- Node112 -->
<g id="node44" class="node">
<title>Node112</title>
<g id="a_node44"><a xlink:href="_joukowsky_8_h.html" target="_top" xlink:title=" ">
<polygon fill="white" stroke="red" points="2513,-112.5 2513,-131.5 2590,-131.5 2590,-112.5 2513,-112.5"/>
<text text-anchor="middle" x="2551.5" y="-119.5" font-family="Helvetica,sans-Serif" font-size="10.00">Joukowsky.H</text>
</a>
</g>
</g>
<!-- Node4&#45;&gt;Node112 -->
<g id="edge66" class="edge">
<title>Node4&#45;&gt;Node112</title>
<path fill="none" stroke="midnightblue" d="M1716.76,-232.51C1892.88,-230.63 2426.04,-222.13 2495.5,-188 2520.63,-175.65 2539.05,-146.38 2547.07,-131.71"/>
<polygon fill="midnightblue" stroke="midnightblue" points="1716.63,-229.01 1706.67,-232.62 1716.7,-236.01 1716.63,-229.01"/>
</g>
<!-- Node6 -->
<g id="node6" class="node">
<title>Node6</title>
<g id="a_node6"><a xlink:href="bluff__body__ops_8cpp.html" target="_top" xlink:title=" ">
<polygon fill="white" stroke="black" points="250.5,-0.5 250.5,-19.5 360.5,-19.5 360.5,-0.5 250.5,-0.5"/>
<text text-anchor="middle" x="305.5" y="-7.5" font-family="Helvetica,sans-Serif" font-size="10.00">bluff_body_ops.cpp</text>
</a>
</g>
</g>
<!-- Node5&#45;&gt;Node6 -->
<g id="edge6" class="edge">
<title>Node5&#45;&gt;Node6</title>
<path fill="none" stroke="midnightblue" d="M514.11,-107.65C497.98,-98.78 476.41,-86.81 457.5,-76 442.28,-67.3 439.3,-63.59 423.5,-56 392.87,-41.28 356.07,-27.89 331.81,-19.61"/>
<polygon fill="midnightblue" stroke="midnightblue" points="512.46,-110.74 522.91,-112.49 515.83,-104.6 512.46,-110.74"/>
</g>
<!-- Node7 -->
<g id="node7" class="node">
<title>Node7</title>
<g id="a_node7"><a xlink:href="bluff__body__ops_8_h.html" target="_top" xlink:title=" ">
<polygon fill="white" stroke="red" points="229,-56.5 229,-75.5 330,-75.5 330,-56.5 229,-56.5"/>
<text text-anchor="middle" x="279.5" y="-63.5" font-family="Helvetica,sans-Serif" font-size="10.00">bluff_body_ops.H</text>
</a>
</g>
</g>
<!-- Node5&#45;&gt;Node7 -->
<g id="edge7" class="edge">
<title>Node5&#45;&gt;Node7</title>
<path fill="none" stroke="midnightblue" d="M487.69,-110.41C438.78,-100.21 365.74,-84.98 320.44,-75.54"/>
<polygon fill="midnightblue" stroke="midnightblue" points="487.24,-113.89 497.75,-112.5 488.67,-107.04 487.24,-113.89"/>
</g>
<!-- Node14 -->
<g id="node8" class="node">
<title>Node14</title>
<g id="a_node8"><a xlink:href="_i_b_8cpp.html" target="_top" xlink:title=" ">
<polygon fill="white" stroke="black" points="381,-0.5 381,-19.5 428,-19.5 428,-0.5 381,-0.5"/>
<text text-anchor="middle" x="404.5" y="-7.5" font-family="Helvetica,sans-Serif" font-size="10.00">IB.cpp</text>
</a>
</g>
</g>
<!-- Node5&#45;&gt;Node14 -->
<g id="edge9" class="edge">
<title>Node5&#45;&gt;Node14</title>
<path fill="none" stroke="midnightblue" d="M520,-105.82C491.46,-82.39 437.62,-38.19 414.97,-19.59"/>
<polygon fill="midnightblue" stroke="midnightblue" points="518.04,-108.73 527.99,-112.37 522.48,-103.32 518.04,-108.73"/>
</g>
<!-- Node15 -->
<g id="node9" class="node">
<title>Node15</title>
<g id="a_node9"><a xlink:href="_i_b_model_8_h.html" target="_top" xlink:title=" ">
<polygon fill="white" stroke="red" points="348,-56.5 348,-75.5 415,-75.5 415,-56.5 348,-56.5"/>
<text text-anchor="middle" x="381.5" y="-63.5" font-family="Helvetica,sans-Serif" font-size="10.00">IBModel.H</text>
</a>
</g>
</g>
<!-- Node5&#45;&gt;Node15 -->
<g id="edge10" class="edge">
<title>Node5&#45;&gt;Node15</title>
<path fill="none" stroke="midnightblue" d="M504.11,-109.17C474.55,-99 432.63,-84.59 406.26,-75.52"/>
<polygon fill="midnightblue" stroke="midnightblue" points="503.03,-112.5 513.62,-112.44 505.3,-105.88 503.03,-112.5"/>
</g>
<!-- Node16 -->
<g id="node10" class="node">
<title>Node16</title>
<g id="a_node10"><a xlink:href="_ocean_waves_8cpp.html" target="_top" xlink:title=" ">
<polygon fill="white" stroke="black" points="524.5,-0.5 524.5,-19.5 624.5,-19.5 624.5,-0.5 524.5,-0.5"/>
<text text-anchor="middle" x="574.5" y="-7.5" font-family="Helvetica,sans-Serif" font-size="10.00">OceanWaves.cpp</text>
</a>
</g>
</g>
<!-- Node5&#45;&gt;Node16 -->
<g id="edge12" class="edge">
<title>Node5&#45;&gt;Node16</title>
<path fill="none" stroke="midnightblue" d="M537.39,-102.04C537.23,-88.78 538.25,-70.85 543.5,-56 548.5,-41.87 559.14,-28.04 566.55,-19.52"/>
<polygon fill="midnightblue" stroke="midnightblue" points="533.9,-102.43 537.76,-112.29 540.9,-102.17 533.9,-102.43"/>
</g>
<!-- Node17 -->
<g id="node11" class="node">
<title>Node17</title>
<g id="a_node11"><a xlink:href="_ocean_waves_model_8_h.html" target="_top" xlink:title=" ">
<polygon fill="white" stroke="red" points="675.5,-56.5 675.5,-75.5 795.5,-75.5 795.5,-56.5 675.5,-56.5"/>
<text text-anchor="middle" x="735.5" y="-63.5" font-family="Helvetica,sans-Serif" font-size="10.00">OceanWavesModel.H</text>
</a>
</g>
</g>
<!-- Node5&#45;&gt;Node17 -->
<g id="edge13" class="edge">
<title>Node5&#45;&gt;Node17</title>
<path fill="none" stroke="midnightblue" d="M579.73,-109.7C616.91,-99.51 670.77,-84.74 704.43,-75.52"/>
<polygon fill="midnightblue" stroke="midnightblue" points="578.43,-106.42 569.72,-112.44 580.28,-113.18 578.43,-106.42"/>
</g>
<!-- Node21 -->
<g id="node12" class="node">
<title>Node21</title>
<g id="a_node12"><a xlink:href="relaxation__zones__ops_8cpp.html" target="_top" xlink:title=" ">
<polygon fill="white" stroke="black" points="699,-0.5 699,-19.5 842,-19.5 842,-0.5 699,-0.5"/>
<text text-anchor="middle" x="770.5" y="-7.5" font-family="Helvetica,sans-Serif" font-size="10.00">relaxation_zones_ops.cpp</text>
</a>
</g>
</g>
<!-- Node5&#45;&gt;Node21 -->
<g id="edge15" class="edge">
<title>Node5&#45;&gt;Node21</title>
<path fill="none" stroke="midnightblue" d="M544.57,-102.68C550.43,-87.86 560.75,-67.6 576.5,-56 611.72,-30.06 659.5,-18.77 698.83,-13.98"/>
<polygon fill="midnightblue" stroke="midnightblue" points="541.19,-101.72 541.08,-112.31 547.78,-104.1 541.19,-101.72"/>
</g>
<!-- Node22 -->
<g id="node13" class="node">
<title>Node22</title>
<g id="a_node13"><a xlink:href="relaxation__zones__ops_8_h.html" target="_top" xlink:title=" ">
<polygon fill="white" stroke="red" points="814,-56.5 814,-75.5 947,-75.5 947,-56.5 814,-56.5"/>
<text text-anchor="middle" x="880.5" y="-63.5" font-family="Helvetica,sans-Serif" font-size="10.00">relaxation_zones_ops.H</text>
</a>
</g>
</g>
<!-- Node5&#45;&gt;Node22 -->
<g id="edge16" class="edge">
<title>Node5&#45;&gt;Node22</title>
<path fill="none" stroke="midnightblue" d="M589.26,-112.98C652.87,-102.94 761.4,-85.81 826.49,-75.53"/>
<polygon fill="midnightblue" stroke="midnightblue" points="588.41,-109.58 579.07,-114.59 589.5,-116.49 588.41,-109.58"/>
</g>
<!-- Node26 -->
<g id="node14" class="node">
<title>Node26</title>
<g id="a_node14"><a xlink:href="_act_parser_8_h.html" target="_top" xlink:title=" ">
<polygon fill="white" stroke="red" points="585.5,-56.5 585.5,-75.5 657.5,-75.5 657.5,-56.5 585.5,-56.5"/>
<text text-anchor="middle" x="621.5" y="-63.5" font-family="Helvetica,sans-Serif" font-size="10.00">ActParser.H</text>
</a>
</g>
</g>
<!-- Node5&#45;&gt;Node26 -->
<g id="edge18" class="edge">
<title>Node5&#45;&gt;Node26</title>
<path fill="none" stroke="midnightblue" d="M560.6,-106.62C575.76,-96.76 595.38,-83.99 608.2,-75.65"/>
<polygon fill="midnightblue" stroke="midnightblue" points="558.31,-103.94 551.84,-112.32 562.13,-109.8 558.31,-103.94"/>
</g>
<!-- Node7&#45;&gt;Node6 -->
<g id="edge8" class="edge">
<title>Node7&#45;&gt;Node6</title>
<path fill="none" stroke="midnightblue" d="M288.17,-46.98C292.59,-37.82 297.75,-27.09 301.29,-19.75"/>
<polygon fill="midnightblue" stroke="midnightblue" points="284.98,-45.55 283.79,-56.08 291.29,-48.59 284.98,-45.55"/>
</g>
<!-- Node15&#45;&gt;Node14 -->
<g id="edge11" class="edge">
<title>Node15&#45;&gt;Node14</title>
<path fill="none" stroke="midnightblue" d="M389.3,-46.69C393.18,-37.59 397.68,-27.01 400.77,-19.75"/>
<polygon fill="midnightblue" stroke="midnightblue" points="386,-45.51 385.3,-56.08 392.44,-48.25 386,-45.51"/>
</g>
<!-- Node17&#45;&gt;Node16 -->
<g id="edge14" class="edge">
<title>Node17&#45;&gt;Node16</title>
<path fill="none" stroke="midnightblue" d="M700.24,-53.17C669.92,-43 626.93,-28.59 599.89,-19.52"/>
<polygon fill="midnightblue" stroke="midnightblue" points="699.4,-56.58 709.99,-56.44 701.62,-49.95 699.4,-56.58"/>
</g>
<!-- Node22&#45;&gt;Node21 -->
<g id="edge17" class="edge">
<title>Node22&#45;&gt;Node21</title>
<path fill="none" stroke="midnightblue" d="M853.74,-51.86C833.34,-41.85 805.83,-28.35 788.13,-19.65"/>
<polygon fill="midnightblue" stroke="midnightblue" points="852.31,-55.06 862.83,-56.32 855.39,-48.78 852.31,-55.06"/>
</g>
<!-- Node26&#45;&gt;Node49 -->
<g id="edge19" class="edge">
<title>Node26&#45;&gt;Node49</title>
<path fill="none" stroke="midnightblue" d="M667.89,-55.98C911.64,-24.08 1193.37,-14.41 1292.68,-11.83"/>
<polygon fill="midnightblue" stroke="midnightblue" points="667.24,-52.54 657.78,-57.32 668.15,-59.48 667.24,-52.54"/>
</g>
<!-- Node56&#45;&gt;Node7 -->
<g id="edge21" class="edge">
<title>Node56&#45;&gt;Node7</title>
<path fill="none" stroke="midnightblue" d="M218.6,-106.62C233.76,-96.76 253.38,-83.99 266.2,-75.65"/>
<polygon fill="midnightblue" stroke="midnightblue" points="216.31,-103.94 209.84,-112.32 220.13,-109.8 216.31,-103.94"/>
</g>
<!-- Node57 -->
<g id="node17" class="node">
<title>Node57</title>
<g id="a_node17"><a xlink:href="_box_8_h.html" target="_top" xlink:title=" ">
<polygon fill="white" stroke="red" points="164.5,-56.5 164.5,-75.5 210.5,-75.5 210.5,-56.5 164.5,-56.5"/>
<text text-anchor="middle" x="187.5" y="-63.5" font-family="Helvetica,sans-Serif" font-size="10.00">Box.H</text>
</a>
</g>
</g>
<!-- Node56&#45;&gt;Node57 -->
<g id="edge22" class="edge">
<title>Node56&#45;&gt;Node57</title>
<path fill="none" stroke="midnightblue" d="M193.35,-102.1C191.86,-93.14 190.14,-82.86 188.96,-75.75"/>
<polygon fill="midnightblue" stroke="midnightblue" points="189.92,-102.79 195.01,-112.08 196.82,-101.64 189.92,-102.79"/>
</g>
<!-- Node58 -->
<g id="node18" class="node">
<title>Node58</title>
<g id="a_node18"><a xlink:href="_cylinder_8_h.html" target="_top" xlink:title=" ">
<polygon fill="white" stroke="red" points="0,-56.5 0,-75.5 67,-75.5 67,-56.5 0,-56.5"/>
<text text-anchor="middle" x="33.5" y="-63.5" font-family="Helvetica,sans-Serif" font-size="10.00">Cylinder.H</text>
</a>
</g>
</g>
<!-- Node56&#45;&gt;Node58 -->
<g id="edge23" class="edge">
<title>Node56&#45;&gt;Node58</title>
<path fill="none" stroke="midnightblue" d="M160.8,-109.17C130.1,-99 86.58,-84.59 59.21,-75.52"/>
<polygon fill="midnightblue" stroke="midnightblue" points="160.08,-112.62 170.67,-112.44 162.28,-105.98 160.08,-112.62"/>
</g>
<!-- Node59 -->
<g id="node19" class="node">
<title>Node59</title>
<g id="a_node19"><a xlink:href="_sphere_8_h.html" target="_top" xlink:title=" ">
<polygon fill="white" stroke="red" points="85,-56.5 85,-75.5 146,-75.5 146,-56.5 85,-56.5"/>
<text text-anchor="middle" x="115.5" y="-63.5" font-family="Helvetica,sans-Serif" font-size="10.00">Sphere.H</text>
</a>
</g>
</g>
<!-- Node56&#45;&gt;Node59 -->
<g id="edge24" class="edge">
<title>Node56&#45;&gt;Node59</title>
<path fill="none" stroke="midnightblue" d="M174.93,-106.62C160.14,-96.76 140.99,-83.99 128.48,-75.65"/>
<polygon fill="midnightblue" stroke="midnightblue" points="173.22,-109.69 183.49,-112.32 177.11,-103.86 173.22,-109.69"/>
</g>
<!-- Node60&#45;&gt;Node7 -->
<g id="edge26" class="edge">
<title>Node60&#45;&gt;Node7</title>
<path fill="none" stroke="midnightblue" d="M314.17,-161.03C306.82,-152.97 298.65,-142.65 293.5,-132 284.46,-113.29 281.21,-88.76 280.08,-75.84"/>
<polygon fill="midnightblue" stroke="midnightblue" points="311.67,-163.47 321.12,-168.27 316.72,-158.63 311.67,-163.47"/>
</g>
<!-- Node60&#45;&gt;Node15 -->
<g id="edge28" class="edge">
<title>Node60&#45;&gt;Node15</title>
<path fill="none" stroke="midnightblue" d="M346.83,-161.03C354.18,-152.97 362.35,-142.65 367.5,-132 376.54,-113.29 379.79,-88.76 380.92,-75.84"/>
<polygon fill="midnightblue" stroke="midnightblue" points="344.28,-158.63 339.88,-168.27 349.33,-163.47 344.28,-158.63"/>
</g>
<!-- Node60&#45;&gt;Node56 -->
<g id="edge27" class="edge">
<title>Node60&#45;&gt;Node56</title>
<path fill="none" stroke="midnightblue" d="M299.82,-164.64C274.68,-154.5 239.75,-140.43 217.63,-131.52"/>
<polygon fill="midnightblue" stroke="midnightblue" points="298.68,-167.95 309.27,-168.44 301.3,-161.46 298.68,-167.95"/>
</g>
<!-- Node61 -->
<g id="node21" class="node">
<title>Node61</title>
<g id="a_node21"><a xlink:href="_i_b_ops_8_h.html" target="_top" xlink:title=" ">
<polygon fill="white" stroke="red" points="302.5,-112.5 302.5,-131.5 358.5,-131.5 358.5,-112.5 302.5,-112.5"/>
<text text-anchor="middle" x="330.5" y="-119.5" font-family="Helvetica,sans-Serif" font-size="10.00">IBOps.H</text>
</a>
</g>
</g>
<!-- Node60&#45;&gt;Node61 -->
<g id="edge29" class="edge">
<title>Node60&#45;&gt;Node61</title>
<path fill="none" stroke="midnightblue" d="M330.5,-157.8C330.5,-148.91 330.5,-138.78 330.5,-131.75"/>
<polygon fill="midnightblue" stroke="midnightblue" points="327,-158.08 330.5,-168.08 334,-158.08 327,-158.08"/>
</g>
<!-- Node61&#45;&gt;Node7 -->
<g id="edge30" class="edge">
<title>Node61&#45;&gt;Node7</title>
<path fill="none" stroke="midnightblue" d="M315.12,-104.72C306.13,-95.2 295.14,-83.56 287.76,-75.75"/>
<polygon fill="midnightblue" stroke="midnightblue" points="312.67,-107.22 322.08,-112.08 317.76,-102.41 312.67,-107.22"/>
</g>
<!-- Node61&#45;&gt;Node15 -->
<g id="edge31" class="edge">
<title>Node61&#45;&gt;Node15</title>
<path fill="none" stroke="midnightblue" d="M345.88,-104.72C354.87,-95.2 365.86,-83.56 373.24,-75.75"/>
<polygon fill="midnightblue" stroke="midnightblue" points="343.24,-102.41 338.92,-112.08 348.33,-107.22 343.24,-102.41"/>
</g>
<!-- Node62&#45;&gt;Node17 -->
<g id="edge33" class="edge">
<title>Node62&#45;&gt;Node17</title>
<path fill="none" stroke="midnightblue" d="M876.18,-166.1C848.67,-159.29 816.88,-148.57 791.5,-132 768.3,-116.86 749.25,-89.4 740.57,-75.52"/>
<polygon fill="midnightblue" stroke="midnightblue" points="875.57,-169.55 886.11,-168.43 877.17,-162.73 875.57,-169.55"/>
</g>
<!-- Node62&#45;&gt;Node22 -->
<g id="edge37" class="edge">
<title>Node62&#45;&gt;Node22</title>
<path fill="none" stroke="midnightblue" d="M934.82,-158.17C931.71,-144.75 926.46,-126.57 918.5,-112 910.76,-97.82 898.1,-84 889.54,-75.5"/>
<polygon fill="midnightblue" stroke="midnightblue" points="931.44,-159.1 936.95,-168.15 938.29,-157.64 931.44,-159.1"/>
</g>
<!-- Node63 -->
<g id="node23" class="node">
<title>Node63</title>
<g id="a_node23"><a xlink:href="_ocean_waves_ops_8_h.html" target="_top" xlink:title=" ">
<polygon fill="white" stroke="red" points="801,-112.5 801,-131.5 910,-131.5 910,-112.5 801,-112.5"/>
<text text-anchor="middle" x="855.5" y="-119.5" font-family="Helvetica,sans-Serif" font-size="10.00">OceanWavesOps.H</text>
</a>
</g>
</g>
<!-- Node62&#45;&gt;Node63 -->
<g id="edge34" class="edge">
<title>Node62&#45;&gt;Node63</title>
<path fill="none" stroke="midnightblue" d="M916.4,-162.62C901.24,-152.76 881.62,-139.99 868.8,-131.65"/>
<polygon fill="midnightblue" stroke="midnightblue" points="914.87,-165.8 925.16,-168.32 918.69,-159.94 914.87,-165.8"/>
</g>
<!-- Node62&#45;&gt;Node64 -->
<g id="edge38" class="edge">
<title>Node62&#45;&gt;Node64</title>
<path fill="none" stroke="midnightblue" d="M962.82,-163.18C980.3,-153.24 1003.33,-140.15 1018.27,-131.65"/>
<polygon fill="midnightblue" stroke="midnightblue" points="960.73,-160.34 953.76,-168.32 964.19,-166.43 960.73,-160.34"/>
</g>
<!-- Node63&#45;&gt;Node17 -->
<g id="edge35" class="edge">
<title>Node63&#45;&gt;Node17</title>
<path fill="none" stroke="midnightblue" d="M827.13,-108.23C804.68,-98.13 773.96,-84.31 754.43,-75.52"/>
<polygon fill="midnightblue" stroke="midnightblue" points="825.93,-111.53 836.49,-112.44 828.8,-105.15 825.93,-111.53"/>
</g>
<!-- Node63&#45;&gt;Node22 -->
<g id="edge36" class="edge">
<title>Node63&#45;&gt;Node22</title>
<path fill="none" stroke="midnightblue" d="M863.84,-102.98C868.08,-93.82 873.05,-83.09 876.45,-75.75"/>
<polygon fill="midnightblue" stroke="midnightblue" points="860.65,-101.54 859.63,-112.08 867.01,-104.48 860.65,-101.54"/>
</g>
<!-- Node64&#45;&gt;Node22 -->
<g id="edge40" class="edge">
<title>Node64&#45;&gt;Node22</title>
<path fill="none" stroke="midnightblue" d="M999.61,-109.04C970.82,-98.88 930.21,-84.55 904.63,-75.52"/>
<polygon fill="midnightblue" stroke="midnightblue" points="998.66,-112.42 1009.26,-112.44 1000.99,-105.81 998.66,-112.42"/>
</g>
<!-- Node65 -->
<g id="node25" class="node">
<title>Node65</title>
<g id="a_node25"><a xlink:href="_linear_waves_8_h.html" target="_top" xlink:title=" ">
<polygon fill="white" stroke="red" points="965,-56.5 965,-75.5 1054,-75.5 1054,-56.5 965,-56.5"/>
<text text-anchor="middle" x="1009.5" y="-63.5" font-family="Helvetica,sans-Serif" font-size="10.00">LinearWaves.H</text>
</a>
</g>
</g>
<!-- Node64&#45;&gt;Node65 -->
<g id="edge39" class="edge">
<title>Node64&#45;&gt;Node65</title>
<path fill="none" stroke="midnightblue" d="M1025.36,-102.69C1021.32,-93.59 1016.62,-83.01 1013.39,-75.75"/>
<polygon fill="midnightblue" stroke="midnightblue" points="1022.28,-104.37 1029.54,-112.08 1028.67,-101.52 1022.28,-104.37"/>
</g>
<!-- Node66 -->
<g id="node26" class="node">
<title>Node66</title>
<g id="a_node26"><a xlink:href="_stokes_waves_8_h.html" target="_top" xlink:title=" ">
<polygon fill="white" stroke="red" points="1072.5,-56.5 1072.5,-75.5 1164.5,-75.5 1164.5,-56.5 1072.5,-56.5"/>
<text text-anchor="middle" x="1118.5" y="-63.5" font-family="Helvetica,sans-Serif" font-size="10.00">StokesWaves.H</text>
</a>
</g>
</g>
<!-- Node64&#45;&gt;Node66 -->
<g id="edge41" class="edge">
<title>Node64&#45;&gt;Node66</title>
<path fill="none" stroke="midnightblue" d="M1055.69,-106.9C1071.28,-97 1091.63,-84.07 1104.88,-75.65"/>
<polygon fill="midnightblue" stroke="midnightblue" points="1053.72,-104.01 1047.16,-112.32 1057.47,-109.92 1053.72,-104.01"/>
</g>
<!-- Node67 -->
<g id="node27" class="node">
<title>Node67</title>
<g id="a_node27"><a xlink:href="_w2_a_waves_8_h.html" target="_top" xlink:title=" ">
<polygon fill="white" stroke="red" points="1183,-56.5 1183,-75.5 1264,-75.5 1264,-56.5 1183,-56.5"/>
<text text-anchor="middle" x="1223.5" y="-63.5" font-family="Helvetica,sans-Serif" font-size="10.00">W2AWaves.H</text>
</a>
</g>
</g>
<!-- Node64&#45;&gt;Node67 -->
<g id="edge42" class="edge">
<title>Node64&#45;&gt;Node67</title>
<path fill="none" stroke="midnightblue" d="M1073.26,-109.7C1109.12,-99.51 1161.07,-84.74 1193.53,-75.52"/>
<polygon fill="midnightblue" stroke="midnightblue" points="1072.27,-106.34 1063.61,-112.44 1074.18,-113.08 1072.27,-106.34"/>
</g>
<!-- Node69 -->
<g id="node29" class="node">
<title>Node69</title>
<g id="a_node29"><a xlink:href="_synthetic_turbulence_8cpp.html" target="_top" xlink:title=" ">
<polygon fill="white" stroke="black" points="1435,-112.5 1435,-131.5 1570,-131.5 1570,-112.5 1435,-112.5"/>
<text text-anchor="middle" x="1502.5" y="-119.5" font-family="Helvetica,sans-Serif" font-size="10.00">SyntheticTurbulence.cpp</text>
</a>
</g>
</g>
<!-- Node68&#45;&gt;Node69 -->
<g id="edge45" class="edge">
<title>Node68&#45;&gt;Node69</title>
<path fill="none" stroke="midnightblue" d="M1499.25,-158.1C1500.08,-149.14 1501.03,-138.86 1501.69,-131.75"/>
<polygon fill="midnightblue" stroke="midnightblue" points="1495.76,-157.8 1498.33,-168.08 1502.73,-158.45 1495.76,-157.8"/>
</g>
<!-- Node71 -->
<g id="node31" class="node">
<title>Node71</title>
<g id="a_node31"><a xlink:href="_d_t_u_spinner_sampler_8cpp.html" target="_top" xlink:title=" ">
<polygon fill="white" stroke="black" points="1702.5,-56.5 1702.5,-75.5 1836.5,-75.5 1836.5,-56.5 1702.5,-56.5"/>
<text text-anchor="middle" x="1769.5" y="-63.5" font-family="Helvetica,sans-Serif" font-size="10.00">DTUSpinnerSampler.cpp</text>
</a>
</g>
</g>
<!-- Node70&#45;&gt;Node71 -->
<g id="edge47" class="edge">
<title>Node70&#45;&gt;Node71</title>
<path fill="none" stroke="midnightblue" d="M1769.5,-101.8C1769.5,-92.91 1769.5,-82.78 1769.5,-75.75"/>
<polygon fill="midnightblue" stroke="midnightblue" points="1766,-102.08 1769.5,-112.08 1773,-102.08 1766,-102.08"/>
</g>
<!-- Node72&#45;&gt;Node70 -->
<g id="edge49" class="edge">
<title>Node72&#45;&gt;Node70</title>
<path fill="none" stroke="midnightblue" d="M1656.2,-164.91C1683.65,-154.75 1722.17,-140.51 1746.47,-131.52"/>
<polygon fill="midnightblue" stroke="midnightblue" points="1654.8,-161.69 1646.63,-168.44 1657.23,-168.26 1654.8,-161.69"/>
</g>
<!-- Node73 -->
<g id="node33" class="node">
<title>Node73</title>
<g id="a_node33"><a xlink:href="_lidar_sampler_8cpp.html" target="_top" xlink:title=" ">
<polygon fill="white" stroke="black" points="1588,-112.5 1588,-131.5 1689,-131.5 1689,-112.5 1588,-112.5"/>
<text text-anchor="middle" x="1638.5" y="-119.5" font-family="Helvetica,sans-Serif" font-size="10.00">LidarSampler.cpp</text>
</a>
</g>
</g>
<!-- Node72&#45;&gt;Node73 -->
<g id="edge50" class="edge">
<title>Node72&#45;&gt;Node73</title>
<path fill="none" stroke="midnightblue" d="M1628.67,-158.4C1631.18,-149.36 1634.07,-138.94 1636.07,-131.75"/>
<polygon fill="midnightblue" stroke="midnightblue" points="1625.28,-157.51 1625.98,-168.08 1632.03,-159.38 1625.28,-157.51"/>
</g>
<!-- Node76&#45;&gt;Node70 -->
<g id="edge53" class="edge">
<title>Node76&#45;&gt;Node70</title>
<path fill="none" stroke="midnightblue" d="M1772.1,-158.1C1771.44,-149.14 1770.67,-138.86 1770.15,-131.75"/>
<polygon fill="midnightblue" stroke="midnightblue" points="1768.61,-158.37 1772.84,-168.08 1775.59,-157.85 1768.61,-158.37"/>
</g>
<!-- Node76&#45;&gt;Node74 -->
<g id="edge54" class="edge">
<title>Node76&#45;&gt;Node74</title>
<path fill="none" stroke="midnightblue" d="M1802.51,-164.37C1825.73,-154.26 1857.66,-140.35 1877.94,-131.52"/>
<polygon fill="midnightblue" stroke="midnightblue" points="1800.92,-161.24 1793.15,-168.44 1803.71,-167.66 1800.92,-161.24"/>
</g>
<!-- Node103&#45;&gt;Node49 -->
<g id="edge61" class="edge">
<title>Node103&#45;&gt;Node49</title>
<path fill="none" stroke="midnightblue" d="M1296.14,-102.41C1300.19,-89.35 1305.9,-71.51 1311.5,-56 1316.13,-43.18 1322.11,-28.56 1325.87,-19.56"/>
<polygon fill="midnightblue" stroke="midnightblue" points="1292.75,-101.52 1293.16,-112.1 1299.44,-103.57 1292.75,-101.52"/>
</g>
<!-- Node103&#45;&gt;Node117 -->
<g id="edge59" class="edge">
<title>Node103&#45;&gt;Node117</title>
<path fill="none" stroke="midnightblue" d="M1311.4,-106.34C1325.41,-96.52 1343.38,-83.91 1355.16,-75.65"/>
<polygon fill="midnightblue" stroke="midnightblue" points="1309.05,-103.72 1302.87,-112.32 1313.07,-109.45 1309.05,-103.72"/>
</g>
<!-- Node117&#45;&gt;Node49 -->
<g id="edge60" class="edge">
<title>Node117&#45;&gt;Node49</title>
<path fill="none" stroke="midnightblue" d="M1355.44,-47.86C1348.86,-38.5 1340.99,-27.33 1335.66,-19.75"/>
<polygon fill="midnightblue" stroke="midnightblue" points="1352.61,-49.92 1361.23,-56.08 1358.33,-45.89 1352.61,-49.92"/>
</g>
<!-- Node111&#45;&gt;Node112 -->
<g id="edge65" class="edge">
<title>Node111&#45;&gt;Node112</title>
<path fill="none" stroke="midnightblue" d="M2576.55,-159.57C2570.19,-150.27 2562.63,-139.25 2557.5,-131.75"/>
<polygon fill="midnightblue" stroke="midnightblue" points="2573.85,-161.81 2582.39,-168.08 2579.63,-157.86 2573.85,-161.81"/>
</g>
<!-- Node121&#45;&gt;Node1 -->
<g id="edge71" class="edge">
<title>Node121&#45;&gt;Node1</title>
<path fill="none" stroke="midnightblue" d="M1738.97,-304.39C1757.85,-314.36 1781.05,-327.7 1794.35,-336.32"/>
<polygon fill="midnightblue" stroke="midnightblue" points="1740.32,-301.15 1729.84,-299.65 1737.11,-307.36 1740.32,-301.15"/>
</g>
</g>
</svg>
