<?xml version="1.0" encoding="UTF-8" standalone="no"?>
<!DOCTYPE svg PUBLIC "-//W3C//DTD SVG 1.1//EN"
 "http://www.w3.org/Graphics/SVG/1.1/DTD/svg11.dtd">
<!-- Generated by graphviz version 2.43.0 (0)
 -->
<!-- Title: vstraits.H Pages: 1 -->
<svg width="2461pt" height="420pt"
 viewBox="0.00 0.00 2461.00 420.00" xmlns="http://www.w3.org/2000/svg" xmlns:xlink="http://www.w3.org/1999/xlink">
<g id="graph0" class="graph" transform="scale(1 1) rotate(0) translate(4 416)">
<title>vstraits.H</title>
<polygon fill="white" stroke="transparent" points="-4,4 -4,-416 2457,-416 2457,4 -4,4"/>
<!-- Node1 -->
<g id="node1" class="node">
<title>Node1</title>
<g id="a_node1"><a xlink:title=" ">
<polygon fill="#bfbfbf" stroke="black" points="1623,-392.5 1623,-411.5 1687,-411.5 1687,-392.5 1623,-392.5"/>
<text text-anchor="middle" x="1655" y="-399.5" font-family="Helvetica,sans-Serif" font-size="10.00">vstraits.H</text>
</a>
</g>
</g>
<!-- Node2 -->
<g id="node2" class="node">
<title>Node2</title>
<g id="a_node2"><a xlink:href="tensor_8_h.html" target="_top" xlink:title=" ">
<polygon fill="white" stroke="black" points="1099.5,-280.5 1099.5,-299.5 1156.5,-299.5 1156.5,-280.5 1099.5,-280.5"/>
<text text-anchor="middle" x="1128" y="-287.5" font-family="Helvetica,sans-Serif" font-size="10.00">tensor.H</text>
</a>
</g>
</g>
<!-- Node1&#45;&gt;Node2 -->
<g id="edge1" class="edge">
<title>Node1&#45;&gt;Node2</title>
<path fill="none" stroke="midnightblue" d="M1612.88,-392.73C1528.12,-375.98 1330.93,-336.56 1166,-300 1162.96,-299.33 1159.78,-298.6 1156.61,-297.87"/>
<polygon fill="midnightblue" stroke="midnightblue" points="1612.4,-396.2 1622.89,-394.7 1613.76,-389.33 1612.4,-396.2"/>
</g>
<!-- Node121 -->
<g id="node41" class="node">
<title>Node121</title>
<g id="a_node41"><a xlink:href="vector_8_h.html" target="_top" xlink:title=" ">
<polygon fill="white" stroke="black" points="1514.5,-336.5 1514.5,-355.5 1571.5,-355.5 1571.5,-336.5 1514.5,-336.5"/>
<text text-anchor="middle" x="1543" y="-343.5" font-family="Helvetica,sans-Serif" font-size="10.00">vector.H</text>
</a>
</g>
</g>
<!-- Node1&#45;&gt;Node121 -->
<g id="edge65" class="edge">
<title>Node1&#45;&gt;Node121</title>
<path fill="none" stroke="midnightblue" d="M1627.75,-387.86C1606.98,-377.85 1578.98,-364.35 1560.95,-355.65"/>
<polygon fill="midnightblue" stroke="midnightblue" points="1626.48,-391.13 1637.01,-392.32 1629.52,-384.83 1626.48,-391.13"/>
</g>
<!-- Node128 -->
<g id="node48" class="node">
<title>Node128</title>
<g id="a_node48"><a xlink:href="_geostrophic_forcing_8cpp.html" target="_top" xlink:title=" ">
<polygon fill="white" stroke="black" points="1589.5,-336.5 1589.5,-355.5 1720.5,-355.5 1720.5,-336.5 1589.5,-336.5"/>
<text text-anchor="middle" x="1655" y="-343.5" font-family="Helvetica,sans-Serif" font-size="10.00">GeostrophicForcing.cpp</text>
</a>
</g>
</g>
<!-- Node1&#45;&gt;Node128 -->
<g id="edge75" class="edge">
<title>Node1&#45;&gt;Node128</title>
<path fill="none" stroke="midnightblue" d="M1655,-381.8C1655,-372.91 1655,-362.78 1655,-355.75"/>
<polygon fill="midnightblue" stroke="midnightblue" points="1651.5,-382.08 1655,-392.08 1658.5,-382.08 1651.5,-382.08"/>
</g>
<!-- Node88 -->
<g id="node49" class="node">
<title>Node88</title>
<g id="a_node49"><a xlink:href="_hurricane_forcing_8cpp.html" target="_top" xlink:title=" ">
<polygon fill="white" stroke="black" points="1738.5,-336.5 1738.5,-355.5 1857.5,-355.5 1857.5,-336.5 1738.5,-336.5"/>
<text text-anchor="middle" x="1798" y="-343.5" font-family="Helvetica,sans-Serif" font-size="10.00">HurricaneForcing.cpp</text>
</a>
</g>
</g>
<!-- Node1&#45;&gt;Node88 -->
<g id="edge76" class="edge">
<title>Node1&#45;&gt;Node88</title>
<path fill="none" stroke="midnightblue" d="M1687.03,-388.91C1713.91,-378.75 1751.64,-364.51 1775.45,-355.52"/>
<polygon fill="midnightblue" stroke="midnightblue" points="1685.78,-385.64 1677.66,-392.44 1688.25,-392.19 1685.78,-385.64"/>
</g>
<!-- Node90 -->
<g id="node50" class="node">
<title>Node90</title>
<g id="a_node50"><a xlink:href="_hurricane_temp_forcing_8cpp.html" target="_top" xlink:title=" ">
<polygon fill="white" stroke="black" points="1876,-336.5 1876,-355.5 2022,-355.5 2022,-336.5 1876,-336.5"/>
<text text-anchor="middle" x="1949" y="-343.5" font-family="Helvetica,sans-Serif" font-size="10.00">HurricaneTempForcing.cpp</text>
</a>
</g>
</g>
<!-- Node1&#45;&gt;Node90 -->
<g id="edge77" class="edge">
<title>Node1&#45;&gt;Node90</title>
<path fill="none" stroke="midnightblue" d="M1697.03,-393.28C1751.46,-383.28 1846.05,-365.91 1902.56,-355.53"/>
<polygon fill="midnightblue" stroke="midnightblue" points="1696.23,-389.87 1687.02,-395.12 1697.49,-396.75 1696.23,-389.87"/>
</g>
<!-- Node3 -->
<g id="node3" class="node">
<title>Node3</title>
<g id="a_node3"><a xlink:href="tensor_i_8_h.html" target="_top" xlink:title=" ">
<polygon fill="white" stroke="black" points="1097.5,-224.5 1097.5,-243.5 1158.5,-243.5 1158.5,-224.5 1097.5,-224.5"/>
<text text-anchor="middle" x="1128" y="-231.5" font-family="Helvetica,sans-Serif" font-size="10.00">tensorI.H</text>
</a>
</g>
</g>
<!-- Node2&#45;&gt;Node3 -->
<g id="edge2" class="edge">
<title>Node2&#45;&gt;Node3</title>
<path fill="none" stroke="midnightblue" d="M1121.53,-270.1C1120.9,-261.14 1121.34,-250.86 1122.87,-243.75"/>
<polygon fill="midnightblue" stroke="midnightblue" points="1118.07,-270.62 1122.83,-280.08 1125.01,-269.71 1118.07,-270.62"/>
</g>
<!-- Node4 -->
<g id="node4" class="node">
<title>Node4</title>
<g id="a_node4"><a xlink:href="vector__space_8_h.html" target="_top" xlink:title=" ">
<polygon fill="white" stroke="black" points="1399,-224.5 1399,-243.5 1491,-243.5 1491,-224.5 1399,-224.5"/>
<text text-anchor="middle" x="1445" y="-231.5" font-family="Helvetica,sans-Serif" font-size="10.00">vector_space.H</text>
</a>
</g>
</g>
<!-- Node2&#45;&gt;Node4 -->
<g id="edge4" class="edge">
<title>Node2&#45;&gt;Node4</title>
<path fill="none" stroke="midnightblue" d="M1166.46,-280.04C1254.44,-262.75 1345.44,-249.03 1398.9,-241.39"/>
<polygon fill="midnightblue" stroke="midnightblue" points="1165.71,-276.62 1156.59,-281.99 1167.08,-283.48 1165.71,-276.62"/>
</g>
<!-- Node3&#45;&gt;Node2 -->
<g id="edge3" class="edge">
<title>Node3&#45;&gt;Node2</title>
<path fill="none" stroke="midnightblue" d="M1134.46,-253.69C1135.11,-262.64 1134.68,-272.93 1133.17,-280.08"/>
<polygon fill="midnightblue" stroke="midnightblue" points="1137.92,-253.2 1133.13,-243.75 1130.98,-254.13 1137.92,-253.2"/>
</g>
<!-- Node5 -->
<g id="node5" class="node">
<title>Node5</title>
<g id="a_node5"><a xlink:href="_multi_parser_8_h.html" target="_top" xlink:title=" ">
<polygon fill="white" stroke="black" points="497.5,-112.5 497.5,-131.5 578.5,-131.5 578.5,-112.5 497.5,-112.5"/>
<text text-anchor="middle" x="538" y="-119.5" font-family="Helvetica,sans-Serif" font-size="10.00">MultiParser.H</text>
</a>
</g>
</g>
<!-- Node4&#45;&gt;Node5 -->
<g id="edge5" class="edge">
<title>Node4&#45;&gt;Node5</title>
<path fill="none" stroke="midnightblue" d="M1388.75,-231.27C1282.31,-227.44 1044.33,-216.25 846,-188 745.1,-173.63 627.75,-145.7 571.47,-131.59"/>
<polygon fill="midnightblue" stroke="midnightblue" points="1388.82,-234.77 1398.93,-231.63 1389.06,-227.78 1388.82,-234.77"/>
</g>
<!-- Node49 -->
<g id="node15" class="node">
<title>Node49</title>
<g id="a_node15"><a xlink:href="wing__ops_8_h.html" target="_top" xlink:title=" ">
<polygon fill="white" stroke="red" points="1174.5,-0.5 1174.5,-19.5 1247.5,-19.5 1247.5,-0.5 1174.5,-0.5"/>
<text text-anchor="middle" x="1211" y="-7.5" font-family="Helvetica,sans-Serif" font-size="10.00">wing_ops.H</text>
</a>
</g>
</g>
<!-- Node4&#45;&gt;Node49 -->
<g id="edge64" class="edge">
<title>Node4&#45;&gt;Node49</title>
<path fill="none" stroke="midnightblue" d="M1388.97,-227.9C1327.15,-221.35 1232.48,-208.36 1203,-188 1172.55,-166.97 1161.76,-148.29 1169,-112 1176.21,-75.87 1196.61,-36.5 1206.07,-19.55"/>
<polygon fill="midnightblue" stroke="midnightblue" points="1388.67,-231.38 1398.98,-228.93 1389.39,-224.42 1388.67,-231.38"/>
</g>
<!-- Node56 -->
<g id="node16" class="node">
<title>Node56</title>
<g id="a_node16"><a xlink:href="_bluff_body_8_h.html" target="_top" xlink:title=" ">
<polygon fill="white" stroke="black" points="160.5,-112.5 160.5,-131.5 233.5,-131.5 233.5,-112.5 160.5,-112.5"/>
<text text-anchor="middle" x="197" y="-119.5" font-family="Helvetica,sans-Serif" font-size="10.00">BluffBody.H</text>
</a>
</g>
</g>
<!-- Node4&#45;&gt;Node56 -->
<g id="edge20" class="edge">
<title>Node4&#45;&gt;Node56</title>
<path fill="none" stroke="midnightblue" d="M1388.64,-231.02C1158.44,-222.93 301.17,-192.5 288,-188 253.46,-176.19 220.58,-146.67 205.54,-131.82"/>
<polygon fill="midnightblue" stroke="midnightblue" points="1388.68,-234.53 1398.8,-231.38 1388.93,-227.53 1388.68,-234.53"/>
</g>
<!-- Node60 -->
<g id="node20" class="node">
<title>Node60</title>
<g id="a_node20"><a xlink:href="_i_b_types_8_h.html" target="_top" xlink:title=" ">
<polygon fill="white" stroke="black" points="297.5,-168.5 297.5,-187.5 362.5,-187.5 362.5,-168.5 297.5,-168.5"/>
<text text-anchor="middle" x="330" y="-175.5" font-family="Helvetica,sans-Serif" font-size="10.00">IBTypes.H</text>
</a>
</g>
</g>
<!-- Node4&#45;&gt;Node60 -->
<g id="edge25" class="edge">
<title>Node4&#45;&gt;Node60</title>
<path fill="none" stroke="midnightblue" d="M1388.6,-230.27C1188.85,-220.59 518.74,-188.14 362.68,-180.58"/>
<polygon fill="midnightblue" stroke="midnightblue" points="1388.7,-233.78 1398.86,-230.77 1389.04,-226.79 1388.7,-233.78"/>
</g>
<!-- Node62 -->
<g id="node22" class="node">
<title>Node62</title>
<g id="a_node22"><a xlink:href="_ocean_waves_types_8_h.html" target="_top" xlink:title=" ">
<polygon fill="white" stroke="black" points="855,-168.5 855,-187.5 973,-187.5 973,-168.5 855,-168.5"/>
<text text-anchor="middle" x="914" y="-175.5" font-family="Helvetica,sans-Serif" font-size="10.00">OceanWavesTypes.H</text>
</a>
</g>
</g>
<!-- Node4&#45;&gt;Node62 -->
<g id="edge32" class="edge">
<title>Node4&#45;&gt;Node62</title>
<path fill="none" stroke="midnightblue" d="M1388.8,-227.28C1287.78,-217.01 1076.45,-195.52 973.25,-185.03"/>
<polygon fill="midnightblue" stroke="midnightblue" points="1388.5,-230.77 1398.81,-228.3 1389.21,-223.81 1388.5,-230.77"/>
</g>
<!-- Node64 -->
<g id="node24" class="node">
<title>Node64</title>
<g id="a_node24"><a xlink:href="_relaxation_zones_8_h.html" target="_top" xlink:title=" ">
<polygon fill="white" stroke="red" points="954,-112.5 954,-131.5 1064,-131.5 1064,-112.5 954,-112.5"/>
<text text-anchor="middle" x="1009" y="-119.5" font-family="Helvetica,sans-Serif" font-size="10.00">RelaxationZones.H</text>
</a>
</g>
</g>
<!-- Node4&#45;&gt;Node64 -->
<g id="edge42" class="edge">
<title>Node4&#45;&gt;Node64</title>
<path fill="none" stroke="midnightblue" d="M1388.81,-230.35C1325.92,-226.12 1221.62,-215.31 1136,-188 1091.87,-173.92 1044.45,-145.73 1022.09,-131.55"/>
<polygon fill="midnightblue" stroke="midnightblue" points="1388.71,-233.85 1398.92,-231 1389.16,-226.87 1388.71,-233.85"/>
</g>
<!-- Node68 -->
<g id="node27" class="node">
<title>Node68</title>
<g id="a_node27"><a xlink:href="_synthetic_turbulence_8_h.html" target="_top" xlink:title=" ">
<polygon fill="white" stroke="red" points="1254.5,-168.5 1254.5,-187.5 1379.5,-187.5 1379.5,-168.5 1254.5,-168.5"/>
<text text-anchor="middle" x="1317" y="-175.5" font-family="Helvetica,sans-Serif" font-size="10.00">SyntheticTurbulence.H</text>
</a>
</g>
</g>
<!-- Node4&#45;&gt;Node68 -->
<g id="edge43" class="edge">
<title>Node4&#45;&gt;Node68</title>
<path fill="none" stroke="midnightblue" d="M1415.38,-220.5C1391.38,-210.38 1358.22,-196.39 1337.19,-187.52"/>
<polygon fill="midnightblue" stroke="midnightblue" points="1414.14,-223.78 1424.72,-224.44 1416.86,-217.33 1414.14,-223.78"/>
</g>
<!-- Node70 -->
<g id="node28" class="node">
<title>Node70</title>
<g id="a_node28"><a xlink:href="_d_t_u_spinner_sampler_8_h.html" target="_top" xlink:title=" ">
<polygon fill="white" stroke="red" points="1419.5,-112.5 1419.5,-131.5 1544.5,-131.5 1544.5,-112.5 1419.5,-112.5"/>
<text text-anchor="middle" x="1482" y="-119.5" font-family="Helvetica,sans-Serif" font-size="10.00">DTUSpinnerSampler.H</text>
</a>
</g>
</g>
<!-- Node4&#45;&gt;Node70 -->
<g id="edge44" class="edge">
<title>Node4&#45;&gt;Node70</title>
<path fill="none" stroke="midnightblue" d="M1433.66,-215.55C1426.46,-202.12 1419.74,-183.33 1427,-168 1434.77,-151.61 1451.75,-139.21 1464.8,-131.61"/>
<polygon fill="midnightblue" stroke="midnightblue" points="1430.7,-217.42 1438.8,-224.25 1436.73,-213.86 1430.7,-217.42"/>
</g>
<!-- Node72 -->
<g id="node29" class="node">
<title>Node72</title>
<g id="a_node29"><a xlink:href="_lidar_sampler_8_h.html" target="_top" xlink:title=" ">
<polygon fill="white" stroke="red" points="1436.5,-168.5 1436.5,-187.5 1527.5,-187.5 1527.5,-168.5 1436.5,-168.5"/>
<text text-anchor="middle" x="1482" y="-175.5" font-family="Helvetica,sans-Serif" font-size="10.00">LidarSampler.H</text>
</a>
</g>
</g>
<!-- Node4&#45;&gt;Node72 -->
<g id="edge45" class="edge">
<title>Node4&#45;&gt;Node72</title>
<path fill="none" stroke="midnightblue" d="M1456.95,-215.57C1463.31,-206.27 1470.87,-195.25 1476,-187.75"/>
<polygon fill="midnightblue" stroke="midnightblue" points="1453.87,-213.86 1451.11,-224.08 1459.65,-217.81 1453.87,-213.86"/>
</g>
<!-- Node74 -->
<g id="node30" class="node">
<title>Node74</title>
<g id="a_node30"><a xlink:href="_radar_sampler_8_h.html" target="_top" xlink:title=" ">
<polygon fill="white" stroke="red" points="1592.5,-112.5 1592.5,-131.5 1687.5,-131.5 1687.5,-112.5 1592.5,-112.5"/>
<text text-anchor="middle" x="1640" y="-119.5" font-family="Helvetica,sans-Serif" font-size="10.00">RadarSampler.H</text>
</a>
</g>
</g>
<!-- Node4&#45;&gt;Node74 -->
<g id="edge47" class="edge">
<title>Node4&#45;&gt;Node74</title>
<path fill="none" stroke="midnightblue" d="M1501.5,-228.41C1555.61,-222.71 1631.66,-210.81 1650,-188 1663.17,-171.63 1652.24,-145.21 1645.05,-131.65"/>
<polygon fill="midnightblue" stroke="midnightblue" points="1500.93,-224.95 1491.33,-229.44 1501.64,-231.92 1500.93,-224.95"/>
</g>
<!-- Node76 -->
<g id="node31" class="node">
<title>Node76</title>
<g id="a_node31"><a xlink:href="_sampling_utils_8_h.html" target="_top" xlink:title=" ">
<polygon fill="white" stroke="red" points="1545.5,-168.5 1545.5,-187.5 1640.5,-187.5 1640.5,-168.5 1545.5,-168.5"/>
<text text-anchor="middle" x="1593" y="-175.5" font-family="Helvetica,sans-Serif" font-size="10.00">SamplingUtils.H</text>
</a>
</g>
</g>
<!-- Node4&#45;&gt;Node76 -->
<g id="edge48" class="edge">
<title>Node4&#45;&gt;Node76</title>
<path fill="none" stroke="midnightblue" d="M1478.15,-220.91C1505.97,-210.75 1545.02,-196.51 1569.66,-187.52"/>
<polygon fill="midnightblue" stroke="midnightblue" points="1476.65,-217.73 1468.45,-224.44 1479.04,-224.3 1476.65,-217.73"/>
</g>
<!-- Node78 -->
<g id="node32" class="node">
<title>Node78</title>
<g id="a_node32"><a xlink:href="_box_refiner_8_h.html" target="_top" xlink:title=" ">
<polygon fill="white" stroke="red" points="1697,-168.5 1697,-187.5 1777,-187.5 1777,-168.5 1697,-168.5"/>
<text text-anchor="middle" x="1737" y="-175.5" font-family="Helvetica,sans-Serif" font-size="10.00">BoxRefiner.H</text>
</a>
</g>
</g>
<!-- Node4&#45;&gt;Node78 -->
<g id="edge51" class="edge">
<title>Node4&#45;&gt;Node78</title>
<path fill="none" stroke="midnightblue" d="M1501.24,-222.6C1558.49,-212.01 1645.84,-195.86 1696.59,-186.47"/>
<polygon fill="midnightblue" stroke="midnightblue" points="1500.47,-219.18 1491.27,-224.44 1501.74,-226.07 1500.47,-219.18"/>
</g>
<!-- Node80 -->
<g id="node33" class="node">
<title>Node80</title>
<g id="a_node33"><a xlink:href="_cylinder_refiner_8_h.html" target="_top" xlink:title=" ">
<polygon fill="white" stroke="red" points="1795.5,-168.5 1795.5,-187.5 1896.5,-187.5 1896.5,-168.5 1795.5,-168.5"/>
<text text-anchor="middle" x="1846" y="-175.5" font-family="Helvetica,sans-Serif" font-size="10.00">CylinderRefiner.H</text>
</a>
</g>
</g>
<!-- Node4&#45;&gt;Node80 -->
<g id="edge52" class="edge">
<title>Node4&#45;&gt;Node80</title>
<path fill="none" stroke="midnightblue" d="M1501.1,-225.91C1568.71,-217.28 1685.75,-202.13 1786,-188 1789.02,-187.57 1792.13,-187.13 1795.27,-186.67"/>
<polygon fill="midnightblue" stroke="midnightblue" points="1500.57,-222.45 1491.09,-227.18 1501.45,-229.39 1500.57,-222.45"/>
</g>
<!-- Node82 -->
<g id="node34" class="node">
<title>Node82</title>
<g id="a_node34"><a xlink:href="_a_b_l_modulated_power_law_8_h.html" target="_top" xlink:title=" ">
<polygon fill="white" stroke="red" points="1915,-168.5 1915,-187.5 2061,-187.5 2061,-168.5 1915,-168.5"/>
<text text-anchor="middle" x="1988" y="-175.5" font-family="Helvetica,sans-Serif" font-size="10.00">ABLModulatedPowerLaw.H</text>
</a>
</g>
</g>
<!-- Node4&#45;&gt;Node82 -->
<g id="edge53" class="edge">
<title>Node4&#45;&gt;Node82</title>
<path fill="none" stroke="midnightblue" d="M1501.31,-227.72C1588.2,-219.53 1760.15,-203.12 1906,-188 1908.85,-187.7 1911.75,-187.4 1914.69,-187.09"/>
<polygon fill="midnightblue" stroke="midnightblue" points="1500.78,-224.26 1491.15,-228.68 1501.43,-231.23 1500.78,-224.26"/>
</g>
<!-- Node103 -->
<g id="node35" class="node">
<title>Node103</title>
<g id="a_node35"><a xlink:href="actuator__types_8_h.html" target="_top" xlink:title=" ">
<polygon fill="white" stroke="red" points="1178,-112.5 1178,-131.5 1278,-131.5 1278,-112.5 1178,-112.5"/>
<text text-anchor="middle" x="1228" y="-119.5" font-family="Helvetica,sans-Serif" font-size="10.00">actuator_types.H</text>
</a>
</g>
</g>
<!-- Node4&#45;&gt;Node103 -->
<g id="edge54" class="edge">
<title>Node4&#45;&gt;Node103</title>
<path fill="none" stroke="midnightblue" d="M1388.77,-230.14C1327.12,-225.69 1233.99,-214.64 1212,-188 1198.39,-171.51 1212.61,-145.14 1221.68,-131.62"/>
<polygon fill="midnightblue" stroke="midnightblue" points="1388.54,-233.63 1398.76,-230.82 1389.02,-226.65 1388.54,-233.63"/>
</g>
<!-- Node117 -->
<g id="node36" class="node">
<title>Node117</title>
<g id="a_node36"><a xlink:href="_actuator_wing_8_h.html" target="_top" xlink:title=" ">
<polygon fill="white" stroke="red" points="1258.5,-56.5 1258.5,-75.5 1351.5,-75.5 1351.5,-56.5 1258.5,-56.5"/>
<text text-anchor="middle" x="1305" y="-63.5" font-family="Helvetica,sans-Serif" font-size="10.00">ActuatorWing.H</text>
</a>
</g>
</g>
<!-- Node4&#45;&gt;Node117 -->
<g id="edge63" class="edge">
<title>Node4&#45;&gt;Node117</title>
<path fill="none" stroke="midnightblue" d="M1388.6,-228.07C1335.89,-222.16 1262.72,-210.15 1245,-188 1221.09,-158.12 1283.62,-137.31 1287,-132 1298.43,-114.01 1302.71,-88.75 1304.22,-75.65"/>
<polygon fill="midnightblue" stroke="midnightblue" points="1388.53,-231.58 1398.85,-229.17 1389.28,-224.62 1388.53,-231.58"/>
</g>
<!-- Node118 -->
<g id="node37" class="node">
<title>Node118</title>
<g id="a_node37"><a xlink:href="actuator__utils_8_h.html" target="_top" xlink:title=" ">
<polygon fill="white" stroke="red" points="2079,-168.5 2079,-187.5 2173,-187.5 2173,-168.5 2079,-168.5"/>
<text text-anchor="middle" x="2126" y="-175.5" font-family="Helvetica,sans-Serif" font-size="10.00">actuator_utils.H</text>
</a>
</g>
</g>
<!-- Node4&#45;&gt;Node118 -->
<g id="edge58" class="edge">
<title>Node4&#45;&gt;Node118</title>
<path fill="none" stroke="midnightblue" d="M1501.17,-230.61C1610.8,-225.57 1860.89,-212.28 2070,-188 2072.93,-187.66 2075.95,-187.27 2078.99,-186.86"/>
<polygon fill="midnightblue" stroke="midnightblue" points="1500.83,-227.12 1491,-231.07 1501.15,-234.11 1500.83,-227.12"/>
</g>
<!-- Node120 -->
<g id="node38" class="node">
<title>Node120</title>
<g id="a_node38"><a xlink:href="_actuator_container_8_h.html" target="_top" xlink:title=" ">
<polygon fill="white" stroke="red" points="2191.5,-168.5 2191.5,-187.5 2306.5,-187.5 2306.5,-168.5 2191.5,-168.5"/>
<text text-anchor="middle" x="2249" y="-175.5" font-family="Helvetica,sans-Serif" font-size="10.00">ActuatorContainer.H</text>
</a>
</g>
</g>
<!-- Node4&#45;&gt;Node120 -->
<g id="edge59" class="edge">
<title>Node4&#45;&gt;Node120</title>
<path fill="none" stroke="midnightblue" d="M1501.58,-230.95C1625.23,-226.15 1928.79,-212.7 2182,-188 2185.04,-187.7 2188.15,-187.37 2191.29,-187.02"/>
<polygon fill="midnightblue" stroke="midnightblue" points="1501.09,-227.46 1491.23,-231.34 1501.35,-234.46 1501.09,-227.46"/>
</g>
<!-- Node111 -->
<g id="node39" class="node">
<title>Node111</title>
<g id="a_node39"><a xlink:href="_actuator_disk_8_h.html" target="_top" xlink:title=" ">
<polygon fill="white" stroke="red" points="2363,-168.5 2363,-187.5 2453,-187.5 2453,-168.5 2363,-168.5"/>
<text text-anchor="middle" x="2408" y="-175.5" font-family="Helvetica,sans-Serif" font-size="10.00">ActuatorDisk.H</text>
</a>
</g>
</g>
<!-- Node4&#45;&gt;Node111 -->
<g id="edge60" class="edge">
<title>Node4&#45;&gt;Node111</title>
<path fill="none" stroke="midnightblue" d="M1501.46,-232.18C1643.93,-229.68 2029.45,-220.24 2349,-188 2353.54,-187.54 2358.26,-186.98 2362.96,-186.35"/>
<polygon fill="midnightblue" stroke="midnightblue" points="1501.16,-228.69 1491.22,-232.36 1501.28,-235.69 1501.16,-228.69"/>
</g>
<!-- Node112 -->
<g id="node40" class="node">
<title>Node112</title>
<g id="a_node40"><a xlink:href="_joukowsky_8_h.html" target="_top" xlink:title=" ">
<polygon fill="white" stroke="red" points="2332.5,-112.5 2332.5,-131.5 2409.5,-131.5 2409.5,-112.5 2332.5,-112.5"/>
<text text-anchor="middle" x="2371" y="-119.5" font-family="Helvetica,sans-Serif" font-size="10.00">Joukowsky.H</text>
</a>
</g>
</g>
<!-- Node4&#45;&gt;Node112 -->
<g id="edge62" class="edge">
<title>Node4&#45;&gt;Node112</title>
<path fill="none" stroke="midnightblue" d="M1501.23,-232.67C1682.4,-231.26 2243.34,-224.01 2316,-188 2340.9,-175.66 2358.89,-146.39 2366.69,-131.71"/>
<polygon fill="midnightblue" stroke="midnightblue" points="1501.09,-229.17 1491.11,-232.75 1501.14,-236.17 1501.09,-229.17"/>
</g>
<!-- Node6 -->
<g id="node6" class="node">
<title>Node6</title>
<g id="a_node6"><a xlink:href="bluff__body__ops_8cpp.html" target="_top" xlink:title=" ">
<polygon fill="white" stroke="black" points="250,-0.5 250,-19.5 360,-19.5 360,-0.5 250,-0.5"/>
<text text-anchor="middle" x="305" y="-7.5" font-family="Helvetica,sans-Serif" font-size="10.00">bluff_body_ops.cpp</text>
</a>
</g>
</g>
<!-- Node5&#45;&gt;Node6 -->
<g id="edge6" class="edge">
<title>Node5&#45;&gt;Node6</title>
<path fill="none" stroke="midnightblue" d="M513.61,-107.65C497.48,-98.78 475.91,-86.81 457,-76 441.78,-67.3 438.8,-63.59 423,-56 392.37,-41.28 355.57,-27.89 331.31,-19.61"/>
<polygon fill="midnightblue" stroke="midnightblue" points="511.96,-110.74 522.41,-112.49 515.33,-104.6 511.96,-110.74"/>
</g>
<!-- Node7 -->
<g id="node7" class="node">
<title>Node7</title>
<g id="a_node7"><a xlink:href="bluff__body__ops_8_h.html" target="_top" xlink:title=" ">
<polygon fill="white" stroke="red" points="228.5,-56.5 228.5,-75.5 329.5,-75.5 329.5,-56.5 228.5,-56.5"/>
<text text-anchor="middle" x="279" y="-63.5" font-family="Helvetica,sans-Serif" font-size="10.00">bluff_body_ops.H</text>
</a>
</g>
</g>
<!-- Node5&#45;&gt;Node7 -->
<g id="edge7" class="edge">
<title>Node5&#45;&gt;Node7</title>
<path fill="none" stroke="midnightblue" d="M487.19,-110.41C438.28,-100.21 365.24,-84.98 319.94,-75.54"/>
<polygon fill="midnightblue" stroke="midnightblue" points="486.74,-113.89 497.25,-112.5 488.17,-107.04 486.74,-113.89"/>
</g>
<!-- Node14 -->
<g id="node8" class="node">
<title>Node14</title>
<g id="a_node8"><a xlink:href="_i_b_8cpp.html" target="_top" xlink:title=" ">
<polygon fill="white" stroke="black" points="380.5,-0.5 380.5,-19.5 427.5,-19.5 427.5,-0.5 380.5,-0.5"/>
<text text-anchor="middle" x="404" y="-7.5" font-family="Helvetica,sans-Serif" font-size="10.00">IB.cpp</text>
</a>
</g>
</g>
<!-- Node5&#45;&gt;Node14 -->
<g id="edge9" class="edge">
<title>Node5&#45;&gt;Node14</title>
<path fill="none" stroke="midnightblue" d="M519.5,-105.82C490.96,-82.39 437.12,-38.19 414.47,-19.59"/>
<polygon fill="midnightblue" stroke="midnightblue" points="517.54,-108.73 527.49,-112.37 521.98,-103.32 517.54,-108.73"/>
</g>
<!-- Node15 -->
<g id="node9" class="node">
<title>Node15</title>
<g id="a_node9"><a xlink:href="_i_b_model_8_h.html" target="_top" xlink:title=" ">
<polygon fill="white" stroke="red" points="347.5,-56.5 347.5,-75.5 414.5,-75.5 414.5,-56.5 347.5,-56.5"/>
<text text-anchor="middle" x="381" y="-63.5" font-family="Helvetica,sans-Serif" font-size="10.00">IBModel.H</text>
</a>
</g>
</g>
<!-- Node5&#45;&gt;Node15 -->
<g id="edge10" class="edge">
<title>Node5&#45;&gt;Node15</title>
<path fill="none" stroke="midnightblue" d="M503.61,-109.17C474.05,-99 432.13,-84.59 405.76,-75.52"/>
<polygon fill="midnightblue" stroke="midnightblue" points="502.53,-112.5 513.12,-112.44 504.8,-105.88 502.53,-112.5"/>
</g>
<!-- Node16 -->
<g id="node10" class="node">
<title>Node16</title>
<g id="a_node10"><a xlink:href="_ocean_waves_8cpp.html" target="_top" xlink:title=" ">
<polygon fill="white" stroke="black" points="524,-0.5 524,-19.5 624,-19.5 624,-0.5 524,-0.5"/>
<text text-anchor="middle" x="574" y="-7.5" font-family="Helvetica,sans-Serif" font-size="10.00">OceanWaves.cpp</text>
</a>
</g>
</g>
<!-- Node5&#45;&gt;Node16 -->
<g id="edge12" class="edge">
<title>Node5&#45;&gt;Node16</title>
<path fill="none" stroke="midnightblue" d="M536.89,-102.04C536.73,-88.78 537.75,-70.85 543,-56 548,-41.87 558.64,-28.04 566.05,-19.52"/>
<polygon fill="midnightblue" stroke="midnightblue" points="533.4,-102.43 537.26,-112.29 540.4,-102.17 533.4,-102.43"/>
</g>
<!-- Node17 -->
<g id="node11" class="node">
<title>Node17</title>
<g id="a_node11"><a xlink:href="_ocean_waves_model_8_h.html" target="_top" xlink:title=" ">
<polygon fill="white" stroke="red" points="675,-56.5 675,-75.5 795,-75.5 795,-56.5 675,-56.5"/>
<text text-anchor="middle" x="735" y="-63.5" font-family="Helvetica,sans-Serif" font-size="10.00">OceanWavesModel.H</text>
</a>
</g>
</g>
<!-- Node5&#45;&gt;Node17 -->
<g id="edge13" class="edge">
<title>Node5&#45;&gt;Node17</title>
<path fill="none" stroke="midnightblue" d="M579.23,-109.7C616.41,-99.51 670.27,-84.74 703.93,-75.52"/>
<polygon fill="midnightblue" stroke="midnightblue" points="577.93,-106.42 569.22,-112.44 579.78,-113.18 577.93,-106.42"/>
</g>
<!-- Node21 -->
<g id="node12" class="node">
<title>Node21</title>
<g id="a_node12"><a xlink:href="relaxation__zones__ops_8cpp.html" target="_top" xlink:title=" ">
<polygon fill="white" stroke="black" points="698.5,-0.5 698.5,-19.5 841.5,-19.5 841.5,-0.5 698.5,-0.5"/>
<text text-anchor="middle" x="770" y="-7.5" font-family="Helvetica,sans-Serif" font-size="10.00">relaxation_zones_ops.cpp</text>
</a>
</g>
</g>
<!-- Node5&#45;&gt;Node21 -->
<g id="edge15" class="edge">
<title>Node5&#45;&gt;Node21</title>
<path fill="none" stroke="midnightblue" d="M544.07,-102.68C549.93,-87.86 560.25,-67.6 576,-56 611.22,-30.06 659,-18.77 698.33,-13.98"/>
<polygon fill="midnightblue" stroke="midnightblue" points="540.69,-101.72 540.58,-112.31 547.28,-104.1 540.69,-101.72"/>
</g>
<!-- Node22 -->
<g id="node13" class="node">
<title>Node22</title>
<g id="a_node13"><a xlink:href="relaxation__zones__ops_8_h.html" target="_top" xlink:title=" ">
<polygon fill="white" stroke="red" points="813.5,-56.5 813.5,-75.5 946.5,-75.5 946.5,-56.5 813.5,-56.5"/>
<text text-anchor="middle" x="880" y="-63.5" font-family="Helvetica,sans-Serif" font-size="10.00">relaxation_zones_ops.H</text>
</a>
</g>
</g>
<!-- Node5&#45;&gt;Node22 -->
<g id="edge16" class="edge">
<title>Node5&#45;&gt;Node22</title>
<path fill="none" stroke="midnightblue" d="M588.76,-112.98C652.37,-102.94 760.9,-85.81 825.99,-75.53"/>
<polygon fill="midnightblue" stroke="midnightblue" points="587.91,-109.58 578.57,-114.59 589,-116.49 587.91,-109.58"/>
</g>
<!-- Node26 -->
<g id="node14" class="node">
<title>Node26</title>
<g id="a_node14"><a xlink:href="_act_parser_8_h.html" target="_top" xlink:title=" ">
<polygon fill="white" stroke="red" points="585,-56.5 585,-75.5 657,-75.5 657,-56.5 585,-56.5"/>
<text text-anchor="middle" x="621" y="-63.5" font-family="Helvetica,sans-Serif" font-size="10.00">ActParser.H</text>
</a>
</g>
</g>
<!-- Node5&#45;&gt;Node26 -->
<g id="edge18" class="edge">
<title>Node5&#45;&gt;Node26</title>
<path fill="none" stroke="midnightblue" d="M560.1,-106.62C575.26,-96.76 594.88,-83.99 607.7,-75.65"/>
<polygon fill="midnightblue" stroke="midnightblue" points="557.81,-103.94 551.34,-112.32 561.63,-109.8 557.81,-103.94"/>
</g>
<!-- Node7&#45;&gt;Node6 -->
<g id="edge8" class="edge">
<title>Node7&#45;&gt;Node6</title>
<path fill="none" stroke="midnightblue" d="M287.67,-46.98C292.09,-37.82 297.25,-27.09 300.79,-19.75"/>
<polygon fill="midnightblue" stroke="midnightblue" points="284.48,-45.55 283.29,-56.08 290.79,-48.59 284.48,-45.55"/>
</g>
<!-- Node15&#45;&gt;Node14 -->
<g id="edge11" class="edge">
<title>Node15&#45;&gt;Node14</title>
<path fill="none" stroke="midnightblue" d="M388.8,-46.69C392.68,-37.59 397.18,-27.01 400.27,-19.75"/>
<polygon fill="midnightblue" stroke="midnightblue" points="385.5,-45.51 384.8,-56.08 391.94,-48.25 385.5,-45.51"/>
</g>
<!-- Node17&#45;&gt;Node16 -->
<g id="edge14" class="edge">
<title>Node17&#45;&gt;Node16</title>
<path fill="none" stroke="midnightblue" d="M699.74,-53.17C669.42,-43 626.43,-28.59 599.39,-19.52"/>
<polygon fill="midnightblue" stroke="midnightblue" points="698.9,-56.58 709.49,-56.44 701.12,-49.95 698.9,-56.58"/>
</g>
<!-- Node22&#45;&gt;Node21 -->
<g id="edge17" class="edge">
<title>Node22&#45;&gt;Node21</title>
<path fill="none" stroke="midnightblue" d="M853.24,-51.86C832.84,-41.85 805.33,-28.35 787.63,-19.65"/>
<polygon fill="midnightblue" stroke="midnightblue" points="851.81,-55.06 862.33,-56.32 854.89,-48.78 851.81,-55.06"/>
</g>
<!-- Node26&#45;&gt;Node49 -->
<g id="edge19" class="edge">
<title>Node26&#45;&gt;Node49</title>
<path fill="none" stroke="midnightblue" d="M667.23,-55.98C863.98,-28.78 1088.04,-16.57 1174.48,-12.56"/>
<polygon fill="midnightblue" stroke="midnightblue" points="666.71,-52.52 657.29,-57.37 667.68,-59.45 666.71,-52.52"/>
</g>
<!-- Node56&#45;&gt;Node7 -->
<g id="edge21" class="edge">
<title>Node56&#45;&gt;Node7</title>
<path fill="none" stroke="midnightblue" d="M218.83,-106.62C233.81,-96.76 253.2,-83.99 265.86,-75.65"/>
<polygon fill="midnightblue" stroke="midnightblue" points="216.6,-103.9 210.17,-112.32 220.45,-109.75 216.6,-103.9"/>
</g>
<!-- Node57 -->
<g id="node17" class="node">
<title>Node57</title>
<g id="a_node17"><a xlink:href="_box_8_h.html" target="_top" xlink:title=" ">
<polygon fill="white" stroke="red" points="0,-56.5 0,-75.5 46,-75.5 46,-56.5 0,-56.5"/>
<text text-anchor="middle" x="23" y="-63.5" font-family="Helvetica,sans-Serif" font-size="10.00">Box.H</text>
</a>
</g>
</g>
<!-- Node56&#45;&gt;Node57 -->
<g id="edge22" class="edge">
<title>Node56&#45;&gt;Node57</title>
<path fill="none" stroke="midnightblue" d="M159.73,-109.43C125.33,-98.76 75.3,-83.23 46.27,-74.22"/>
<polygon fill="midnightblue" stroke="midnightblue" points="158.84,-112.82 169.43,-112.44 160.92,-106.14 158.84,-112.82"/>
</g>
<!-- Node58 -->
<g id="node18" class="node">
<title>Node58</title>
<g id="a_node18"><a xlink:href="_cylinder_8_h.html" target="_top" xlink:title=" ">
<polygon fill="white" stroke="red" points="64.5,-56.5 64.5,-75.5 131.5,-75.5 131.5,-56.5 64.5,-56.5"/>
<text text-anchor="middle" x="98" y="-63.5" font-family="Helvetica,sans-Serif" font-size="10.00">Cylinder.H</text>
</a>
</g>
</g>
<!-- Node56&#45;&gt;Node58 -->
<g id="edge23" class="edge">
<title>Node56&#45;&gt;Node58</title>
<path fill="none" stroke="midnightblue" d="M172.16,-107.45C153.89,-97.48 129.58,-84.23 113.87,-75.65"/>
<polygon fill="midnightblue" stroke="midnightblue" points="170.64,-110.61 181.09,-112.32 173.99,-104.46 170.64,-110.61"/>
</g>
<!-- Node59 -->
<g id="node19" class="node">
<title>Node59</title>
<g id="a_node19"><a xlink:href="_sphere_8_h.html" target="_top" xlink:title=" ">
<polygon fill="white" stroke="red" points="149.5,-56.5 149.5,-75.5 210.5,-75.5 210.5,-56.5 149.5,-56.5"/>
<text text-anchor="middle" x="180" y="-63.5" font-family="Helvetica,sans-Serif" font-size="10.00">Sphere.H</text>
</a>
</g>
</g>
<!-- Node56&#45;&gt;Node59 -->
<g id="edge24" class="edge">
<title>Node56&#45;&gt;Node59</title>
<path fill="none" stroke="midnightblue" d="M191.14,-102.4C188.3,-93.36 185.02,-82.94 182.75,-75.75"/>
<polygon fill="midnightblue" stroke="midnightblue" points="187.85,-103.6 194.19,-112.08 194.53,-101.49 187.85,-103.6"/>
</g>
<!-- Node60&#45;&gt;Node7 -->
<g id="edge26" class="edge">
<title>Node60&#45;&gt;Node7</title>
<path fill="none" stroke="midnightblue" d="M313.67,-161.03C306.32,-152.97 298.15,-142.65 293,-132 283.96,-113.29 280.71,-88.76 279.58,-75.84"/>
<polygon fill="midnightblue" stroke="midnightblue" points="311.17,-163.47 320.62,-168.27 316.22,-158.63 311.17,-163.47"/>
</g>
<!-- Node60&#45;&gt;Node15 -->
<g id="edge28" class="edge">
<title>Node60&#45;&gt;Node15</title>
<path fill="none" stroke="midnightblue" d="M346.33,-161.03C353.68,-152.97 361.85,-142.65 367,-132 376.04,-113.29 379.29,-88.76 380.42,-75.84"/>
<polygon fill="midnightblue" stroke="midnightblue" points="343.78,-158.63 339.38,-168.27 348.83,-163.47 343.78,-158.63"/>
</g>
<!-- Node60&#45;&gt;Node56 -->
<g id="edge27" class="edge">
<title>Node60&#45;&gt;Node56</title>
<path fill="none" stroke="midnightblue" d="M299.55,-164.64C274.59,-154.5 239.92,-140.43 217.98,-131.52"/>
<polygon fill="midnightblue" stroke="midnightblue" points="298.34,-167.92 308.93,-168.44 300.98,-161.44 298.34,-167.92"/>
</g>
<!-- Node61 -->
<g id="node21" class="node">
<title>Node61</title>
<g id="a_node21"><a xlink:href="_i_b_ops_8_h.html" target="_top" xlink:title=" ">
<polygon fill="white" stroke="red" points="302,-112.5 302,-131.5 358,-131.5 358,-112.5 302,-112.5"/>
<text text-anchor="middle" x="330" y="-119.5" font-family="Helvetica,sans-Serif" font-size="10.00">IBOps.H</text>
</a>
</g>
</g>
<!-- Node60&#45;&gt;Node61 -->
<g id="edge29" class="edge">
<title>Node60&#45;&gt;Node61</title>
<path fill="none" stroke="midnightblue" d="M330,-157.8C330,-148.91 330,-138.78 330,-131.75"/>
<polygon fill="midnightblue" stroke="midnightblue" points="326.5,-158.08 330,-168.08 333.5,-158.08 326.5,-158.08"/>
</g>
<!-- Node61&#45;&gt;Node7 -->
<g id="edge30" class="edge">
<title>Node61&#45;&gt;Node7</title>
<path fill="none" stroke="midnightblue" d="M314.62,-104.72C305.63,-95.2 294.64,-83.56 287.26,-75.75"/>
<polygon fill="midnightblue" stroke="midnightblue" points="312.17,-107.22 321.58,-112.08 317.26,-102.41 312.17,-107.22"/>
</g>
<!-- Node61&#45;&gt;Node15 -->
<g id="edge31" class="edge">
<title>Node61&#45;&gt;Node15</title>
<path fill="none" stroke="midnightblue" d="M345.38,-104.72C354.37,-95.2 365.36,-83.56 372.74,-75.75"/>
<polygon fill="midnightblue" stroke="midnightblue" points="342.74,-102.41 338.42,-112.08 347.83,-107.22 342.74,-102.41"/>
</g>
<!-- Node62&#45;&gt;Node17 -->
<g id="edge33" class="edge">
<title>Node62&#45;&gt;Node17</title>
<path fill="none" stroke="midnightblue" d="M844.89,-167.88C818.16,-161.47 788.81,-150.56 767,-132 749.18,-116.84 740.36,-89.39 736.87,-75.52"/>
<polygon fill="midnightblue" stroke="midnightblue" points="844.47,-171.37 854.99,-170.12 845.99,-164.54 844.47,-171.37"/>
</g>
<!-- Node62&#45;&gt;Node22 -->
<g id="edge37" class="edge">
<title>Node62&#45;&gt;Node22</title>
<path fill="none" stroke="midnightblue" d="M908.33,-158.52C904.34,-145.51 898.85,-127.69 894,-112 890.08,-99.34 885.52,-84.68 882.69,-75.62"/>
<polygon fill="midnightblue" stroke="midnightblue" points="905.01,-159.63 911.29,-168.17 911.7,-157.58 905.01,-159.63"/>
</g>
<!-- Node63 -->
<g id="node23" class="node">
<title>Node63</title>
<g id="a_node23"><a xlink:href="_ocean_waves_ops_8_h.html" target="_top" xlink:title=" ">
<polygon fill="white" stroke="red" points="776.5,-112.5 776.5,-131.5 885.5,-131.5 885.5,-112.5 776.5,-112.5"/>
<text text-anchor="middle" x="831" y="-119.5" font-family="Helvetica,sans-Serif" font-size="10.00">OceanWavesOps.H</text>
</a>
</g>
</g>
<!-- Node62&#45;&gt;Node63 -->
<g id="edge34" class="edge">
<title>Node62&#45;&gt;Node63</title>
<path fill="none" stroke="midnightblue" d="M891.9,-162.62C876.74,-152.76 857.12,-139.99 844.3,-131.65"/>
<polygon fill="midnightblue" stroke="midnightblue" points="890.37,-165.8 900.66,-168.32 894.19,-159.94 890.37,-165.8"/>
</g>
<!-- Node62&#45;&gt;Node64 -->
<g id="edge38" class="edge">
<title>Node62&#45;&gt;Node64</title>
<path fill="none" stroke="midnightblue" d="M938.32,-163.18C955.8,-153.24 978.83,-140.15 993.77,-131.65"/>
<polygon fill="midnightblue" stroke="midnightblue" points="936.23,-160.34 929.26,-168.32 939.69,-166.43 936.23,-160.34"/>
</g>
<!-- Node63&#45;&gt;Node17 -->
<g id="edge35" class="edge">
<title>Node63&#45;&gt;Node17</title>
<path fill="none" stroke="midnightblue" d="M806.43,-107.18C788.76,-97.24 765.49,-84.15 750.39,-75.65"/>
<polygon fill="midnightblue" stroke="midnightblue" points="805.14,-110.47 815.58,-112.32 808.58,-104.37 805.14,-110.47"/>
</g>
<!-- Node63&#45;&gt;Node22 -->
<g id="edge36" class="edge">
<title>Node63&#45;&gt;Node22</title>
<path fill="none" stroke="midnightblue" d="M846.03,-104.43C854.62,-94.97 865.04,-83.48 872.06,-75.75"/>
<polygon fill="midnightblue" stroke="midnightblue" points="843.22,-102.33 839.09,-112.08 848.4,-107.03 843.22,-102.33"/>
</g>
<!-- Node64&#45;&gt;Node22 -->
<g id="edge40" class="edge">
<title>Node64&#45;&gt;Node22</title>
<path fill="none" stroke="midnightblue" d="M979.15,-108.5C954.96,-98.38 921.54,-84.39 900.34,-75.52"/>
<polygon fill="midnightblue" stroke="midnightblue" points="977.98,-111.81 988.56,-112.44 980.69,-105.35 977.98,-111.81"/>
</g>
<!-- Node65 -->
<g id="node25" class="node">
<title>Node65</title>
<g id="a_node25"><a xlink:href="_linear_waves_8_h.html" target="_top" xlink:title=" ">
<polygon fill="white" stroke="red" points="964.5,-56.5 964.5,-75.5 1053.5,-75.5 1053.5,-56.5 964.5,-56.5"/>
<text text-anchor="middle" x="1009" y="-63.5" font-family="Helvetica,sans-Serif" font-size="10.00">LinearWaves.H</text>
</a>
</g>
</g>
<!-- Node64&#45;&gt;Node65 -->
<g id="edge39" class="edge">
<title>Node64&#45;&gt;Node65</title>
<path fill="none" stroke="midnightblue" d="M1009,-101.8C1009,-92.91 1009,-82.78 1009,-75.75"/>
<polygon fill="midnightblue" stroke="midnightblue" points="1005.5,-102.08 1009,-112.08 1012.5,-102.08 1005.5,-102.08"/>
</g>
<!-- Node66 -->
<g id="node26" class="node">
<title>Node66</title>
<g id="a_node26"><a xlink:href="_stokes_waves_8_h.html" target="_top" xlink:title=" ">
<polygon fill="white" stroke="red" points="1072,-56.5 1072,-75.5 1164,-75.5 1164,-56.5 1072,-56.5"/>
<text text-anchor="middle" x="1118" y="-63.5" font-family="Helvetica,sans-Serif" font-size="10.00">StokesWaves.H</text>
</a>
</g>
</g>
<!-- Node64&#45;&gt;Node66 -->
<g id="edge41" class="edge">
<title>Node64&#45;&gt;Node66</title>
<path fill="none" stroke="midnightblue" d="M1035.52,-107.86C1055.73,-97.85 1082.99,-84.35 1100.53,-75.65"/>
<polygon fill="midnightblue" stroke="midnightblue" points="1033.92,-104.75 1026.51,-112.32 1037.03,-111.02 1033.92,-104.75"/>
</g>
<!-- Node72&#45;&gt;Node70 -->
<g id="edge46" class="edge">
<title>Node72&#45;&gt;Node70</title>
<path fill="none" stroke="midnightblue" d="M1482,-157.8C1482,-148.91 1482,-138.78 1482,-131.75"/>
<polygon fill="midnightblue" stroke="midnightblue" points="1478.5,-158.08 1482,-168.08 1485.5,-158.08 1478.5,-158.08"/>
</g>
<!-- Node76&#45;&gt;Node70 -->
<g id="edge49" class="edge">
<title>Node76&#45;&gt;Node70</title>
<path fill="none" stroke="midnightblue" d="M1565.99,-163.86C1545.41,-153.85 1517.66,-140.35 1499.79,-131.65"/>
<polygon fill="midnightblue" stroke="midnightblue" points="1564.64,-167.1 1575.17,-168.32 1567.7,-160.8 1564.64,-167.1"/>
</g>
<!-- Node76&#45;&gt;Node74 -->
<g id="edge50" class="edge">
<title>Node76&#45;&gt;Node74</title>
<path fill="none" stroke="midnightblue" d="M1607.42,-160.43C1615.66,-150.97 1625.65,-139.48 1632.38,-131.75"/>
<polygon fill="midnightblue" stroke="midnightblue" points="1604.69,-158.24 1600.76,-168.08 1609.97,-162.84 1604.69,-158.24"/>
</g>
<!-- Node103&#45;&gt;Node49 -->
<g id="edge57" class="edge">
<title>Node103&#45;&gt;Node49</title>
<path fill="none" stroke="midnightblue" d="M1225.12,-102.35C1221.39,-78.25 1215.07,-37.31 1212.33,-19.59"/>
<polygon fill="midnightblue" stroke="midnightblue" points="1221.68,-103.02 1226.67,-112.37 1228.6,-101.95 1221.68,-103.02"/>
</g>
<!-- Node103&#45;&gt;Node117 -->
<g id="edge55" class="edge">
<title>Node103&#45;&gt;Node117</title>
<path fill="none" stroke="midnightblue" d="M1248.9,-106.34C1262.91,-96.52 1280.88,-83.91 1292.66,-75.65"/>
<polygon fill="midnightblue" stroke="midnightblue" points="1246.55,-103.72 1240.37,-112.32 1250.57,-109.45 1246.55,-103.72"/>
</g>
<!-- Node117&#45;&gt;Node49 -->
<g id="edge56" class="edge">
<title>Node117&#45;&gt;Node49</title>
<path fill="none" stroke="midnightblue" d="M1280.94,-51.18C1263.64,-41.24 1240.85,-28.15 1226.07,-19.65"/>
<polygon fill="midnightblue" stroke="midnightblue" points="1279.48,-54.38 1289.9,-56.32 1282.97,-48.31 1279.48,-54.38"/>
</g>
<!-- Node111&#45;&gt;Node112 -->
<g id="edge61" class="edge">
<title>Node111&#45;&gt;Node112</title>
<path fill="none" stroke="midnightblue" d="M2396.05,-159.57C2389.69,-150.27 2382.13,-139.25 2377,-131.75"/>
<polygon fill="midnightblue" stroke="midnightblue" points="2393.35,-161.81 2401.89,-168.08 2399.13,-157.86 2393.35,-161.81"/>
</g>
<!-- Node121&#45;&gt;Node2 -->
<g id="edge66" class="edge">
<title>Node121&#45;&gt;Node2</title>
<path fill="none" stroke="midnightblue" d="M1504.14,-341.83C1435.53,-335.91 1288.6,-321.76 1166,-300 1162.93,-299.45 1159.74,-298.82 1156.56,-298.13"/>
<polygon fill="midnightblue" stroke="midnightblue" points="1504.2,-345.35 1514.46,-342.71 1504.79,-338.37 1504.2,-345.35"/>
</g>
<!-- Node121&#45;&gt;Node4 -->
<g id="edge67" class="edge">
<title>Node121&#45;&gt;Node4</title>
<path fill="none" stroke="midnightblue" d="M1581.14,-333.72C1608.18,-324.87 1641.02,-312.06 1649,-300 1653.91,-292.59 1654.57,-286.93 1649,-280 1629.58,-255.83 1545.08,-243.87 1491.11,-238.59"/>
<polygon fill="midnightblue" stroke="midnightblue" points="1579.97,-330.42 1571.5,-336.8 1582.09,-337.09 1579.97,-330.42"/>
</g>
<!-- Node122 -->
<g id="node42" class="node">
<title>Node122</title>
<g id="a_node42"><a xlink:href="vector_i_8_h.html" target="_top" xlink:title=" ">
<polygon fill="white" stroke="black" points="1696.5,-280.5 1696.5,-299.5 1757.5,-299.5 1757.5,-280.5 1696.5,-280.5"/>
<text text-anchor="middle" x="1727" y="-287.5" font-family="Helvetica,sans-Serif" font-size="10.00">vectorI.H</text>
</a>
</g>
</g>
<!-- Node121&#45;&gt;Node122 -->
<g id="edge68" class="edge">
<title>Node121&#45;&gt;Node122</title>
<path fill="none" stroke="midnightblue" d="M1576.64,-333.47C1610.88,-322.92 1663.27,-307.63 1696.39,-298.56"/>
<polygon fill="midnightblue" stroke="midnightblue" points="1575.58,-330.13 1567.07,-336.44 1577.65,-336.82 1575.58,-330.13"/>
</g>
<!-- Node123 -->
<g id="node43" class="node">
<title>Node123</title>
<g id="a_node43"><a xlink:href="_burggraf_lid_8cpp.html" target="_top" xlink:title=" ">
<polygon fill="white" stroke="black" points="1775.5,-280.5 1775.5,-299.5 1868.5,-299.5 1868.5,-280.5 1775.5,-280.5"/>
<text text-anchor="middle" x="1822" y="-287.5" font-family="Helvetica,sans-Serif" font-size="10.00">BurggrafLid.cpp</text>
</a>
</g>
</g>
<!-- Node121&#45;&gt;Node123 -->
<g id="edge70" class="edge">
<title>Node121&#45;&gt;Node123</title>
<path fill="none" stroke="midnightblue" d="M1581.49,-335.98C1654.93,-320.56 1728.65,-307.22 1775.22,-299.05"/>
<polygon fill="midnightblue" stroke="midnightblue" points="1580.66,-332.58 1571.6,-338.07 1582.11,-339.43 1580.66,-332.58"/>
</g>
<!-- Node124 -->
<g id="node44" class="node">
<title>Node124</title>
<g id="a_node44"><a xlink:href="_custom_scalar_8cpp.html" target="_top" xlink:title=" ">
<polygon fill="white" stroke="black" points="1175,-280.5 1175,-299.5 1279,-299.5 1279,-280.5 1175,-280.5"/>
<text text-anchor="middle" x="1227" y="-287.5" font-family="Helvetica,sans-Serif" font-size="10.00">CustomScalar.cpp</text>
</a>
</g>
</g>
<!-- Node121&#45;&gt;Node124 -->
<g id="edge71" class="edge">
<title>Node121&#45;&gt;Node124</title>
<path fill="none" stroke="midnightblue" d="M1504.32,-338.39C1447.1,-328.61 1339.89,-310.29 1276.85,-299.52"/>
<polygon fill="midnightblue" stroke="midnightblue" points="1503.95,-341.88 1514.4,-340.11 1505.13,-334.98 1503.95,-341.88"/>
</g>
<!-- Node125 -->
<g id="node45" class="node">
<title>Node125</title>
<g id="a_node45"><a xlink:href="_custom_velocity_8cpp.html" target="_top" xlink:title=" ">
<polygon fill="white" stroke="black" points="1297,-280.5 1297,-299.5 1409,-299.5 1409,-280.5 1297,-280.5"/>
<text text-anchor="middle" x="1353" y="-287.5" font-family="Helvetica,sans-Serif" font-size="10.00">CustomVelocity.cpp</text>
</a>
</g>
</g>
<!-- Node121&#45;&gt;Node125 -->
<g id="edge72" class="edge">
<title>Node121&#45;&gt;Node125</title>
<path fill="none" stroke="midnightblue" d="M1504.51,-334.06C1468.65,-323.87 1415.93,-308.88 1383.07,-299.55"/>
<polygon fill="midnightblue" stroke="midnightblue" points="1503.57,-337.43 1514.14,-336.8 1505.48,-330.7 1503.57,-337.43"/>
</g>
<!-- Node126 -->
<g id="node46" class="node">
<title>Node126</title>
<g id="a_node46"><a xlink:href="_power_law_profile_8cpp.html" target="_top" xlink:title=" ">
<polygon fill="white" stroke="black" points="1427.5,-280.5 1427.5,-299.5 1544.5,-299.5 1544.5,-280.5 1427.5,-280.5"/>
<text text-anchor="middle" x="1486" y="-287.5" font-family="Helvetica,sans-Serif" font-size="10.00">PowerLawProfile.cpp</text>
</a>
</g>
</g>
<!-- Node121&#45;&gt;Node126 -->
<g id="edge73" class="edge">
<title>Node121&#45;&gt;Node126</title>
<path fill="none" stroke="midnightblue" d="M1526.38,-329.25C1516.27,-319.67 1503.72,-307.79 1495.32,-299.83"/>
<polygon fill="midnightblue" stroke="midnightblue" points="1524.18,-331.99 1533.84,-336.32 1528.99,-326.91 1524.18,-331.99"/>
</g>
<!-- Node127 -->
<g id="node47" class="node">
<title>Node127</title>
<g id="a_node47"><a xlink:href="_rankine_8cpp.html" target="_top" xlink:title=" ">
<polygon fill="white" stroke="black" points="1562.5,-280.5 1562.5,-299.5 1639.5,-299.5 1639.5,-280.5 1562.5,-280.5"/>
<text text-anchor="middle" x="1601" y="-287.5" font-family="Helvetica,sans-Serif" font-size="10.00">Rankine.cpp</text>
</a>
</g>
</g>
<!-- Node121&#45;&gt;Node127 -->
<g id="edge74" class="edge">
<title>Node121&#45;&gt;Node127</title>
<path fill="none" stroke="midnightblue" d="M1559.91,-329.25C1570.2,-319.67 1582.97,-307.79 1591.51,-299.83"/>
<polygon fill="midnightblue" stroke="midnightblue" points="1557.25,-326.95 1552.32,-336.32 1562.02,-332.07 1557.25,-326.95"/>
</g>
<!-- Node122&#45;&gt;Node121 -->
<g id="edge69" class="edge">
<title>Node122&#45;&gt;Node121</title>
<path fill="none" stroke="midnightblue" d="M1693.13,-302.6C1658.25,-313.34 1604.71,-328.96 1571.79,-337.94"/>
<polygon fill="midnightblue" stroke="midnightblue" points="1694.36,-305.88 1702.87,-299.58 1692.28,-299.2 1694.36,-305.88"/>
</g>
</g>
</svg>
